<?xml version="1.0" standalone="no"?>
<!DOCTYPE svg PUBLIC "-//W3C//DTD SVG 1.1//EN" "http://www.w3.org/Graphics/SVG/1.1/DTD/svg11.dtd" >
<svg>
<metadata>
Created by FontForge 20120731 at Sat Sep 13 10:52:46 2014
 By World Wide Web Server
Copyright (c) 2013 Monotype GmbH. Metro Nova is a trademark of Monotype GmbH registered in the U.S. Patent and Trademark Office and may be registered in certain other jurisdictions.
</metadata>
<defs>
<font id="MetroNovaPro-Regular" horiz-adv-x="586" >
  <font-face 
    font-family="Metro Nova Pro"
    font-weight="400"
    font-stretch="normal"
    units-per-em="1000"
    panose-1="2 12 5 4 2 2 3 2 2 3"
    ascent="770"
    descent="-230"
    x-height="485"
    cap-height="772"
    bbox="-213 -237 1124 1004"
    underline-thickness="50"
    underline-position="-50"
    stemh="80"
    stemv="84"
    unicode-range="U+000D-FB02"
  />
<missing-glyph horiz-adv-x="523" 
d="M187 79c28 0 46 -19 46 -46c0 -26 -18 -45 -46 -45c-27 0 -44 18 -44 45s17 46 44 46zM218 164l-66 -14v151c115 6 185 54 185 126c0 64 -49 103 -125 103c-25 0 -50 -5 -78 -17l12 73c24 8 46 10 74 10c110 0 191 -58 191 -165c0 -94 -76 -165 -193 -183v-84zM0 -138
v870h523v-870h-523zM62 671v-748h399v748h-399z" />
    <glyph glyph-name=".notdef" horiz-adv-x="523" 
d="M187 79c28 0 46 -19 46 -46c0 -26 -18 -45 -46 -45c-27 0 -44 18 -44 45s17 46 44 46zM218 164l-66 -14v151c115 6 185 54 185 126c0 64 -49 103 -125 103c-25 0 -50 -5 -78 -17l12 73c24 8 46 10 74 10c110 0 191 -58 191 -165c0 -94 -76 -165 -193 -183v-84zM0 -138
v870h523v-870h-523zM62 671v-748h399v748h-399z" />
    <glyph glyph-name="NULL" horiz-adv-x="0" 
 />
    <glyph glyph-name="CR" unicode="&#xd;" horiz-adv-x="220" 
 />
    <glyph glyph-name="space" unicode=" " horiz-adv-x="220" 
 />
    <glyph glyph-name="circumflex" unicode="&#x2c6;" horiz-adv-x="278" 
d="M223 571l-85 93l-83 -93h-48l105 162h54l105 -162h-48z" />
    <glyph glyph-name="tilde" unicode="&#x2dc;" horiz-adv-x="318" 
d="M96 633c-28 0 -48 -23 -51 -53l-35 7c7 74 44 117 90 117c43 0 89 -34 122 -34c29 0 47 23 51 54l35 -8c-8 -74 -44 -117 -90 -117c-43 0 -89 34 -122 34z" />
    <glyph glyph-name="dieresis" unicode="&#xa8;" horiz-adv-x="301" 
d="M59 698c29 0 50 -20 50 -50c0 -29 -20 -49 -49 -49c-31 0 -50 19 -50 49s19 50 49 50zM241 698c30 0 50 -20 50 -50c0 -29 -20 -49 -49 -49c-31 0 -50 19 -50 49s20 50 49 50z" />
    <glyph glyph-name="macron" unicode="&#xaf;" horiz-adv-x="287" 
d="M277 680v-64h-267v64h267z" />
    <glyph glyph-name="breve" unicode="&#x2d8;" horiz-adv-x="267" 
d="M134 640c57 0 80 33 80 86h43c0 -80 -32 -148 -123 -148c-94 0 -124 68 -124 148h43c0 -53 23 -86 81 -86z" />
    <glyph glyph-name="ring" unicode="&#x2da;" horiz-adv-x="219" 
d="M10 657c0 55 45 100 99 100c55 0 100 -45 100 -100c0 -54 -45 -99 -100 -99c-54 0 -99 45 -99 99zM53 657c0 -31 25 -56 56 -56c32 0 57 25 57 56c0 32 -25 57 -57 57c-31 0 -56 -25 -56 -57z" />
    <glyph glyph-name="hungarumlaut" unicode="&#x2dd;" horiz-adv-x="299" 
d="M73 733h92l-116 -162h-41zM202 733h92l-116 -162h-41z" />
    <glyph glyph-name="dotaccent" unicode="&#x2d9;" horiz-adv-x="128" 
d="M63 705c33 0 55 -22 55 -54s-22 -54 -54 -54c-33 0 -54 21 -54 54c0 32 21 54 53 54z" />
    <glyph glyph-name="caron" unicode="&#x2c7;" horiz-adv-x="278" 
d="M7 733h48l84 -94l84 94h48l-105 -162h-54z" />
    <glyph glyph-name="caron.alt" horiz-adv-x="128" 
d="M105 781c9 -19 13 -37 13 -61c0 -35 -18 -76 -69 -133h-39c31 60 40 92 40 127c0 16 -5 35 -12 50z" />
    <glyph glyph-name="cedilla" unicode="&#xb8;" horiz-adv-x="213" 
d="M89 9h42l-35 -67c5 1 14 2 22 2c52 0 85 -30 85 -75c0 -52 -47 -90 -112 -90c-33 0 -62 8 -81 23l5 53c16 -20 43 -28 71 -28c39 0 56 18 56 39c0 24 -20 39 -56 39c-18 0 -33 -2 -45 -5l-2 2z" />
    <glyph glyph-name="commaaccent" unicode="&#xf6c3;" horiz-adv-x="147" 
d="M124 -63c9 -16 13 -34 13 -54c0 -34 -17 -67 -83 -120h-49c48 54 62 85 62 117c0 13 -6 28 -13 40z" />
    <glyph glyph-name="commaaccent.alt" horiz-adv-x="147" 
d="M24 566c-10 17 -14 33 -14 54c0 31 17 66 83 121h50c-50 -55 -63 -84 -63 -117c0 -13 6 -29 14 -41z" />
    <glyph glyph-name="ogonek" unicode="&#x2db;" horiz-adv-x="201" 
d="M109 0v16h82v-16c-90 -63 -108 -99 -108 -139c0 -21 13 -37 39 -37c22 0 45 8 64 29h3l-6 -71c-21 -13 -46 -19 -76 -19c-59 0 -97 31 -97 87c0 46 24 82 99 150z" />
    <glyph glyph-name="grave.cap" horiz-adv-x="191" 
d="M134 824l-130 131h103l78 -131h-51z" />
    <glyph glyph-name="acute.cap" horiz-adv-x="191" 
d="M187 955l-130 -131h-51l78 131h103z" />
    <glyph glyph-name="circumflex.cap" horiz-adv-x="295" 
d="M236 824l-90 76l-87 -76h-52l102 131h77l101 -131h-51z" />
    <glyph glyph-name="tilde.cap" horiz-adv-x="321" 
d="M96 866c-28 0 -49 -23 -51 -53l-35 8c7 73 42 116 87 116s93 -34 128 -34c30 0 47 23 51 54l35 -8c-7 -74 -43 -117 -87 -117c-45 0 -93 34 -128 34z" />
    <glyph glyph-name="dieresis.cap" horiz-adv-x="323" 
d="M60 941c30 0 51 -21 51 -51s-20 -51 -50 -51c-31 0 -51 20 -51 51c0 30 20 51 50 51zM262 941c30 0 51 -21 51 -51s-21 -51 -50 -51c-32 0 -51 20 -51 51c0 30 20 51 50 51z" />
    <glyph glyph-name="macron.cap" horiz-adv-x="300" 
d="M290 911v-61h-280v61h280z" />
    <glyph glyph-name="breve.cap" horiz-adv-x="267" 
d="M134 883c54 0 77 28 80 72h43c0 -65 -32 -131 -123 -131c-94 0 -124 66 -124 131h43c3 -44 26 -72 81 -72z" />
    <glyph glyph-name="ring.cap" horiz-adv-x="216" 
d="M10 904c0 54 45 98 98 98c54 0 98 -44 98 -98c0 -53 -44 -98 -98 -98c-53 0 -98 45 -98 98zM50 904c0 -31 26 -58 58 -58s58 27 58 58c0 32 -26 58 -58 58s-58 -26 -58 -58z" />
    <glyph glyph-name="hungarumlaut.cap" horiz-adv-x="312" 
d="M82 955h95l-122 -131h-49zM213 955h94l-121 -131h-49z" />
    <glyph glyph-name="dotaccent.cap" horiz-adv-x="124" 
d="M61 941c32 0 53 -21 53 -52s-21 -52 -52 -52c-32 0 -52 20 -52 52c0 31 20 52 51 52z" />
    <glyph glyph-name="caron.cap" horiz-adv-x="295" 
d="M7 955h52l89 -76l88 76h51l-101 -131h-77z" />
    <glyph glyph-name="exclam" unicode="!" horiz-adv-x="279" 
d="M137 96c32 0 54 -22 54 -55c0 -31 -21 -53 -53 -53c-33 0 -54 21 -54 53c0 33 21 55 53 55zM92 761l103 19c-6 -192 -25 -411 -46 -562l-26 4c-17 147 -30 369 -31 539z" />
    <glyph glyph-name="quotedbl" unicode="&#x22;" horiz-adv-x="344" 
d="M269 529l-39 -7c-13 73 -21 157 -21 227h80c0 -72 -8 -147 -20 -220zM115 529l-39 -7c-13 73 -21 157 -21 227h80c0 -72 -8 -147 -20 -220z" />
    <glyph glyph-name="numbersign" unicode="#" horiz-adv-x="582" 
d="M90 475l10 63h78l56 214h63l-56 -214h166l56 214h63l-56 -214h79l-9 -63h-87l-51 -194h90l-9 -64h-97l-57 -217h-62l56 217h-166l-57 -217h-62l56 217h-61l9 64h69l50 194h-71zM224 475l-51 -194h167l50 194h-166z" />
    <glyph glyph-name="dollar" unicode="$" 
d="M314 839v-70c60 -3 115 -17 162 -41v-96c-52 39 -106 60 -162 65v-285c154 -64 212 -134 212 -237c0 -112 -86 -180 -212 -194v-131h-52v128c-77 1 -147 24 -196 62l-6 108c60 -60 124 -90 202 -95v298c-148 60 -197 120 -197 227c0 99 77 180 197 191v70h52zM449 170
c0 65 -31 115 -135 160v-277c84 8 135 53 135 117zM142 579c0 -64 27 -104 120 -146v265c-80 -8 -120 -57 -120 -119z" />
    <glyph glyph-name="percent" unicode="%" horiz-adv-x="788" 
d="M660 752l-459 -752h-66l458 752h67zM189 384c-80 0 -132 53 -132 147c0 98 76 197 174 197c80 0 133 -53 133 -147c0 -98 -77 -197 -175 -197zM228 670c-63 0 -109 -68 -109 -146c0 -53 26 -82 73 -82c63 0 110 68 110 146c0 53 -27 82 -74 82zM557 24
c-80 0 -132 53 -132 147c0 98 76 197 174 197c80 0 133 -53 133 -147c0 -98 -77 -197 -175 -197zM596 310c-63 0 -109 -68 -109 -146c0 -53 26 -82 73 -82c63 0 110 68 110 146c0 53 -27 82 -74 82z" />
    <glyph glyph-name="ampersand" unicode="&#x26;" horiz-adv-x="800" 
d="M425 345l-8 85c107 41 240 26 354 73l7 -85c-42 -16 -87 -23 -133 -29c7 -28 11 -61 11 -94c0 -189 -117 -312 -314 -312c-173 0 -278 111 -278 249c0 102 51 179 150 223c-47 39 -71 87 -71 138c0 108 103 185 240 185c53 0 98 -5 141 -16l-12 -95
c-35 16 -83 25 -130 25c-97 0 -157 -57 -157 -124c0 -46 15 -81 72 -127v-3c-101 -46 -147 -115 -147 -194c0 -99 75 -178 198 -178c147 0 233 88 233 232c0 29 -4 58 -10 83c-51 -7 -100 -16 -146 -36z" />
    <glyph glyph-name="quotesingle" unicode="'" horiz-adv-x="190" 
d="M115 529l-39 -7c-13 73 -21 157 -21 227h80c0 -72 -8 -147 -20 -220z" />
    <glyph glyph-name="parenleft" unicode="(" horiz-adv-x="348" 
d="M74 349c0 198 52 331 158 453h61c-105 -141 -148 -269 -148 -453s43 -312 148 -453h-61c-106 122 -158 255 -158 453z" />
    <glyph glyph-name="parenright" unicode=")" horiz-adv-x="348" 
d="M275 349c0 -198 -52 -331 -158 -453h-62c105 141 148 269 148 453s-43 312 -148 453h62c106 -122 158 -255 158 -453z" />
    <glyph glyph-name="asterisk" unicode="*" horiz-adv-x="455" 
d="M227 755c22 0 34 -10 34 -24c0 -18 -10 -71 -25 -119h-18c-14 48 -24 101 -24 119c0 14 12 24 33 24zM227 374c-21 0 -33 10 -33 24c0 18 10 71 24 119h18c15 -48 25 -101 25 -119c0 -14 -12 -24 -34 -24zM57 636c0 18 16 43 33 43c4 0 8 -1 11 -3c16 -9 57 -44 91 -81
l-9 -16c-49 12 -100 29 -115 38c-7 4 -11 11 -11 19zM90 450c-17 0 -33 25 -33 42c0 8 4 16 11 20c15 9 66 26 115 38l9 -16c-34 -37 -75 -72 -91 -81c-3 -2 -7 -3 -11 -3zM398 493c0 -15 -15 -43 -34 -43c-4 0 -7 1 -11 3c-15 9 -56 44 -91 81l9 16c50 -12 101 -29 116 -38
c6 -5 11 -11 11 -19zM364 679c17 0 34 -26 34 -43c0 -8 -4 -15 -11 -19c-15 -9 -66 -26 -116 -38l-9 16c35 37 76 72 91 81c4 2 7 3 11 3z" />
    <glyph glyph-name="plus" unicode="+" horiz-adv-x="576" 
d="M252 493h71v-198h202v-73h-202v-199h-71v199h-201v73h201v198z" />
    <glyph glyph-name="comma" unicode="," horiz-adv-x="247" 
d="M136 105c26 -22 43 -61 43 -107c0 -69 -46 -117 -107 -143l-13 20c34 22 55 51 55 93c0 35 -18 67 -47 89z" />
    <glyph glyph-name="hyphen" unicode="-" horiz-adv-x="324" 
d="M289 305v-73h-254v73h254z" />
    <glyph glyph-name="period" unicode="." horiz-adv-x="245" 
d="M122 96c32 0 54 -22 54 -55c0 -31 -21 -53 -53 -53c-33 0 -54 21 -54 53c0 33 21 55 53 55z" />
    <glyph glyph-name="slash" unicode="/" horiz-adv-x="432" 
d="M407 780l-309 -810h-73l308 810h74z" />
    <glyph glyph-name="zero" unicode="0" 
d="M291 -16c-154 0 -253 138 -253 394c0 260 106 390 256 390c156 0 253 -130 253 -392c0 -254 -103 -392 -256 -392zM291 61c107 0 169 103 169 318c0 211 -63 315 -167 315c-103 0 -168 -104 -168 -314c0 -211 63 -319 166 -319z" />
    <glyph glyph-name="one" unicode="1" 
d="M345 0h-85v676l-118 -9l14 85h189v-752z" />
    <glyph glyph-name="two" unicode="2" 
d="M90 716c55 31 121 49 196 49c140 0 222 -88 222 -202c0 -91 -34 -155 -106 -243c-57 -68 -169 -179 -239 -242h371l-9 -78h-486v45c84 75 224 219 302 318c55 69 80 117 80 183c0 77 -50 137 -153 137c-68 0 -133 -21 -197 -70z" />
    <glyph glyph-name="three" unicode="3" 
d="M356 395c92 -31 144 -92 144 -188c0 -135 -110 -220 -281 -220c-61 0 -112 10 -155 28l-5 87c44 -24 92 -35 153 -35c125 0 200 58 200 144c0 83 -63 138 -180 138c-49 0 -95 -3 -132 -10l20 88c24 -2 54 -3 83 -3c119 0 194 49 194 139c0 71 -52 125 -148 125
c-60 0 -106 -11 -151 -39l17 94c41 15 87 22 141 22c144 0 226 -81 226 -191c0 -81 -47 -145 -126 -179z" />
    <glyph glyph-name="four" unicode="4" 
d="M386 0v243h-373v52l362 457h92v-435h87v-74h-87v-243h-81zM106 317h280v351z" />
    <glyph glyph-name="five" unicode="5" 
d="M511 752l-11 -76h-316l-26 -197c11 1 30 2 47 2c195 0 304 -100 304 -243c0 -179 -146 -284 -407 -284c-13 0 -26 1 -38 3l8 84c18 -2 36 -4 61 -4c188 0 291 75 291 195c0 103 -77 177 -241 177c-37 0 -76 -3 -111 -9l45 352h394z" />
    <glyph glyph-name="six" unicode="6" 
d="M498 693c-219 -12 -342 -140 -377 -304c49 43 112 67 188 67c144 0 242 -92 242 -234c0 -134 -104 -236 -252 -236c-172 0 -265 122 -265 301c0 258 157 476 480 493zM293 389c-74 0 -135 -25 -181 -69c-1 -11 -1 -23 -1 -34c0 -137 72 -222 190 -222
c95 0 165 66 165 160c0 99 -71 165 -173 165z" />
    <glyph glyph-name="seven" unicode="7" 
d="M63 752h462c-95 -258 -179 -543 -217 -752h-103c55 228 145 502 215 671l-387 -8z" />
    <glyph glyph-name="eight" unicode="8" 
d="M532 190c0 -111 -94 -203 -238 -203c-148 0 -241 81 -241 199c0 95 61 164 169 200c-111 52 -145 115 -145 193c0 102 89 193 220 193c138 0 217 -85 217 -187c0 -89 -50 -153 -144 -193c106 -48 162 -109 162 -202zM445 196c0 73 -50 117 -161 158
c-97 -31 -150 -88 -150 -160c0 -74 64 -131 156 -131c98 0 155 60 155 133zM162 578c0 -75 43 -117 145 -156c78 33 127 80 127 153c0 72 -55 123 -135 123c-81 0 -137 -54 -137 -120z" />
    <glyph glyph-name="nine" unicode="9" 
d="M189 -23l-59 71c170 70 273 164 313 289c-40 -24 -91 -37 -148 -37c-157 0 -265 91 -265 237c0 129 99 235 243 235c171 0 268 -123 268 -304c0 -223 -113 -380 -352 -491zM309 365c60 0 109 11 149 35c3 22 5 45 5 69c0 139 -77 225 -194 225c-90 0 -154 -65 -154 -158
c0 -100 76 -171 194 -171z" />
    <glyph glyph-name="colon" unicode=":" horiz-adv-x="245" 
d="M122 496c32 0 54 -22 54 -55c0 -31 -21 -53 -53 -53c-33 0 -54 21 -54 53c0 33 21 55 53 55zM122 96c32 0 54 -22 54 -55c0 -31 -21 -53 -53 -53c-33 0 -54 21 -54 53c0 33 21 55 53 55z" />
    <glyph glyph-name="semicolon" unicode=";" horiz-adv-x="245" 
d="M136 105c26 -22 43 -61 43 -107c0 -69 -46 -117 -107 -143l-13 20c34 22 55 51 55 93c0 35 -18 67 -47 89zM122 496c32 0 54 -22 54 -55c0 -31 -21 -53 -53 -53c-33 0 -54 21 -54 53c0 33 21 55 53 55z" />
    <glyph glyph-name="less" unicode="&#x3c;" horiz-adv-x="576" 
d="M523 422l-405 -165l405 -164v-68l-470 193v79l470 193v-68z" />
    <glyph glyph-name="equal" unicode="=" horiz-adv-x="576" 
d="M531 381v-66h-486v66h486zM531 202v-66h-486v66h486z" />
    <glyph glyph-name="greater" unicode="&#x3e;" horiz-adv-x="576" 
d="M53 25v68l405 164l-405 165v68l470 -193v-79z" />
    <glyph glyph-name="question" unicode="?" horiz-adv-x="458" 
d="M125 96c33 0 55 -22 55 -55c0 -31 -22 -53 -54 -53c-33 0 -54 21 -54 53c0 33 21 55 53 55zM160 222l-75 -16v187c154 8 247 76 247 176c0 88 -68 144 -174 144c-37 0 -68 -5 -96 -17l15 80c28 9 56 12 92 12c143 0 248 -75 248 -214c0 -125 -103 -216 -257 -239v-113z
" />
    <glyph glyph-name="at" unicode="@" horiz-adv-x="905" 
d="M655 444l-54 -274c-3 -17 -5 -34 -5 -50c0 -27 16 -41 42 -41c84 0 150 74 150 206c0 181 -135 308 -327 308c-207 0 -346 -164 -346 -368c0 -218 154 -345 350 -345c81 0 166 23 225 68l27 -60c-62 -42 -153 -69 -253 -69c-238 0 -412 155 -412 407
c0 233 164 428 409 428c219 0 392 -144 392 -367c0 -177 -105 -271 -227 -271c-68 0 -98 24 -102 81c-31 -43 -87 -78 -149 -78c-87 0 -139 61 -139 166c0 160 104 281 221 281c61 0 104 -39 118 -82l11 60h69zM564 330c-15 41 -52 74 -102 74c-87 0 -154 -95 -154 -210
c0 -71 31 -113 92 -113c51 0 96 29 133 86z" />
    <glyph glyph-name="A" unicode="A" horiz-adv-x="757" 
d="M7 0l347 768l68 11l329 -779h-96l-109 267h-329l-114 -267h-96zM387 665l-143 -328h275z" />
    <glyph glyph-name="B" unicode="B" horiz-adv-x="627" 
d="M541 589c0 -68 -38 -133 -116 -169c95 -31 145 -95 145 -191c0 -137 -113 -229 -283 -229h-185v772h197c158 0 242 -79 242 -183zM187 370v-297h100c128 0 194 69 194 157c0 81 -64 140 -174 140h-120zM187 700v-261h113c103 0 155 66 155 138c0 68 -52 123 -160 123
h-108z" />
    <glyph glyph-name="C" unicode="C" horiz-adv-x="744" 
d="M685 716l-12 -101h-3c-52 55 -127 87 -224 87c-175 0 -299 -142 -299 -316c0 -190 122 -315 295 -315c94 0 177 31 249 106h3l-12 -115c-67 -49 -157 -75 -246 -75c-222 0 -379 159 -379 400c0 215 162 398 385 398c103 0 178 -23 243 -69z" />
    <glyph glyph-name="D" unicode="D" horiz-adv-x="761" 
d="M277 0h-175v772h177c271 0 425 -154 425 -376c0 -253 -150 -396 -427 -396zM187 693v-613h93c218 0 335 113 335 316c0 167 -118 297 -333 297h-95z" />
    <glyph glyph-name="E" unicode="E" horiz-adv-x="572" 
d="M187 694v-254h288v-74h-288v-289h334v-77h-419v772h412v-78h-327z" />
    <glyph glyph-name="F" unicode="F" horiz-adv-x="554" 
d="M521 772v-78h-334v-246h308v-77h-308v-371h-85v772h419z" />
    <glyph glyph-name="G" unicode="G" horiz-adv-x="778" 
d="M711 356v-266c-76 -65 -173 -103 -276 -103c-222 0 -378 158 -378 397c0 221 147 401 382 401c100 0 182 -27 245 -71l-12 -101h-3c-60 61 -141 91 -229 91c-180 0 -293 -136 -293 -320c0 -194 120 -317 291 -317c79 0 141 26 185 68v221h88z" />
    <glyph glyph-name="H" unicode="H" horiz-adv-x="784" 
d="M187 0h-85v772h85v-331h409v331h86v-772h-86v361h-409v-361z" />
    <glyph glyph-name="I" unicode="I" horiz-adv-x="289" 
d="M187 0h-85v772h85v-772z" />
    <glyph glyph-name="J" unicode="J" horiz-adv-x="289" 
d="M103 772h86v-640c0 -174 -24 -267 -82 -332l-131 -37l-4 11c97 69 131 144 131 350v648z" />
    <glyph glyph-name="K" unicode="K" horiz-adv-x="699" 
d="M187 0h-85v772h85v-369l354 369h118l-375 -377l407 -395h-122l-382 383v-383z" />
    <glyph glyph-name="L" unicode="L" horiz-adv-x="603" 
d="M102 0v772h85v-692h397v-80h-482z" />
    <glyph glyph-name="M" unicode="M" horiz-adv-x="1023" 
d="M102 0v772h102l304 -648l312 648h101v-772h-84v629l-302 -629h-54l-296 629v-629h-83z" />
    <glyph glyph-name="N" unicode="N" horiz-adv-x="873" 
d="M688 772h83v-772h-76l-509 634v-634h-84v772h78l508 -630v630z" />
    <glyph glyph-name="O" unicode="O" horiz-adv-x="853" 
d="M706 386c0 186 -116 320 -280 320s-280 -134 -280 -320s117 -320 280 -320c165 0 280 134 280 320zM796 386c0 -233 -155 -401 -370 -401c-216 0 -369 168 -369 401s154 401 369 401c216 0 370 -168 370 -401z" />
    <glyph glyph-name="P" unicode="P" horiz-adv-x="584" 
d="M187 0h-85v772h168c174 0 281 -83 281 -228c0 -163 -107 -244 -302 -244h-62v-300zM187 696v-320h72c136 0 206 55 206 165c0 100 -72 155 -200 155h-78z" />
    <glyph glyph-name="Q" unicode="Q" horiz-adv-x="857" 
d="M425 0c-32 0 -64 5 -95 14v-1c68 -29 151 -78 238 -105c45 -13 89 -19 138 -22l-27 -85c-46 4 -106 18 -154 36c-104 41 -176 90 -254 126c-30 14 -65 26 -93 33l42 75c-96 71 -163 191 -163 329c0 225 154 387 368 387c219 0 375 -165 375 -394
c0 -228 -157 -393 -375 -393zM708 393c0 181 -118 312 -283 312c-162 0 -276 -128 -276 -305c0 -184 126 -324 276 -324c166 0 283 133 283 317z" />
    <glyph glyph-name="R" unicode="R" horiz-adv-x="662" 
d="M99 0v772h196c166 0 263 -76 263 -211c0 -115 -72 -185 -191 -216l287 -345h-110l-265 331c-23 -2 -46 -3 -70 -3h-25v-328h-85zM184 696v-304h21c173 0 264 49 264 163c0 89 -64 141 -184 141h-101z" />
    <glyph glyph-name="S" unicode="S" horiz-adv-x="562" 
d="M68 140c58 -52 116 -77 193 -77c98 0 159 50 159 128c0 71 -42 120 -165 181c-135 68 -185 123 -185 231c0 104 85 184 212 184c62 0 118 -14 168 -38v-101c-58 44 -110 62 -163 62c-86 0 -130 -48 -130 -109c0 -71 32 -103 160 -166c138 -69 191 -137 191 -241
c0 -131 -105 -210 -256 -210c-70 0 -134 16 -177 47l-10 109h3z" />
    <glyph glyph-name="T" unicode="T" horiz-adv-x="653" 
d="M369 0h-85v692h-271v80h626v-80h-270v-692z" />
    <glyph glyph-name="U" unicode="U" horiz-adv-x="760" 
d="M96 772h86v-484c0 -152 89 -218 198 -218s199 66 199 218v484h85v-488c0 -208 -124 -298 -284 -298s-284 89 -284 295v491z" />
    <glyph glyph-name="V" unicode="V" horiz-adv-x="750" 
d="M7 772h98l262 -654l278 654h98l-341 -772h-72z" />
    <glyph glyph-name="W" unicode="W" horiz-adv-x="1131" 
d="M740 0l-176 454l-184 -454h-68l-305 772h98l244 -653l176 435l-84 218h98l235 -646l258 646h92l-317 -772h-67z" />
    <glyph glyph-name="X" unicode="X" horiz-adv-x="755" 
d="M12 0l309 400l-286 372h114l226 -305l225 305h111l-287 -369l307 -403h-113l-248 336l-253 -336h-105z" />
    <glyph glyph-name="Y" unicode="Y" horiz-adv-x="696" 
d="M379 0h-85v359l-291 413h105l232 -339l247 339h107l-315 -414v-358z" />
    <glyph glyph-name="Z" unicode="Z" horiz-adv-x="720" 
d="M659 0h-657l528 689h-452l9 83h604l-531 -689h515z" />
    <glyph glyph-name="bracketleft" unicode="[" horiz-adv-x="348" 
d="M84 -104v906h210v-47h-142v-812h142v-47h-210z" />
    <glyph glyph-name="backslash" unicode="\" horiz-adv-x="442" 
d="M339 -30l-309 810h74l308 -810h-73z" />
    <glyph glyph-name="bracketright" unicode="]" horiz-adv-x="348" 
d="M265 802v-906h-211v47h142v812h-142v47h211z" />
    <glyph glyph-name="asciicircum" unicode="^" horiz-adv-x="458" 
d="M350 410l-122 252l-121 -252h-73l150 313h89l151 -313h-74z" />
    <glyph glyph-name="underscore" unicode="_" horiz-adv-x="500" 
d="M500 -71v-57h-500v57h500z" />
    <glyph glyph-name="a" unicode="a" horiz-adv-x="501" 
d="M93 370v78c46 35 104 50 161 50c115 0 168 -61 168 -167v-323l-79 -20v73c-46 -40 -105 -72 -176 -72c-77 0 -128 42 -128 114c0 65 35 111 102 142c54 25 114 41 202 52v34c0 62 -36 96 -101 96c-51 0 -105 -18 -146 -57h-3zM343 137v107c-54 -5 -111 -19 -152 -37
c-45 -20 -67 -48 -67 -85c0 -40 25 -67 76 -67c49 0 102 28 143 82z" />
    <glyph glyph-name="b" unicode="b" horiz-adv-x="593" 
d="M269 -17c-41 0 -89 12 -115 28l-67 -24v776l82 17v-326c40 31 81 48 143 48c129 0 232 -92 232 -245c0 -166 -106 -274 -275 -274zM292 433c-51 0 -93 -17 -123 -50v-311c28 -18 62 -24 97 -24c118 0 193 76 193 202c0 111 -66 183 -167 183z" />
    <glyph glyph-name="c" unicode="c" horiz-adv-x="508" 
d="M468 127l-14 -98c-34 -25 -95 -46 -158 -46c-152 0 -247 96 -247 252c0 152 96 267 264 267c58 0 110 -14 148 -38l-15 -82c-35 28 -76 45 -131 45c-115 0 -181 -76 -181 -192c0 -100 58 -177 170 -177c67 0 115 22 161 69h3z" />
    <glyph glyph-name="d" unicode="d" horiz-adv-x="594" 
d="M429 -15l1 48c-45 -34 -101 -50 -153 -50c-145 0 -228 111 -228 248c0 161 114 271 253 271c45 0 83 -9 122 -29v290l83 17v-772zM296 53c50 0 96 13 128 42v307c-28 21 -68 30 -111 30c-102 0 -179 -79 -179 -198c0 -106 59 -181 162 -181z" />
    <glyph glyph-name="e" unicode="e" horiz-adv-x="513" 
d="M297 217c-47 -13 -118 -27 -172 -34c15 -76 69 -129 158 -129c65 0 124 28 164 76h3l-5 -90c-40 -35 -103 -57 -166 -57c-157 0 -231 110 -231 232c0 145 108 289 265 289c96 0 150 -56 150 -128s-46 -128 -166 -159zM294 440c-97 0 -171 -106 -173 -207
c45 6 109 20 157 34c71 21 102 58 102 99c0 46 -32 74 -86 74z" />
    <glyph glyph-name="f" unicode="f" horiz-adv-x="351" 
d="M199 545v-60h138v-69h-138v-416h-82v416h-99v69h99v78c0 95 33 163 97 192l130 25v-46c-115 -24 -145 -80 -145 -189z" />
    <glyph glyph-name="g" unicode="g" horiz-adv-x="534" 
d="M254 497c44 0 83 -11 114 -30c34 45 71 67 126 67v-71c-31 0 -58 -10 -82 -31c25 -29 40 -65 40 -101c0 -76 -53 -128 -144 -151c-44 -11 -88 -16 -118 -23c-31 -8 -47 -16 -47 -32c0 -17 22 -26 59 -34c43 -9 129 -19 170 -27c80 -16 113 -55 113 -119
c0 -103 -112 -182 -249 -182c-121 0 -190 70 -190 146c0 51 23 94 90 128c-56 18 -80 46 -80 74c0 36 44 64 107 85c-59 28 -99 74 -99 133c0 92 81 168 190 168zM338 0c-34 7 -89 13 -148 24c-49 -23 -80 -54 -80 -99c0 -51 48 -95 131 -95c97 0 163 51 163 106
c0 29 -18 54 -66 64zM138 326c0 -43 29 -79 75 -100c6 -3 16 -5 22 -5c10 0 19 1 36 4c60 14 102 49 102 102c0 55 -46 104 -121 104c-65 0 -114 -43 -114 -105z" />
    <glyph glyph-name="h" unicode="h" horiz-adv-x="582" 
d="M87 0v763l82 17v-379c55 67 114 96 176 96c105 0 158 -55 158 -165v-332h-82v305c0 81 -33 116 -101 116c-47 0 -94 -25 -122 -63c-23 -31 -29 -56 -29 -91v-267h-82z" />
    <glyph glyph-name="i" unicode="i" horiz-adv-x="256" 
d="M87 478l82 16v-494h-82v478zM128 722c32 0 54 -22 54 -54s-22 -54 -53 -54c-33 0 -54 21 -54 54c0 32 21 54 53 54z" />
    <glyph glyph-name="j" unicode="j" horiz-adv-x="256" 
d="M87 478l82 16v-512c0 -109 -21 -154 -51 -187l-119 -32l-6 14c68 43 94 98 94 207v494zM127 722c32 0 54 -22 54 -54s-21 -54 -53 -54c-33 0 -54 21 -54 54c0 32 21 54 53 54z" />
    <glyph glyph-name="k" unicode="k" horiz-adv-x="536" 
d="M169 780v-509l215 214h113l-241 -219l305 -266h-123l-269 255v-255h-82v763z" />
    <glyph glyph-name="l" unicode="l" horiz-adv-x="256" 
d="M169 780v-780h-82v763z" />
    <glyph glyph-name="m" unicode="m" horiz-adv-x="849" 
d="M688 0v310c0 71 -34 111 -92 111c-50 0 -85 -25 -110 -65c-11 -17 -17 -38 -17 -66v-290h-82v310c0 71 -34 111 -91 111c-51 0 -88 -26 -112 -67c-10 -17 -15 -36 -15 -65v-289h-82v485h82v-71c35 56 87 83 147 83c75 0 122 -43 142 -98c38 63 94 98 159 98
c103 0 153 -69 153 -169v-328h-82z" />
    <glyph glyph-name="n" unicode="n" horiz-adv-x="582" 
d="M87 0v485h82v-84c55 67 114 96 176 96c105 0 158 -55 158 -165v-332h-82v305c0 81 -33 116 -101 116c-47 0 -94 -25 -122 -63c-23 -31 -29 -56 -29 -91v-267h-82z" />
    <glyph glyph-name="o" unicode="o" horiz-adv-x="579" 
d="M290 53c95 0 156 70 156 192c0 116 -61 189 -156 189c-98 0 -156 -77 -156 -189s56 -192 156 -192zM290 -17c-140 0 -241 98 -241 262c0 162 102 258 241 258c132 0 241 -87 241 -258c0 -177 -113 -262 -241 -262z" />
    <glyph glyph-name="p" unicode="p" horiz-adv-x="590" 
d="M87 485h82v-15c40 20 83 28 128 28c138 0 245 -94 245 -251c0 -160 -99 -264 -259 -264c-40 0 -79 8 -114 27v-227l-82 -20v722zM281 431c-48 0 -84 -9 -112 -29v-325c28 -19 63 -30 107 -30c110 0 180 75 180 196c0 114 -68 188 -175 188z" />
    <glyph glyph-name="q" unicode="q" horiz-adv-x="596" 
d="M509 491v-708l-82 -20v262c-37 -25 -89 -41 -144 -41c-142 0 -234 98 -234 253c0 162 103 265 262 265c46 0 89 -7 125 -22zM302 55c54 0 96 13 125 38v321c-28 13 -62 21 -108 21c-116 0 -185 -76 -185 -195c0 -114 63 -185 168 -185z" />
    <glyph glyph-name="r" unicode="r" horiz-adv-x="373" 
d="M359 491v-82h-18c-51 0 -98 -16 -134 -43c-30 -23 -38 -46 -38 -89v-277h-82v485h82v-86c44 60 98 93 169 93c7 0 13 0 21 -1z" />
    <glyph glyph-name="s" unicode="s" horiz-adv-x="440" 
d="M50 31l6 92c35 -39 94 -69 159 -69c63 0 94 25 94 68c0 23 -12 46 -40 61c-39 21 -90 36 -130 55c-64 31 -85 70 -85 130c0 76 61 134 158 134c63 0 116 -16 160 -44l-23 -83c-36 38 -93 56 -134 56c-55 0 -78 -27 -78 -59s14 -50 46 -65c31 -15 85 -32 119 -49
c68 -34 90 -75 90 -134c0 -85 -66 -141 -179 -141c-72 0 -125 20 -163 48z" />
    <glyph glyph-name="t" unicode="t" horiz-adv-x="355" 
d="M18 485h94v151l82 17v-168h146v-69h-146v-252c0 -91 13 -118 81 -155v-7l-94 -11c-48 23 -69 60 -69 165v260h-94v69z" />
    <glyph glyph-name="u" unicode="u" horiz-adv-x="579" 
d="M79 485h82v-311c0 -77 38 -108 102 -108c52 0 100 32 132 82c10 15 15 32 15 54v283h82v-477l-82 -20v97c-45 -59 -105 -96 -174 -96c-104 0 -157 59 -157 169v327z" />
    <glyph glyph-name="v" unicode="v" horiz-adv-x="488" 
d="M9 485h90l133 -389l157 389h90l-210 -485h-78z" />
    <glyph glyph-name="w" unicode="w" horiz-adv-x="774" 
d="M350 485h75l103 -391l150 391h87l-204 -485h-76l-101 357l-124 -357h-77l-174 485h87l126 -390z" />
    <glyph glyph-name="x" unicode="x" horiz-adv-x="542" 
d="M514 485l-201 -233l203 -252h-99l-151 195l-162 -195h-99l215 248l-189 237h105l133 -180l146 180h99z" />
    <glyph glyph-name="y" unicode="y" horiz-adv-x="499" 
d="M61 -234c54 62 110 153 147 240l-199 479h90l150 -383l155 383h86l-212 -498c-47 -111 -81 -174 -117 -224h-100v3z" />
    <glyph glyph-name="z" unicode="z" horiz-adv-x="519" 
d="M471 0h-451l330 410h-291l7 75h428l-334 -409h323z" />
    <glyph glyph-name="braceleft" unicode="{" horiz-adv-x="348" 
d="M27 326v48c73 6 100 55 100 115v167c0 105 56 146 171 146v-46c-72 0 -104 -29 -104 -113v-168c0 -76 -35 -112 -96 -125c61 -13 96 -49 96 -125v-168c0 -86 32 -113 104 -113v-46c-115 0 -171 41 -171 146v167c0 60 -27 109 -100 115z" />
    <glyph glyph-name="bar" unicode="|" horiz-adv-x="262" 
d="M165 -110h-68v902h68v-902z" />
    <glyph glyph-name="braceright" unicode="}" horiz-adv-x="348" 
d="M321 374v-48c-73 -6 -100 -55 -100 -115v-167c0 -105 -55 -146 -171 -146v46c72 0 104 28 104 113v168c0 76 35 112 96 125c-61 13 -96 49 -96 125v168c0 85 -32 113 -104 113v46c116 0 171 -41 171 -146v-167c0 -60 27 -109 100 -115z" />
    <glyph glyph-name="asciitilde" unicode="~" horiz-adv-x="573" 
d="M546 275c-30 -58 -77 -97 -139 -97c-89 0 -151 95 -235 95c-46 0 -80 -32 -107 -85l-38 74c30 58 79 97 142 97c89 0 153 -95 235 -95c46 0 80 32 107 85z" />
    <glyph glyph-name="uni00A0" unicode="&#xa0;" horiz-adv-x="220" 
 />
    <glyph glyph-name="exclamdown" unicode="&#xa1;" horiz-adv-x="279" 
d="M142 386c-33 0 -55 22 -55 54s22 53 54 53c33 0 54 -21 54 -53s-21 -54 -53 -54zM187 -218l-103 -19c6 177 25 378 46 514l26 -4c17 -132 30 -336 31 -491z" />
    <glyph glyph-name="cent" unicode="&#xa2;" 
d="M474 666l-43 -173c30 -7 58 -18 81 -32l-14 -84c-26 20 -53 36 -85 45l-92 -367h19c72 0 125 25 174 78h2l-14 -98c-36 -28 -102 -52 -171 -52c-10 0 -19 1 -28 1l-38 -154h-55l40 163c-108 27 -173 115 -173 242c0 154 98 267 275 267c9 0 17 0 26 -1l41 165h55z
M156 235c0 -80 38 -145 113 -170l91 365h-9c-126 0 -195 -75 -195 -195z" />
    <glyph glyph-name="sterling" unicode="&#xa3;" 
d="M450 419l-18 -67c-52 3 -118 5 -180 5h-20c10 -44 19 -89 19 -131c0 -38 -6 -72 -17 -100c54 -22 110 -63 182 -63c47 0 84 19 124 70h3v-88c-31 -35 -76 -61 -128 -61c-94 0 -157 62 -215 81c-44 -53 -79 -73 -108 -73c-34 0 -53 24 -53 55c0 49 56 93 136 93h5
c8 21 12 47 12 78c0 47 -10 92 -23 136c-38 -2 -76 -6 -113 -11l21 73c24 2 47 3 70 4c-18 56 -35 110 -35 164c0 110 75 188 195 188c73 0 134 -24 194 -67l-27 -79c-58 51 -109 70 -162 70c-77 0 -119 -48 -119 -121c0 -49 11 -101 23 -152h44c55 0 138 -2 190 -4z" />
    <glyph glyph-name="currency" unicode="&#xa4;" 
d="M49 116l72 72c-26 35 -40 78 -40 125c0 46 15 90 40 125l-72 72l48 47l71 -72c35 26 78 41 125 41s90 -15 125 -41l72 72l47 -47l-72 -72c26 -35 41 -78 41 -125s-15 -91 -41 -126l72 -71l-47 -47l-72 71c-35 -25 -78 -40 -125 -40s-90 15 -125 40l-71 -71zM149 313
c0 -79 65 -144 144 -144s144 65 144 144s-65 144 -144 144s-144 -65 -144 -144z" />
    <glyph glyph-name="yen" unicode="&#xa5;" 
d="M531 317v-57h-195v-260h-84v260h-196v57h196l-51 96h-145v56h116l-148 283h89l181 -369l177 369h90l-147 -283h117v-56h-146l-49 -96h195z" />
    <glyph glyph-name="brokenbar" unicode="&#xa6;" horiz-adv-x="262" 
d="M165 -110h-68v322h68v-322zM165 470h-68v322h68v-322z" />
    <glyph glyph-name="section" unicode="&#xa7;" horiz-adv-x="488" 
d="M33 343c0 57 37 115 117 121c-61 41 -83 81 -83 135c0 71 69 137 180 137c66 0 125 -16 175 -48l-9 -79h-3c-56 46 -108 65 -167 65c-63 0 -102 -33 -102 -76c0 -33 15 -58 56 -85c54 -36 113 -56 167 -91c63 -41 91 -77 91 -140c0 -58 -37 -116 -117 -122
c62 -41 83 -82 83 -134c0 -70 -70 -137 -179 -137c-74 0 -133 21 -170 54l-8 87h3c56 -59 113 -79 178 -79c63 0 102 33 102 76c0 34 -15 61 -61 90c-54 34 -110 51 -164 86c-61 39 -89 76 -89 140zM98 351c0 -39 29 -73 93 -110c59 -35 91 -45 122 -45c54 0 77 42 77 78
c0 43 -32 76 -94 110c-62 35 -91 45 -120 45c-56 0 -78 -43 -78 -78z" />
    <glyph glyph-name="copyright" unicode="&#xa9;" horiz-adv-x="893" 
d="M45 385c0 222 179 402 401 402s402 -180 402 -402s-180 -400 -402 -400s-401 178 -401 400zM102 385c0 -190 154 -343 344 -343s345 153 345 343s-155 345 -345 345s-344 -155 -344 -345zM629 275l-12 -89c-36 -27 -97 -50 -161 -50c-146 0 -238 94 -238 246
c0 150 89 261 251 261c60 0 113 -16 154 -43l-14 -73c-38 32 -80 53 -139 53c-121 0 -184 -77 -184 -198c0 -102 57 -183 174 -183c69 0 120 24 166 76h3z" />
    <glyph glyph-name="guillemotleft" unicode="&#xab;" horiz-adv-x="450" 
d="M174 82l-130 165l130 165h60l-99 -165l99 -165h-60zM336 82l-130 165l130 165h61l-99 -165l99 -165h-61z" />
    <glyph glyph-name="logicalnot" unicode="&#xac;" horiz-adv-x="576" 
d="M54 386h442v-296h-73v226h-369v70z" />
    <glyph glyph-name="uni00AD" unicode="&#xad;" horiz-adv-x="324" 
d="M289 305v-73h-254v73h254z" />
    <glyph glyph-name="registered" unicode="&#xae;" horiz-adv-x="601" 
d="M39 525c0 146 116 262 262 262s262 -116 262 -262s-116 -262 -262 -262s-262 116 -262 262zM85 525c0 -119 96 -216 216 -216c119 0 215 97 215 216s-96 216 -215 216c-120 0 -216 -97 -216 -216zM199 374v312h81c77 0 120 -35 120 -101c0 -47 -25 -78 -67 -94l95 -117
h-62l-80 106c-13 -1 -27 -2 -41 -2v-104h-46zM245 642v-120c73 0 105 19 105 62c0 35 -21 58 -73 58h-32z" />
    <glyph glyph-name="degree" unicode="&#xb0;" horiz-adv-x="342" 
d="M42 646c0 72 57 129 129 129c70 0 130 -57 130 -129s-58 -130 -130 -130s-129 58 -129 130zM94 646c0 -43 34 -78 77 -78c42 0 78 35 78 78s-35 77 -78 77s-77 -34 -77 -77z" />
    <glyph glyph-name="plusminus" unicode="&#xb1;" horiz-adv-x="576" 
d="M531 353v-64h-208v-146h-68v146h-210v64h210v150h68v-150h208zM531 96v-63h-486v63h486z" />
    <glyph glyph-name="multiply" unicode="&#xd7;" horiz-adv-x="576" 
d="M63 82l177 177l-187 187l48 48l187 -187l187 187l48 -48l-187 -187l177 -177l-48 -48l-177 177l-177 -177z" />
    <glyph glyph-name="divide" unicode="&#xf7;" horiz-adv-x="576" 
d="M531 292v-67h-486v67h486zM288 148c30 0 50 -21 50 -51c0 -29 -20 -48 -49 -48c-31 0 -50 19 -50 48c0 30 19 51 49 51zM288 468c30 0 50 -20 50 -50s-20 -49 -49 -49c-31 0 -50 19 -50 49s19 50 49 50z" />
    <glyph glyph-name="mu" unicode="&#xb5;" horiz-adv-x="563" 
d="M249 -11c-41 0 -77 18 -91 54v-261l-81 -19v722h81v-301c0 -88 44 -115 97 -115c54 0 95 24 130 74c13 18 20 41 20 69v273h81v-477l-81 -20v94c-33 -58 -93 -93 -156 -93z" />
    <glyph glyph-name="paragraph" unicode="&#xb6;" horiz-adv-x="585" 
d="M192 772h339v-60h-92v-844h-64v844h-119v-844h-64v557c-106 0 -172 68 -172 173c0 106 66 174 172 174z" />
    <glyph glyph-name="periodcentered" unicode="&#xb7;" horiz-adv-x="245" 
d="M122 318c32 0 54 -22 54 -55c0 -31 -21 -53 -53 -53c-33 0 -54 21 -54 53c0 33 21 55 53 55z" />
    <glyph glyph-name="guillemotright" unicode="&#xbb;" horiz-adv-x="450" 
d="M114 412l130 -165l-130 -165h-60l99 165l-99 165h60zM277 412l130 -165l-130 -165h-61l99 165l-99 165h61z" />
    <glyph glyph-name="onequarter" unicode="&#xbc;" horiz-adv-x="821" 
d="M673 780l-519 -810h-65l518 810h66zM211 360h-64v338l-90 -3l9 57h145v-392zM653 0v104h-205v33l194 255h70v-236h72v-52h-72v-104h-59zM513 156h140v182z" />
    <glyph glyph-name="onehalf" unicode="&#xbd;" horiz-adv-x="821" 
d="M656 780l-519 -810h-65l518 810h66zM201 360h-64v338l-90 -3l9 57h145v-392zM668 138c-31 -31 -64 -58 -99 -82h190l-7 -56h-269v49c46 31 93 72 132 113c46 48 61 81 61 120c0 34 -24 61 -69 61c-40 0 -72 -12 -111 -43l10 72c27 20 68 30 110 30c84 0 126 -49 126 -110
c0 -51 -18 -97 -74 -154z" />
    <glyph glyph-name="threequarters" unicode="&#xbe;" horiz-adv-x="821" 
d="M713 780l-519 -810h-65l518 810h66zM667 0v104h-205v33l194 255h70v-236h72v-52h-72v-104h-59zM527 156h140v182zM289 664c0 -40 -24 -75 -66 -91c54 -17 84 -47 84 -102c0 -75 -62 -121 -152 -121c-48 0 -83 6 -110 21l-3 64c33 -21 64 -29 111 -29c57 0 90 29 90 66
c0 39 -32 66 -89 66c-32 0 -63 -4 -85 -10l13 63c13 -1 32 -2 50 -2c56 0 93 22 93 64c0 30 -25 53 -73 53c-38 0 -64 -6 -90 -23l14 64c23 10 54 15 89 15c80 0 124 -43 124 -98z" />
    <glyph glyph-name="questiondown" unicode="&#xbf;" horiz-adv-x="434" 
d="M309 386c-32 0 -54 22 -54 54s22 53 53 53c34 0 55 -21 55 -53s-22 -54 -54 -54zM274 273l75 17v-155c-139 -10 -223 -77 -223 -172c0 -77 58 -125 151 -125c35 0 65 5 93 16l-12 -79c-28 -9 -57 -12 -92 -12c-129 0 -225 67 -225 195c0 123 94 212 233 235v80z" />
    <glyph glyph-name="Agrave" unicode="&#xc0;" horiz-adv-x="757" 
d="M7 0l347 768l68 11l329 -779h-96l-109 267h-329l-114 -267h-96zM387 665l-143 -328h275zM397 824l-130 131h103l78 -131h-51z" />
    <glyph glyph-name="Aacute" unicode="&#xc1;" horiz-adv-x="757" 
d="M7 0l347 768l68 11l329 -779h-96l-109 267h-329l-114 -267h-96zM387 665l-143 -328h275zM513 955l-130 -131h-51l78 131h103z" />
    <glyph glyph-name="Acircumflex" unicode="&#xc2;" horiz-adv-x="757" 
d="M7 0l347 768l68 11l329 -779h-96l-109 267h-329l-114 -267h-96zM387 665l-143 -328h275zM480 824l-90 76l-87 -76h-52l102 131h77l101 -131h-51z" />
    <glyph glyph-name="Atilde" unicode="&#xc3;" horiz-adv-x="757" 
d="M7 0l347 768l68 11l329 -779h-96l-109 267h-329l-114 -267h-96zM387 665l-143 -328h275zM330 866c-28 0 -49 -23 -51 -53l-35 8c7 73 42 116 87 116s93 -34 128 -34c30 0 47 23 51 54l35 -8c-7 -74 -43 -117 -87 -117c-45 0 -93 34 -128 34z" />
    <glyph glyph-name="Adieresis" unicode="&#xc4;" horiz-adv-x="757" 
d="M7 0l347 768l68 11l329 -779h-96l-109 267h-329l-114 -267h-96zM387 665l-143 -328h275zM289 941c30 0 51 -21 51 -51s-20 -51 -50 -51c-31 0 -51 20 -51 51c0 30 20 51 50 51zM491 941c30 0 51 -21 51 -51s-21 -51 -50 -51c-32 0 -51 20 -51 51c0 30 20 51 50 51z" />
    <glyph glyph-name="Amacron" unicode="&#x100;" horiz-adv-x="757" 
d="M7 0l347 768l68 11l329 -779h-96l-109 267h-329l-114 -267h-96zM387 665l-143 -328h275zM531 911v-61h-280v61h280z" />
    <glyph glyph-name="Abreve" unicode="&#x102;" horiz-adv-x="757" 
d="M7 0l347 768l68 11l329 -779h-96l-109 267h-329l-114 -267h-96zM387 665l-143 -328h275zM391 883c54 0 77 28 80 72h43c0 -65 -32 -131 -123 -131c-94 0 -124 66 -124 131h43c3 -44 26 -72 81 -72z" />
    <glyph glyph-name="Aring" unicode="&#xc5;" horiz-adv-x="757" 
d="M7 0l347 768l68 11l329 -779h-96l-109 267h-329l-114 -267h-96zM387 665l-143 -328h275zM292 904c0 54 45 98 98 98c54 0 98 -44 98 -98c0 -53 -44 -98 -98 -98c-53 0 -98 45 -98 98zM332 904c0 -31 26 -58 58 -58s58 27 58 58c0 32 -26 58 -58 58s-58 -26 -58 -58z" />
    <glyph glyph-name="Aogonek" unicode="&#x104;" horiz-adv-x="757" 
d="M7 0l347 768l68 11l329 -779c-94 -48 -123 -95 -123 -139c0 -21 13 -37 39 -37c21 0 45 8 64 29h3l-7 -71c-20 -13 -45 -19 -75 -19c-60 0 -97 31 -97 87c0 46 24 83 100 150l-109 267h-329l-114 -267h-96zM387 665l-143 -328h275z" />
    <glyph glyph-name="AE" unicode="&#xc6;" horiz-adv-x="896" 
d="M523 694v-254h276v-74h-276v-289h322v-77h-408v293h-216l-153 -293h-91l404 772h464v-78h-322zM430 694l-172 -329h179v329h-7z" />
    <glyph glyph-name="Cacute" unicode="&#x106;" horiz-adv-x="744" 
d="M685 716l-12 -101h-3c-52 55 -127 87 -224 87c-175 0 -299 -142 -299 -316c0 -190 122 -315 295 -315c94 0 177 31 249 106h3l-12 -115c-67 -49 -157 -75 -246 -75c-222 0 -379 159 -379 400c0 215 162 398 385 398c103 0 178 -23 243 -69zM551 955l-130 -131h-51l78 131
h103z" />
    <glyph glyph-name="Ccircumflex" unicode="&#x108;" horiz-adv-x="744" 
d="M685 716l-12 -101h-3c-52 55 -127 87 -224 87c-175 0 -299 -142 -299 -316c0 -190 122 -315 295 -315c94 0 177 31 249 106h3l-12 -115c-67 -49 -157 -75 -246 -75c-222 0 -379 159 -379 400c0 215 162 398 385 398c103 0 178 -23 243 -69zM518 824l-90 76l-87 -76h-52
l102 131h77l101 -131h-51z" />
    <glyph glyph-name="Ccaron" unicode="&#x10c;" horiz-adv-x="744" 
d="M685 716l-12 -101h-3c-52 55 -127 87 -224 87c-175 0 -299 -142 -299 -316c0 -190 122 -315 295 -315c94 0 177 31 249 106h3l-12 -115c-67 -49 -157 -75 -246 -75c-222 0 -379 159 -379 400c0 215 162 398 385 398c103 0 178 -23 243 -69zM288 955h52l89 -76l88 76h51
l-101 -131h-77z" />
    <glyph glyph-name="Ccedilla" unicode="&#xc7;" horiz-adv-x="744" 
d="M685 716l-12 -101h-3c-52 55 -127 87 -224 87c-175 0 -299 -142 -299 -316c0 -190 122 -315 295 -315c94 0 177 31 249 106h3l-12 -115c-64 -47 -149 -72 -234 -75l-23 -45c5 1 14 2 22 2c52 0 85 -30 85 -75c0 -52 -47 -90 -112 -90c-33 0 -62 8 -81 23l5 53
c16 -20 43 -28 71 -28c39 0 56 18 56 39c0 24 -20 39 -56 39c-18 0 -33 -2 -45 -5l-2 2l40 86c-207 13 -351 168 -351 399c0 215 162 398 385 398c103 0 178 -23 243 -69z" />
    <glyph glyph-name="Cdotaccent" unicode="&#x10a;" horiz-adv-x="744" 
d="M685 716l-12 -101h-3c-52 55 -127 87 -224 87c-175 0 -299 -142 -299 -316c0 -190 122 -315 295 -315c94 0 177 31 249 106h3l-12 -115c-67 -49 -157 -75 -246 -75c-222 0 -379 159 -379 400c0 215 162 398 385 398c103 0 178 -23 243 -69zM427 941c32 0 53 -21 53 -52
s-21 -52 -52 -52c-32 0 -52 20 -52 52c0 31 20 52 51 52z" />
    <glyph glyph-name="Dcaron" unicode="&#x10e;" horiz-adv-x="761" 
d="M277 0h-175v772h177c271 0 425 -154 425 -376c0 -253 -150 -396 -427 -396zM187 693v-613h93c218 0 335 113 335 316c0 167 -118 297 -333 297h-95zM188 955h52l89 -76l88 76h51l-101 -131h-77z" />
    <glyph glyph-name="Dcroat" unicode="&#x110;" horiz-adv-x="761" 
d="M277 0h-175v359h-67v70h67v343h177c271 0 425 -154 425 -376c0 -253 -150 -396 -427 -396zM187 693v-264h159v-70h-159v-279h93c218 0 335 113 335 316c0 167 -118 297 -333 297h-95z" />
    <glyph glyph-name="Eth" unicode="&#xd0;" horiz-adv-x="761" 
d="M277 0h-175v359h-67v70h67v343h177c271 0 425 -154 425 -376c0 -253 -150 -396 -427 -396zM187 693v-264h159v-70h-159v-279h93c218 0 335 113 335 316c0 167 -118 297 -333 297h-95z" />
    <glyph glyph-name="Egrave" unicode="&#xc8;" horiz-adv-x="572" 
d="M187 694v-254h288v-74h-288v-289h334v-77h-419v772h412v-78h-327zM314 824l-130 131h103l78 -131h-51z" />
    <glyph glyph-name="Eacute" unicode="&#xc9;" horiz-adv-x="572" 
d="M187 694v-254h288v-74h-288v-289h334v-77h-419v772h412v-78h-327zM430 955l-130 -131h-51l78 131h103z" />
    <glyph glyph-name="Ecircumflex" unicode="&#xca;" horiz-adv-x="572" 
d="M187 694v-254h288v-74h-288v-289h334v-77h-419v772h412v-78h-327zM396 824l-90 76l-87 -76h-52l102 131h77l101 -131h-51z" />
    <glyph glyph-name="Edieresis" unicode="&#xcb;" horiz-adv-x="572" 
d="M187 694v-254h288v-74h-288v-289h334v-77h-419v772h412v-78h-327zM206 941c30 0 51 -21 51 -51s-20 -51 -50 -51c-31 0 -51 20 -51 51c0 30 20 51 50 51zM408 941c30 0 51 -21 51 -51s-21 -51 -50 -51c-32 0 -51 20 -51 51c0 30 20 51 50 51z" />
    <glyph glyph-name="Emacron" unicode="&#x112;" horiz-adv-x="572" 
d="M187 694v-254h288v-74h-288v-289h334v-77h-419v772h412v-78h-327zM447 911v-61h-280v61h280z" />
    <glyph glyph-name="Ebreve" unicode="&#x114;" horiz-adv-x="572" 
d="M187 694v-254h288v-74h-288v-289h334v-77h-419v772h412v-78h-327zM307 883c54 0 77 28 80 72h43c0 -65 -32 -131 -123 -131c-94 0 -124 66 -124 131h43c3 -44 26 -72 81 -72z" />
    <glyph glyph-name="Edotaccent" unicode="&#x116;" horiz-adv-x="572" 
d="M187 694v-254h288v-74h-288v-289h334v-77h-419v772h412v-78h-327zM306 941c32 0 53 -21 53 -52s-21 -52 -52 -52c-32 0 -52 20 -52 52c0 31 20 52 51 52z" />
    <glyph glyph-name="Ecaron" unicode="&#x11a;" horiz-adv-x="572" 
d="M187 694v-254h288v-74h-288v-289h334v-77h-419v772h412v-78h-327zM166 955h52l89 -76l88 76h51l-101 -131h-77z" />
    <glyph glyph-name="Eogonek" unicode="&#x118;" horiz-adv-x="572" 
d="M438 0h-336v772h412v-78h-327v-254h288v-74h-288v-289h334v-77h-1c-90 -63 -108 -99 -108 -139c0 -21 13 -37 39 -37c22 0 45 8 64 29h3l-6 -71c-21 -13 -46 -19 -76 -19c-59 0 -97 31 -97 87c0 46 24 82 99 150z" />
    <glyph glyph-name="Gcircumflex" unicode="&#x11c;" horiz-adv-x="778" 
d="M711 356v-266c-76 -65 -173 -103 -276 -103c-222 0 -378 158 -378 397c0 221 147 401 382 401c100 0 182 -27 245 -71l-12 -101h-3c-60 61 -141 91 -229 91c-180 0 -293 -136 -293 -320c0 -194 120 -317 291 -317c79 0 141 26 185 68v221h88zM514 824l-90 76l-87 -76h-52
l102 131h77l101 -131h-51z" />
    <glyph glyph-name="Gbreve" unicode="&#x11e;" horiz-adv-x="778" 
d="M711 356v-266c-76 -65 -173 -103 -276 -103c-222 0 -378 158 -378 397c0 221 147 401 382 401c100 0 182 -27 245 -71l-12 -101h-3c-60 61 -141 91 -229 91c-180 0 -293 -136 -293 -320c0 -194 120 -317 291 -317c79 0 141 26 185 68v221h88zM426 883c54 0 77 28 80 72
h43c0 -65 -32 -131 -123 -131c-94 0 -124 66 -124 131h43c3 -44 26 -72 81 -72z" />
    <glyph glyph-name="Gdotaccent" unicode="&#x120;" horiz-adv-x="778" 
d="M711 356v-266c-76 -65 -173 -103 -276 -103c-222 0 -378 158 -378 397c0 221 147 401 382 401c100 0 182 -27 245 -71l-12 -101h-3c-60 61 -141 91 -229 91c-180 0 -293 -136 -293 -320c0 -194 120 -317 291 -317c79 0 141 26 185 68v221h88zM424 941c32 0 53 -21 53 -52
s-21 -52 -52 -52c-32 0 -52 20 -52 52c0 31 20 52 51 52z" />
    <glyph glyph-name="Gcommaaccent" unicode="&#x122;" horiz-adv-x="778" 
d="M711 356v-266c-76 -65 -173 -103 -276 -103c-222 0 -378 158 -378 397c0 221 147 401 382 401c100 0 182 -27 245 -71l-12 -101h-3c-60 61 -141 91 -229 91c-180 0 -293 -136 -293 -320c0 -194 120 -317 291 -317c79 0 141 26 185 68v221h88zM469 -63
c9 -16 13 -34 13 -54c0 -34 -17 -67 -83 -120h-49c48 54 62 85 62 117c0 13 -6 28 -13 40z" />
    <glyph glyph-name="Hcircumflex" unicode="&#x124;" horiz-adv-x="784" 
d="M187 0h-85v772h85v-331h409v331h86v-772h-86v361h-409v-361zM480 824l-90 76l-87 -76h-52l102 131h77l101 -131h-51z" />
    <glyph glyph-name="Hbar" unicode="&#x126;" horiz-adv-x="787" 
d="M187 0h-85v587h-67v57h67v128h85v-128h409v128h86v-128h66v-57h-66v-587h-86v361h-409v-361zM187 441h409v146h-409v-146z" />
    <glyph glyph-name="Igrave" unicode="&#xcc;" horiz-adv-x="289" 
d="M187 0h-85v772h85v-772zM151 824l-130 131h103l78 -131h-51z" />
    <glyph glyph-name="Iacute" unicode="&#xcd;" horiz-adv-x="289" 
d="M187 0h-85v772h85v-772zM267 955l-130 -131h-51l78 131h103z" />
    <glyph glyph-name="Icircumflex" unicode="&#xce;" horiz-adv-x="289" 
d="M187 0h-85v772h85v-772zM233 824l-90 76l-87 -76h-52l102 131h77l101 -131h-51z" />
    <glyph glyph-name="Itilde" unicode="&#x128;" horiz-adv-x="289" 
d="M187 0h-85v772h85v-772zM84 866c-28 0 -49 -23 -51 -53l-35 8c7 73 42 116 87 116s93 -34 128 -34c30 0 47 23 51 54l35 -8c-7 -74 -43 -117 -87 -117c-45 0 -93 34 -128 34z" />
    <glyph glyph-name="Idieresis" unicode="&#xcf;" horiz-adv-x="289" 
d="M187 0h-85v772h85v-772zM43 941c30 0 51 -21 51 -51s-20 -51 -50 -51c-31 0 -51 20 -51 51c0 30 20 51 50 51zM245 941c30 0 51 -21 51 -51s-21 -51 -50 -51c-32 0 -51 20 -51 51c0 30 20 51 50 51z" />
    <glyph glyph-name="Imacron" unicode="&#x12a;" horiz-adv-x="289" 
d="M187 0h-85v772h85v-772zM284 911v-61h-280v61h280z" />
    <glyph glyph-name="Ibreve" unicode="&#x12c;" horiz-adv-x="289" 
d="M187 0h-85v772h85v-772zM145 883c54 0 77 28 80 72h43c0 -65 -32 -131 -123 -131c-94 0 -124 66 -124 131h43c3 -44 26 -72 81 -72z" />
    <glyph glyph-name="Idotaccent" unicode="&#x130;" horiz-adv-x="289" 
d="M187 0h-85v772h85v-772zM143 941c32 0 53 -21 53 -52s-21 -52 -52 -52c-32 0 -52 20 -52 52c0 31 20 52 51 52z" />
    <glyph glyph-name="Iogonek" unicode="&#x12e;" horiz-adv-x="289" 
d="M187 0c-70 -62 -86 -97 -86 -139c0 -21 13 -37 36 -37c26 0 48 8 66 28h3l-6 -70c-20 -13 -45 -19 -75 -19c-60 0 -97 31 -97 87c0 46 18 82 74 150v772h85v-772z" />
    <glyph glyph-name="IJ" unicode="&#x132;" horiz-adv-x="544" 
d="M187 0h-85v772h85v-772zM357 772h86v-640c0 -174 -24 -267 -82 -332l-131 -37l-4 11c97 69 131 144 131 350v648z" />
    <glyph glyph-name="Jcircumflex" unicode="&#x134;" horiz-adv-x="289" 
d="M103 772h86v-640c0 -174 -24 -267 -82 -332l-131 -37l-4 11c97 69 131 144 131 350v648zM235 824l-90 76l-87 -76h-52l102 131h77l101 -131h-51z" />
    <glyph glyph-name="Kcommaaccent" unicode="&#x136;" horiz-adv-x="699" 
d="M187 0h-85v772h85v-369l354 369h118l-375 -377l407 -395h-122l-382 383v-383zM401 -63c9 -16 13 -34 13 -54c0 -34 -17 -67 -83 -120h-49c48 54 62 85 62 117c0 13 -6 28 -13 40z" />
    <glyph glyph-name="Lacute" unicode="&#x139;" horiz-adv-x="603" 
d="M102 0v772h85v-692h397v-80h-482zM297 955l-130 -131h-51l78 131h103z" />
    <glyph glyph-name="Lcaron" unicode="&#x13d;" horiz-adv-x="603" 
d="M102 0v772h85v-692h397v-80h-482zM355 781c9 -19 13 -37 13 -61c0 -35 -18 -76 -69 -133h-39c31 60 40 92 40 127c0 16 -5 35 -12 50z" />
    <glyph glyph-name="Lcommaaccent" unicode="&#x13b;" horiz-adv-x="603" 
d="M102 0v772h85v-692h397v-80h-482zM377 -63c9 -16 13 -34 13 -54c0 -34 -17 -67 -83 -120h-49c48 54 62 85 62 117c0 13 -6 28 -13 40z" />
    <glyph glyph-name="Ldot" unicode="&#x13f;" horiz-adv-x="603" 
d="M102 0v772h85v-692h397v-80h-482zM444 521c32 0 53 -21 53 -52s-21 -52 -52 -52c-32 0 -52 20 -52 52c0 31 20 52 51 52z" />
    <glyph glyph-name="Lslash" unicode="&#x141;" horiz-adv-x="603" 
d="M102 0v334l-67 -44v75l67 44v363h85v-307l149 98v-75l-149 -98v-310h397v-80h-482z" />
    <glyph glyph-name="Nacute" unicode="&#x143;" horiz-adv-x="873" 
d="M688 772h83v-772h-76l-509 634v-634h-84v772h78l508 -630v630zM559 955l-130 -131h-51l78 131h103z" />
    <glyph glyph-name="Ncaron" unicode="&#x147;" horiz-adv-x="873" 
d="M688 772h83v-772h-76l-509 634v-634h-84v772h78l508 -630v630zM296 955h52l89 -76l88 76h51l-101 -131h-77z" />
    <glyph glyph-name="Ntilde" unicode="&#xd1;" horiz-adv-x="873" 
d="M688 772h83v-772h-76l-509 634v-634h-84v772h78l508 -630v630zM376 866c-28 0 -49 -23 -51 -53l-35 8c7 73 42 116 87 116s93 -34 128 -34c30 0 47 23 51 54l35 -8c-7 -74 -43 -117 -87 -117c-45 0 -93 34 -128 34z" />
    <glyph glyph-name="Ncommaaccent" unicode="&#x145;" horiz-adv-x="873" 
d="M688 772h83v-772h-76l-509 634v-634h-84v772h78l508 -630v630zM471 -63c9 -16 13 -34 13 -54c0 -34 -17 -67 -83 -120h-49c48 54 62 85 62 117c0 13 -6 28 -13 40z" />
    <glyph glyph-name="Eng" unicode="&#x14a;" horiz-adv-x="873" 
d="M771 772v-819c0 -118 -61 -190 -167 -190c-34 0 -61 7 -87 21l-12 89c25 -23 47 -33 88 -33c57 0 93 42 93 123v48l-500 628v-639h-84v772h78l508 -636v636h83z" />
    <glyph glyph-name="Ograve" unicode="&#xd2;" horiz-adv-x="853" 
d="M706 386c0 186 -116 320 -280 320s-280 -134 -280 -320s117 -320 280 -320c165 0 280 134 280 320zM796 386c0 -233 -155 -401 -370 -401c-216 0 -369 168 -369 401s154 401 369 401c216 0 370 -168 370 -401zM433 824l-130 131h103l78 -131h-51z" />
    <glyph glyph-name="Oacute" unicode="&#xd3;" horiz-adv-x="853" 
d="M706 386c0 186 -116 320 -280 320s-280 -134 -280 -320s117 -320 280 -320c165 0 280 134 280 320zM796 386c0 -233 -155 -401 -370 -401c-216 0 -369 168 -369 401s154 401 369 401c216 0 370 -168 370 -401zM549 955l-130 -131h-51l78 131h103z" />
    <glyph glyph-name="Ocircumflex" unicode="&#xd4;" horiz-adv-x="853" 
d="M706 386c0 186 -116 320 -280 320s-280 -134 -280 -320s117 -320 280 -320c165 0 280 134 280 320zM796 386c0 -233 -155 -401 -370 -401c-216 0 -369 168 -369 401s154 401 369 401c216 0 370 -168 370 -401zM515 824l-90 76l-87 -76h-52l102 131h77l101 -131h-51z" />
    <glyph glyph-name="Otilde" unicode="&#xd5;" horiz-adv-x="853" 
d="M706 386c0 186 -116 320 -280 320s-280 -134 -280 -320s117 -320 280 -320c165 0 280 134 280 320zM796 386c0 -233 -155 -401 -370 -401c-216 0 -369 168 -369 401s154 401 369 401c216 0 370 -168 370 -401zM366 866c-28 0 -49 -23 -51 -53l-35 8c7 73 42 116 87 116
s93 -34 128 -34c30 0 47 23 51 54l35 -8c-7 -74 -43 -117 -87 -117c-45 0 -93 34 -128 34z" />
    <glyph glyph-name="Odieresis" unicode="&#xd6;" horiz-adv-x="853" 
d="M706 386c0 186 -116 320 -280 320s-280 -134 -280 -320s117 -320 280 -320c165 0 280 134 280 320zM796 386c0 -233 -155 -401 -370 -401c-216 0 -369 168 -369 401s154 401 369 401c216 0 370 -168 370 -401zM325 941c30 0 51 -21 51 -51s-20 -51 -50 -51
c-31 0 -51 20 -51 51c0 30 20 51 50 51zM527 941c30 0 51 -21 51 -51s-21 -51 -50 -51c-32 0 -51 20 -51 51c0 30 20 51 50 51z" />
    <glyph glyph-name="Omacron" unicode="&#x14c;" horiz-adv-x="853" 
d="M706 386c0 186 -116 320 -280 320s-280 -134 -280 -320s117 -320 280 -320c165 0 280 134 280 320zM796 386c0 -233 -155 -401 -370 -401c-216 0 -369 168 -369 401s154 401 369 401c216 0 370 -168 370 -401zM567 911v-61h-280v61h280z" />
    <glyph glyph-name="Obreve" unicode="&#x14e;" horiz-adv-x="853" 
d="M706 386c0 186 -116 320 -280 320s-280 -134 -280 -320s117 -320 280 -320c165 0 280 134 280 320zM796 386c0 -233 -155 -401 -370 -401c-216 0 -369 168 -369 401s154 401 369 401c216 0 370 -168 370 -401zM427 883c54 0 77 28 80 72h43c0 -65 -32 -131 -123 -131
c-94 0 -124 66 -124 131h43c3 -44 26 -72 81 -72z" />
    <glyph glyph-name="Ohungarumlaut" unicode="&#x150;" horiz-adv-x="853" 
d="M706 386c0 186 -116 320 -280 320s-280 -134 -280 -320s117 -320 280 -320c165 0 280 134 280 320zM796 386c0 -233 -155 -401 -370 -401c-216 0 -369 168 -369 401s154 401 369 401c216 0 370 -168 370 -401zM399 955h95l-122 -131h-49zM530 955h94l-121 -131h-49z" />
    <glyph glyph-name="Oslash" unicode="&#xd8;" horiz-adv-x="853" 
d="M796 386c0 -233 -155 -401 -370 -401c-82 0 -155 24 -214 67l-46 -60l-63 20l61 81c-67 72 -107 174 -107 293c0 233 154 401 369 401c81 0 154 -24 213 -67l45 60l64 -20l-61 -81c68 -71 109 -174 109 -293zM706 386c0 89 -27 166 -73 223l-370 -489
c45 -35 100 -54 163 -54c165 0 280 134 280 320zM146 386c0 -89 26 -166 72 -222l370 489c-45 34 -100 53 -162 53c-164 0 -280 -134 -280 -320z" />
    <glyph glyph-name="OE" unicode="&#x152;" horiz-adv-x="964" 
d="M591 694v-254h275v-74h-275v-289h321v-77h-478c-214 0 -377 161 -377 386s164 386 377 386h478v-78h-321zM146 386c0 -180 126 -309 289 -309h70v617h-70c-164 0 -289 -126 -289 -308z" />
    <glyph glyph-name="Racute" unicode="&#x154;" horiz-adv-x="662" 
d="M99 0v772h196c166 0 263 -76 263 -211c0 -115 -72 -185 -191 -216l287 -345h-110l-265 331c-23 -2 -46 -3 -70 -3h-25v-328h-85zM184 696v-304h21c173 0 264 49 264 163c0 89 -64 141 -184 141h-101zM424 955l-130 -131h-51l78 131h103z" />
    <glyph glyph-name="Rcaron" unicode="&#x158;" horiz-adv-x="662" 
d="M99 0v772h196c166 0 263 -76 263 -211c0 -115 -72 -185 -191 -216l287 -345h-110l-265 331c-23 -2 -46 -3 -70 -3h-25v-328h-85zM184 696v-304h21c173 0 264 49 264 163c0 89 -64 141 -184 141h-101zM161 955h52l89 -76l88 76h51l-101 -131h-77z" />
    <glyph glyph-name="Rcommaaccent" unicode="&#x156;" horiz-adv-x="662" 
d="M99 0v772h196c166 0 263 -76 263 -211c0 -115 -72 -185 -191 -216l287 -345h-110l-265 331c-23 -2 -46 -3 -70 -3h-25v-328h-85zM184 696v-304h21c173 0 264 49 264 163c0 89 -64 141 -184 141h-101zM374 -63c9 -16 13 -34 13 -54c0 -34 -17 -67 -83 -120h-49
c48 54 62 85 62 117c0 13 -6 28 -13 40z" />
    <glyph glyph-name="Sacute" unicode="&#x15a;" horiz-adv-x="562" 
d="M68 140c58 -52 116 -77 193 -77c98 0 159 50 159 128c0 71 -42 120 -165 181c-135 68 -185 123 -185 231c0 104 85 184 212 184c62 0 118 -14 168 -38v-101c-58 44 -110 62 -163 62c-86 0 -130 -48 -130 -109c0 -71 32 -103 160 -166c138 -69 191 -137 191 -241
c0 -131 -105 -210 -256 -210c-70 0 -134 16 -177 47l-10 109h3zM404 955l-130 -131h-51l78 131h103z" />
    <glyph glyph-name="Scaron" unicode="&#x160;" horiz-adv-x="562" 
d="M68 140c58 -52 116 -77 193 -77c98 0 159 50 159 128c0 71 -42 120 -165 181c-135 68 -185 123 -185 231c0 104 85 184 212 184c62 0 118 -14 168 -38v-101c-58 44 -110 62 -163 62c-86 0 -130 -48 -130 -109c0 -71 32 -103 160 -166c138 -69 191 -137 191 -241
c0 -131 -105 -210 -256 -210c-70 0 -134 16 -177 47l-10 109h3zM141 955h52l89 -76l88 76h51l-101 -131h-77z" />
    <glyph glyph-name="Scircumflex" unicode="&#x15c;" horiz-adv-x="562" 
d="M68 140c58 -52 116 -77 193 -77c98 0 159 50 159 128c0 71 -42 120 -165 181c-135 68 -185 123 -185 231c0 104 85 184 212 184c62 0 118 -14 168 -38v-101c-58 44 -110 62 -163 62c-86 0 -130 -48 -130 -109c0 -71 32 -103 160 -166c138 -69 191 -137 191 -241
c0 -131 -105 -210 -256 -210c-70 0 -134 16 -177 47l-10 109h3zM371 824l-90 76l-87 -76h-52l102 131h77l101 -131h-51z" />
    <glyph glyph-name="Scedilla" unicode="&#x15e;" horiz-adv-x="562" 
d="M68 140c58 -52 116 -77 193 -77c98 0 159 50 159 128c0 71 -42 120 -165 181c-135 68 -185 123 -185 231c0 104 85 184 212 184c62 0 118 -14 168 -38v-101c-58 44 -110 62 -163 62c-86 0 -130 -48 -130 -109c0 -71 32 -103 160 -166c138 -69 191 -137 191 -241
c0 -122 -91 -198 -225 -208l-22 -44c5 1 14 2 22 2c52 0 85 -30 85 -75c0 -52 -47 -90 -112 -90c-33 0 -62 8 -81 23l5 53c16 -20 43 -28 71 -28c39 0 56 18 56 39c0 24 -20 39 -56 39c-18 0 -33 -2 -45 -5l-2 2l38 82c-66 2 -126 17 -167 47l-10 109h3z" />
    <glyph glyph-name="uni0218" unicode="&#x218;" horiz-adv-x="562" 
d="M68 140c58 -52 116 -77 193 -77c98 0 159 50 159 128c0 71 -42 120 -165 181c-135 68 -185 123 -185 231c0 104 85 184 212 184c62 0 118 -14 168 -38v-101c-58 44 -110 62 -163 62c-86 0 -130 -48 -130 -109c0 -71 32 -103 160 -166c138 -69 191 -137 191 -241
c0 -131 -105 -210 -256 -210c-70 0 -134 16 -177 47l-10 109h3zM306 -63c9 -16 13 -34 13 -54c0 -34 -17 -67 -83 -120h-49c48 54 62 85 62 117c0 13 -6 28 -13 40z" />
    <glyph glyph-name="Tcaron" unicode="&#x164;" horiz-adv-x="653" 
d="M369 0h-85v692h-271v80h626v-80h-270v-692zM185 955h52l89 -76l88 76h51l-101 -131h-77z" />
    <glyph glyph-name="uni0162" unicode="&#x162;" horiz-adv-x="653" 
d="M369 0h-85v692h-271v80h626v-80h-270v-692zM362 -63c9 -16 13 -34 13 -54c0 -34 -17 -67 -83 -120h-49c48 54 62 85 62 117c0 13 -6 28 -13 40z" />
    <glyph glyph-name="uni021A" unicode="&#x21a;" horiz-adv-x="653" 
d="M369 0h-85v692h-271v80h626v-80h-270v-692zM362 -63c9 -16 13 -34 13 -54c0 -34 -17 -67 -83 -120h-49c48 54 62 85 62 117c0 13 -6 28 -13 40z" />
    <glyph glyph-name="Tbar" unicode="&#x166;" horiz-adv-x="653" 
d="M369 0h-85v427h-114v70h114v195h-271v80h626v-80h-270v-195h114v-70h-114v-427z" />
    <glyph glyph-name="Ugrave" unicode="&#xd9;" horiz-adv-x="760" 
d="M96 772h86v-484c0 -152 89 -218 198 -218s199 66 199 218v484h85v-488c0 -208 -124 -298 -284 -298s-284 89 -284 295v491zM387 824l-130 131h103l78 -131h-51z" />
    <glyph glyph-name="Uacute" unicode="&#xda;" horiz-adv-x="760" 
d="M96 772h86v-484c0 -152 89 -218 198 -218s199 66 199 218v484h85v-488c0 -208 -124 -298 -284 -298s-284 89 -284 295v491zM503 955l-130 -131h-51l78 131h103z" />
    <glyph glyph-name="Ucircumflex" unicode="&#xdb;" horiz-adv-x="760" 
d="M96 772h86v-484c0 -152 89 -218 198 -218s199 66 199 218v484h85v-488c0 -208 -124 -298 -284 -298s-284 89 -284 295v491zM469 824l-90 76l-87 -76h-52l102 131h77l101 -131h-51z" />
    <glyph glyph-name="Utilde" unicode="&#x168;" horiz-adv-x="760" 
d="M96 772h86v-484c0 -152 89 -218 198 -218s199 66 199 218v484h85v-488c0 -208 -124 -298 -284 -298s-284 89 -284 295v491zM320 866c-28 0 -49 -23 -51 -53l-35 8c7 73 42 116 87 116s93 -34 128 -34c30 0 47 23 51 54l35 -8c-7 -74 -43 -117 -87 -117
c-45 0 -93 34 -128 34z" />
    <glyph glyph-name="Udieresis" unicode="&#xdc;" horiz-adv-x="760" 
d="M96 772h86v-484c0 -152 89 -218 198 -218s199 66 199 218v484h85v-488c0 -208 -124 -298 -284 -298s-284 89 -284 295v491zM279 941c30 0 51 -21 51 -51s-20 -51 -50 -51c-31 0 -51 20 -51 51c0 30 20 51 50 51zM481 941c30 0 51 -21 51 -51s-21 -51 -50 -51
c-32 0 -51 20 -51 51c0 30 20 51 50 51z" />
    <glyph glyph-name="Umacron" unicode="&#x16a;" horiz-adv-x="760" 
d="M96 772h86v-484c0 -152 89 -218 198 -218s199 66 199 218v484h85v-488c0 -208 -124 -298 -284 -298s-284 89 -284 295v491zM520 911v-61h-280v61h280z" />
    <glyph glyph-name="Ubreve" unicode="&#x16c;" horiz-adv-x="760" 
d="M96 772h86v-484c0 -152 89 -218 198 -218s199 66 199 218v484h85v-488c0 -208 -124 -298 -284 -298s-284 89 -284 295v491zM380 883c54 0 77 28 80 72h43c0 -65 -32 -131 -123 -131c-94 0 -124 66 -124 131h43c3 -44 26 -72 81 -72z" />
    <glyph glyph-name="Uring" unicode="&#x16e;" horiz-adv-x="760" 
d="M96 772h86v-484c0 -152 89 -218 198 -218s199 66 199 218v484h85v-488c0 -208 -124 -298 -284 -298s-284 89 -284 295v491zM282 904c0 54 45 98 98 98c54 0 98 -44 98 -98c0 -53 -44 -98 -98 -98c-53 0 -98 45 -98 98zM322 904c0 -31 26 -58 58 -58s58 27 58 58
c0 32 -26 58 -58 58s-58 -26 -58 -58z" />
    <glyph glyph-name="Uhungarumlaut" unicode="&#x170;" horiz-adv-x="760" 
d="M96 772h86v-484c0 -152 89 -218 198 -218s199 66 199 218v484h85v-488c0 -208 -124 -298 -284 -298s-284 89 -284 295v491zM353 955h95l-122 -131h-49zM484 955h94l-121 -131h-49z" />
    <glyph glyph-name="Uogonek" unicode="&#x172;" horiz-adv-x="760" 
d="M547 -218c-21 -13 -46 -19 -76 -19c-59 0 -97 31 -97 87c0 45 19 82 92 147c-25 -7 -56 -11 -86 -11c-160 0 -284 89 -284 295v491h86v-484c0 -151 89 -218 198 -218s199 66 199 218v484h85v-488c0 -111 -35 -184 -91 -237c-107 -102 -126 -135 -126 -186
c0 -21 13 -37 39 -37c22 0 45 8 64 29h3z" />
    <glyph glyph-name="Wgrave" unicode="&#x1e80;" horiz-adv-x="1131" 
d="M740 0l-176 454l-184 -454h-68l-305 772h98l244 -653l176 435l-84 218h98l235 -646l258 646h92l-317 -772h-67zM546 824l-130 131h103l78 -131h-51z" />
    <glyph glyph-name="Wacute" unicode="&#x1e82;" horiz-adv-x="1131" 
d="M740 0l-176 454l-184 -454h-68l-305 772h98l244 -653l176 435l-84 218h98l235 -646l258 646h92l-317 -772h-67zM662 955l-130 -131h-51l78 131h103z" />
    <glyph glyph-name="Wcircumflex" unicode="&#x174;" horiz-adv-x="1131" 
d="M740 0l-176 454l-184 -454h-68l-305 772h98l244 -653l176 435l-84 218h98l235 -646l258 646h92l-317 -772h-67zM629 824l-90 76l-87 -76h-52l102 131h77l101 -131h-51z" />
    <glyph glyph-name="Wdieresis" unicode="&#x1e84;" horiz-adv-x="1131" 
d="M740 0l-176 454l-184 -454h-68l-305 772h98l244 -653l176 435l-84 218h98l235 -646l258 646h92l-317 -772h-67zM438 941c30 0 51 -21 51 -51s-20 -51 -50 -51c-31 0 -51 20 -51 51c0 30 20 51 50 51zM640 941c30 0 51 -21 51 -51s-21 -51 -50 -51c-32 0 -51 20 -51 51
c0 30 20 51 50 51z" />
    <glyph glyph-name="Ygrave" unicode="&#x1ef2;" horiz-adv-x="696" 
d="M379 0h-85v359l-291 413h105l232 -339l247 339h107l-315 -414v-358zM355 824l-130 131h103l78 -131h-51z" />
    <glyph glyph-name="Yacute" unicode="&#xdd;" horiz-adv-x="696" 
d="M379 0h-85v359l-291 413h105l232 -339l247 339h107l-315 -414v-358zM471 955l-130 -131h-51l78 131h103z" />
    <glyph glyph-name="Ycircumflex" unicode="&#x176;" horiz-adv-x="696" 
d="M379 0h-85v359l-291 413h105l232 -339l247 339h107l-315 -414v-358zM437 824l-90 76l-87 -76h-52l102 131h77l101 -131h-51z" />
    <glyph glyph-name="Ydieresis" unicode="&#x178;" horiz-adv-x="696" 
d="M379 0h-85v359l-291 413h105l232 -339l247 339h107l-315 -414v-358zM247 941c30 0 51 -21 51 -51s-20 -51 -50 -51c-31 0 -51 20 -51 51c0 30 20 51 50 51zM449 941c30 0 51 -21 51 -51s-21 -51 -50 -51c-32 0 -51 20 -51 51c0 30 20 51 50 51z" />
    <glyph glyph-name="Zacute" unicode="&#x179;" horiz-adv-x="720" 
d="M659 0h-657l528 689h-452l9 83h604l-531 -689h515zM476 955l-130 -131h-51l78 131h103z" />
    <glyph glyph-name="Zcaron" unicode="&#x17d;" horiz-adv-x="720" 
d="M659 0h-657l528 689h-452l9 83h604l-531 -689h515zM212 955h52l89 -76l88 76h51l-101 -131h-77z" />
    <glyph glyph-name="Zdotaccent" unicode="&#x17b;" horiz-adv-x="720" 
d="M659 0h-657l528 689h-452l9 83h604l-531 -689h515zM352 941c32 0 53 -21 53 -52s-21 -52 -52 -52c-32 0 -52 20 -52 52c0 31 20 52 51 52z" />
    <glyph glyph-name="germandblS" unicode="&#x1e9e;" horiz-adv-x="743" 
d="M647 717l-184 -285c159 -14 230 -111 230 -221c0 -137 -98 -228 -246 -228c-64 0 -112 12 -145 31l-10 100h3c32 -32 85 -52 149 -52c109 0 164 62 164 149c0 77 -59 156 -208 156c-24 0 -48 -2 -67 -7l-2 2l203 315c-33 18 -77 28 -131 28c-133 0 -228 -83 -228 -233
v-472h-85v480c0 184 130 304 316 304c102 0 178 -25 241 -67z" />
    <glyph glyph-name="Thorn" unicode="&#xde;" horiz-adv-x="581" 
d="M187 0h-85v772h85v-130h83c174 0 281 -83 281 -228c0 -163 -107 -245 -302 -245h-62v-169zM187 566v-321h72c136 0 206 56 206 166c0 99 -72 155 -200 155h-78z" />
    <glyph glyph-name="agrave" unicode="&#xe0;" horiz-adv-x="501" 
d="M93 370v78c46 35 104 50 161 50c115 0 168 -61 168 -167v-323l-79 -20v73c-46 -40 -105 -72 -176 -72c-77 0 -128 42 -128 114c0 65 35 111 102 142c54 25 114 41 202 52v34c0 62 -36 96 -101 96c-51 0 -105 -18 -146 -57h-3zM343 137v107c-54 -5 -111 -19 -152 -37
c-45 -20 -67 -48 -67 -85c0 -40 25 -67 76 -67c49 0 102 28 143 82zM258 577l-134 162h97l80 -162h-43z" />
    <glyph glyph-name="aacute" unicode="&#xe1;" horiz-adv-x="501" 
d="M93 370v78c46 35 104 50 161 50c115 0 168 -61 168 -167v-323l-79 -20v73c-46 -40 -105 -72 -176 -72c-77 0 -128 42 -128 114c0 65 35 111 102 142c54 25 114 41 202 52v34c0 62 -36 96 -101 96c-51 0 -105 -18 -146 -57h-3zM343 137v107c-54 -5 -111 -19 -152 -37
c-45 -20 -67 -48 -67 -85c0 -40 25 -67 76 -67c49 0 102 28 143 82zM376 739l-134 -162h-43l80 162h97z" />
    <glyph glyph-name="acircumflex" unicode="&#xe2;" horiz-adv-x="501" 
d="M93 370v78c46 35 104 50 161 50c115 0 168 -61 168 -167v-323l-79 -20v73c-46 -40 -105 -72 -176 -72c-77 0 -128 42 -128 114c0 65 35 111 102 142c54 25 114 41 202 52v34c0 62 -36 96 -101 96c-51 0 -105 -18 -146 -57h-3zM343 137v107c-54 -5 -111 -19 -152 -37
c-45 -20 -67 -48 -67 -85c0 -40 25 -67 76 -67c49 0 102 28 143 82zM334 577l-85 93l-83 -93h-48l105 162h54l105 -162h-48z" />
    <glyph glyph-name="atilde" unicode="&#xe3;" horiz-adv-x="501" 
d="M93 370v78c46 35 104 50 161 50c115 0 168 -61 168 -167v-323l-79 -20v73c-46 -40 -105 -72 -176 -72c-77 0 -128 42 -128 114c0 65 35 111 102 142c54 25 114 41 202 52v34c0 62 -36 96 -101 96c-51 0 -105 -18 -146 -57h-3zM343 137v107c-54 -5 -111 -19 -152 -37
c-45 -20 -67 -48 -67 -85c0 -40 25 -67 76 -67c49 0 102 28 143 82zM193 639c-28 0 -48 -23 -51 -53l-35 7c7 74 44 117 90 117c43 0 89 -34 122 -34c29 0 47 23 51 54l35 -8c-8 -74 -44 -117 -90 -117c-43 0 -89 34 -122 34z" />
    <glyph glyph-name="adieresis" unicode="&#xe4;" horiz-adv-x="501" 
d="M93 370v78c46 35 104 50 161 50c115 0 168 -61 168 -167v-323l-79 -20v73c-46 -40 -105 -72 -176 -72c-77 0 -128 42 -128 114c0 65 35 111 102 142c54 25 114 41 202 52v34c0 62 -36 96 -101 96c-51 0 -105 -18 -146 -57h-3zM343 137v107c-54 -5 -111 -19 -152 -37
c-45 -20 -67 -48 -67 -85c0 -40 25 -67 76 -67c49 0 102 28 143 82zM159 704c29 0 50 -20 50 -50c0 -29 -20 -49 -49 -49c-31 0 -50 19 -50 49s19 50 49 50zM341 704c30 0 50 -20 50 -50c0 -29 -20 -49 -49 -49c-31 0 -50 19 -50 49s20 50 49 50z" />
    <glyph glyph-name="amacron" unicode="&#x101;" horiz-adv-x="501" 
d="M93 370v78c46 35 104 50 161 50c115 0 168 -61 168 -167v-323l-79 -20v73c-46 -40 -105 -72 -176 -72c-77 0 -128 42 -128 114c0 65 35 111 102 142c54 25 114 41 202 52v34c0 62 -36 96 -101 96c-51 0 -105 -18 -146 -57h-3zM343 137v107c-54 -5 -111 -19 -152 -37
c-45 -20 -67 -48 -67 -85c0 -40 25 -67 76 -67c49 0 102 28 143 82zM383 686v-64h-267v64h267z" />
    <glyph glyph-name="abreve" unicode="&#x103;" horiz-adv-x="501" 
d="M93 370v78c46 35 104 50 161 50c115 0 168 -61 168 -167v-323l-79 -20v73c-46 -40 -105 -72 -176 -72c-77 0 -128 42 -128 114c0 65 35 111 102 142c54 25 114 41 202 52v34c0 62 -36 96 -101 96c-51 0 -105 -18 -146 -57h-3zM343 137v107c-54 -5 -111 -19 -152 -37
c-45 -20 -67 -48 -67 -85c0 -40 25 -67 76 -67c49 0 102 28 143 82zM250 646c57 0 80 33 80 86h43c0 -80 -32 -148 -123 -148c-94 0 -124 68 -124 148h43c0 -53 23 -86 81 -86z" />
    <glyph glyph-name="aring" unicode="&#xe5;" horiz-adv-x="501" 
d="M93 370v78c46 35 104 50 161 50c115 0 168 -61 168 -167v-323l-79 -20v73c-46 -40 -105 -72 -176 -72c-77 0 -128 42 -128 114c0 65 35 111 102 142c54 25 114 41 202 52v34c0 62 -36 96 -101 96c-51 0 -105 -18 -146 -57h-3zM343 137v107c-54 -5 -111 -19 -152 -37
c-45 -20 -67 -48 -67 -85c0 -40 25 -67 76 -67c49 0 102 28 143 82zM151 663c0 55 45 100 99 100c55 0 100 -45 100 -100c0 -54 -45 -99 -100 -99c-54 0 -99 45 -99 99zM194 663c0 -31 25 -56 56 -56c32 0 57 25 57 56c0 32 -25 57 -57 57c-31 0 -56 -25 -56 -57z" />
    <glyph glyph-name="aogonek" unicode="&#x105;" horiz-adv-x="501" 
d="M93 370v78c46 35 104 50 161 50c115 0 168 -61 168 -167v-323c-89 -69 -108 -105 -108 -147c0 -21 13 -37 39 -37c22 0 46 8 64 29h3l-6 -71c-21 -13 -45 -19 -76 -19c-59 0 -97 31 -97 87c0 46 25 82 102 150v61c-46 -40 -105 -72 -176 -72c-77 0 -128 42 -128 114
c0 65 35 111 102 142c54 25 114 41 202 52v34c0 62 -36 96 -101 96c-51 0 -105 -18 -146 -57h-3zM343 137v107c-54 -5 -111 -19 -152 -37c-45 -20 -67 -48 -67 -85c0 -40 25 -67 76 -67c49 0 102 28 143 82z" />
    <glyph glyph-name="ae" unicode="&#xe6;" horiz-adv-x="784" 
d="M94 447c45 36 104 52 160 52c82 0 130 -35 147 -98c42 58 107 95 193 95c92 0 140 -53 140 -121c0 -63 -44 -123 -169 -142c-41 -6 -102 -12 -153 -14c4 -112 58 -165 151 -165c61 0 119 29 155 80h3l-4 -92c-38 -35 -99 -60 -160 -60c-88 0 -147 33 -181 90
c-51 -49 -125 -90 -197 -90c-86 0 -140 47 -140 123c0 71 49 123 135 146c43 11 99 19 168 22v58c0 64 -38 97 -99 97c-53 0 -105 -19 -146 -60h-3v79zM199 50c53 0 108 25 153 78c-7 27 -10 57 -10 90v5c-54 -2 -105 -10 -143 -20c-52 -14 -75 -42 -75 -78
c0 -43 24 -75 75 -75zM574 434c-84 0 -147 -74 -160 -167c42 3 96 9 142 18c67 12 95 45 95 83c0 39 -29 66 -77 66z" />
    <glyph glyph-name="cacute" unicode="&#x107;" horiz-adv-x="508" 
d="M468 127l-14 -98c-34 -25 -95 -46 -158 -46c-152 0 -247 96 -247 252c0 152 96 267 264 267c58 0 110 -14 148 -38l-15 -82c-35 28 -76 45 -131 45c-115 0 -181 -76 -181 -192c0 -100 58 -177 170 -177c67 0 115 22 161 69h3zM414 739l-134 -162h-43l80 162h97z" />
    <glyph glyph-name="ccircumflex" unicode="&#x109;" horiz-adv-x="508" 
d="M468 127l-14 -98c-34 -25 -95 -46 -158 -46c-152 0 -247 96 -247 252c0 152 96 267 264 267c58 0 110 -14 148 -38l-15 -82c-35 28 -76 45 -131 45c-115 0 -181 -76 -181 -192c0 -100 58 -177 170 -177c67 0 115 22 161 69h3zM373 577l-85 93l-83 -93h-48l105 162h54
l105 -162h-48z" />
    <glyph glyph-name="ccaron" unicode="&#x10d;" horiz-adv-x="508" 
d="M468 127l-14 -98c-34 -25 -95 -46 -158 -46c-152 0 -247 96 -247 252c0 152 96 267 264 267c58 0 110 -14 148 -38l-15 -82c-35 28 -76 45 -131 45c-115 0 -181 -76 -181 -192c0 -100 58 -177 170 -177c67 0 115 22 161 69h3zM157 739h48l84 -94l84 94h48l-105 -162h-54z
" />
    <glyph glyph-name="ccedilla" unicode="&#xe7;" horiz-adv-x="508" 
d="M468 127l-14 -98c-32 -24 -89 -44 -148 -46l-21 -41c5 1 14 2 22 2c52 0 85 -30 85 -75c0 -52 -47 -90 -112 -90c-33 0 -62 8 -81 23l5 53c16 -20 43 -28 71 -28c39 0 56 18 56 39c0 24 -20 39 -56 39c-18 0 -33 -2 -45 -5l-2 2l38 82c-134 12 -217 105 -217 251
c0 152 96 267 264 267c58 0 110 -14 148 -38l-15 -82c-35 28 -76 45 -131 45c-115 0 -181 -76 -181 -192c0 -100 58 -177 170 -177c67 0 115 22 161 69h3z" />
    <glyph glyph-name="cdotaccent" unicode="&#x10b;" horiz-adv-x="508" 
d="M468 127l-14 -98c-34 -25 -95 -46 -158 -46c-152 0 -247 96 -247 252c0 152 96 267 264 267c58 0 110 -14 148 -38l-15 -82c-35 28 -76 45 -131 45c-115 0 -181 -76 -181 -192c0 -100 58 -177 170 -177c67 0 115 22 161 69h3zM287 711c33 0 55 -22 55 -54
s-22 -54 -54 -54c-33 0 -54 21 -54 54c0 32 21 54 53 54z" />
    <glyph glyph-name="dcaron" unicode="&#x10f;" horiz-adv-x="594" 
d="M429 -15l1 48c-45 -34 -101 -50 -153 -50c-145 0 -228 111 -228 248c0 161 114 271 253 271c45 0 83 -9 122 -29v290l83 17v-772zM296 53c50 0 96 13 128 42v307c-28 21 -68 30 -111 30c-102 0 -179 -79 -179 -198c0 -106 59 -181 162 -181zM637 781c9 -19 13 -37 13 -61
c0 -35 -18 -76 -69 -133h-39c31 60 40 92 40 127c0 16 -5 35 -12 50z" />
    <glyph glyph-name="dcroat" unicode="&#x111;" horiz-adv-x="594" 
d="M429 -15l1 48c-45 -34 -101 -50 -153 -50c-145 0 -228 111 -228 248c0 161 114 271 253 271c45 0 83 -9 122 -29v131h-163v57h163v102l83 17v-119h56v-57h-56v-596zM296 53c50 0 96 13 128 42v307c-28 21 -68 30 -111 30c-102 0 -179 -79 -179 -198
c0 -106 59 -181 162 -181z" />
    <glyph glyph-name="eth" unicode="&#xf0;" horiz-adv-x="576" 
d="M125 588l-3 53l144 46c-33 26 -70 46 -108 60v2l83 34c39 -17 75 -40 109 -69l115 37l4 -52l-79 -25c83 -93 138 -228 138 -386c0 -188 -91 -305 -251 -305c-137 0 -228 111 -228 251c0 164 96 267 236 267c52 0 97 -15 135 -42c-24 75 -62 139 -110 189zM446 280
c0 33 -3 65 -7 95c-37 39 -84 60 -142 60c-99 0 -163 -82 -163 -201c0 -104 57 -182 145 -182c105 0 167 86 167 228z" />
    <glyph glyph-name="egrave" unicode="&#xe8;" horiz-adv-x="513" 
d="M297 217c-47 -13 -118 -27 -172 -34c15 -76 69 -129 158 -129c65 0 124 28 164 76h3l-5 -90c-40 -35 -103 -57 -166 -57c-157 0 -231 110 -231 232c0 145 108 289 265 289c96 0 150 -56 150 -128s-46 -128 -166 -159zM294 440c-97 0 -171 -106 -173 -207
c45 6 109 20 157 34c71 21 102 58 102 99c0 46 -32 74 -86 74zM292 577l-134 162h97l80 -162h-43z" />
    <glyph glyph-name="eacute" unicode="&#xe9;" horiz-adv-x="513" 
d="M297 217c-47 -13 -118 -27 -172 -34c15 -76 69 -129 158 -129c65 0 124 28 164 76h3l-5 -90c-40 -35 -103 -57 -166 -57c-157 0 -231 110 -231 232c0 145 108 289 265 289c96 0 150 -56 150 -128s-46 -128 -166 -159zM294 440c-97 0 -171 -106 -173 -207
c45 6 109 20 157 34c71 21 102 58 102 99c0 46 -32 74 -86 74zM409 739l-134 -162h-43l80 162h97z" />
    <glyph glyph-name="ecircumflex" unicode="&#xea;" horiz-adv-x="513" 
d="M297 217c-47 -13 -118 -27 -172 -34c15 -76 69 -129 158 -129c65 0 124 28 164 76h3l-5 -90c-40 -35 -103 -57 -166 -57c-157 0 -231 110 -231 232c0 145 108 289 265 289c96 0 150 -56 150 -128s-46 -128 -166 -159zM294 440c-97 0 -171 -106 -173 -207
c45 6 109 20 157 34c71 21 102 58 102 99c0 46 -32 74 -86 74zM368 577l-85 93l-83 -93h-48l105 162h54l105 -162h-48z" />
    <glyph glyph-name="edieresis" unicode="&#xeb;" horiz-adv-x="513" 
d="M297 217c-47 -13 -118 -27 -172 -34c15 -76 69 -129 158 -129c65 0 124 28 164 76h3l-5 -90c-40 -35 -103 -57 -166 -57c-157 0 -231 110 -231 232c0 145 108 289 265 289c96 0 150 -56 150 -128s-46 -128 -166 -159zM294 440c-97 0 -171 -106 -173 -207
c45 6 109 20 157 34c71 21 102 58 102 99c0 46 -32 74 -86 74zM192 704c29 0 50 -20 50 -50c0 -29 -20 -49 -49 -49c-31 0 -50 19 -50 49s19 50 49 50zM374 704c30 0 50 -20 50 -50c0 -29 -20 -49 -49 -49c-31 0 -50 19 -50 49s20 50 49 50z" />
    <glyph glyph-name="emacron" unicode="&#x113;" horiz-adv-x="513" 
d="M297 217c-47 -13 -118 -27 -172 -34c15 -76 69 -129 158 -129c65 0 124 28 164 76h3l-5 -90c-40 -35 -103 -57 -166 -57c-157 0 -231 110 -231 232c0 145 108 289 265 289c96 0 150 -56 150 -128s-46 -128 -166 -159zM294 440c-97 0 -171 -106 -173 -207
c45 6 109 20 157 34c71 21 102 58 102 99c0 46 -32 74 -86 74zM417 686v-64h-267v64h267z" />
    <glyph glyph-name="ebreve" unicode="&#x115;" horiz-adv-x="513" 
d="M297 217c-47 -13 -118 -27 -172 -34c15 -76 69 -129 158 -129c65 0 124 28 164 76h3l-5 -90c-40 -35 -103 -57 -166 -57c-157 0 -231 110 -231 232c0 145 108 289 265 289c96 0 150 -56 150 -128s-46 -128 -166 -159zM294 440c-97 0 -171 -106 -173 -207
c45 6 109 20 157 34c71 21 102 58 102 99c0 46 -32 74 -86 74zM284 646c57 0 80 33 80 86h43c0 -80 -32 -148 -123 -148c-94 0 -124 68 -124 148h43c0 -53 23 -86 81 -86z" />
    <glyph glyph-name="edotaccent" unicode="&#x117;" horiz-adv-x="513" 
d="M297 217c-47 -13 -118 -27 -172 -34c15 -76 69 -129 158 -129c65 0 124 28 164 76h3l-5 -90c-40 -35 -103 -57 -166 -57c-157 0 -231 110 -231 232c0 145 108 289 265 289c96 0 150 -56 150 -128s-46 -128 -166 -159zM294 440c-97 0 -171 -106 -173 -207
c45 6 109 20 157 34c71 21 102 58 102 99c0 46 -32 74 -86 74zM282 711c33 0 55 -22 55 -54s-22 -54 -54 -54c-33 0 -54 21 -54 54c0 32 21 54 53 54z" />
    <glyph glyph-name="ecaron" unicode="&#x11b;" horiz-adv-x="513" 
d="M297 217c-47 -13 -118 -27 -172 -34c15 -76 69 -129 158 -129c65 0 124 28 164 76h3l-5 -90c-40 -35 -103 -57 -166 -57c-157 0 -231 110 -231 232c0 145 108 289 265 289c96 0 150 -56 150 -128s-46 -128 -166 -159zM294 440c-97 0 -171 -106 -173 -207
c45 6 109 20 157 34c71 21 102 58 102 99c0 46 -32 74 -86 74zM152 739h48l84 -94l84 94h48l-105 -162h-54z" />
    <glyph glyph-name="eogonek" unicode="&#x119;" horiz-adv-x="513" 
d="M256 -154c0 49 24 88 89 147c-21 -6 -44 -10 -66 -10c-157 0 -231 110 -231 232c0 145 108 289 265 289c96 0 150 -56 150 -127c0 -73 -46 -129 -166 -160c-47 -13 -118 -27 -172 -34c15 -76 69 -129 158 -129c64 0 125 29 164 76h3l-5 -90c-98 -103 -116 -133 -116 -179
c0 -21 13 -37 37 -37c26 0 47 8 66 28h3l-6 -70c-21 -13 -45 -19 -75 -19c-60 0 -98 30 -98 83zM294 440c-97 0 -171 -106 -173 -207c45 6 109 20 157 34c71 21 102 57 102 99c0 46 -32 74 -86 74z" />
    <glyph glyph-name="gcircumflex" unicode="&#x11d;" horiz-adv-x="534" 
d="M254 497c44 0 83 -11 114 -30c34 45 71 67 126 67v-71c-31 0 -58 -10 -82 -31c25 -29 40 -65 40 -101c0 -76 -53 -128 -144 -151c-44 -11 -88 -16 -118 -23c-31 -8 -47 -16 -47 -32c0 -17 22 -26 59 -34c43 -9 129 -19 170 -27c80 -16 113 -55 113 -119
c0 -103 -112 -182 -249 -182c-121 0 -190 70 -190 146c0 51 23 94 90 128c-56 18 -80 46 -80 74c0 36 44 64 107 85c-59 28 -99 74 -99 133c0 92 81 168 190 168zM338 0c-34 7 -89 13 -148 24c-49 -23 -80 -54 -80 -99c0 -51 48 -95 131 -95c97 0 163 51 163 106
c0 29 -18 54 -66 64zM138 326c0 -43 29 -79 75 -100c6 -3 16 -5 22 -5c10 0 19 1 36 4c60 14 102 49 102 102c0 55 -46 104 -121 104c-65 0 -114 -43 -114 -105zM347 577l-85 93l-83 -93h-48l105 162h54l105 -162h-48z" />
    <glyph glyph-name="gbreve" unicode="&#x11f;" horiz-adv-x="534" 
d="M254 497c44 0 83 -11 114 -30c34 45 71 67 126 67v-71c-31 0 -58 -10 -82 -31c25 -29 40 -65 40 -101c0 -76 -53 -128 -144 -151c-44 -11 -88 -16 -118 -23c-31 -8 -47 -16 -47 -32c0 -17 22 -26 59 -34c43 -9 129 -19 170 -27c80 -16 113 -55 113 -119
c0 -103 -112 -182 -249 -182c-121 0 -190 70 -190 146c0 51 23 94 90 128c-56 18 -80 46 -80 74c0 36 44 64 107 85c-59 28 -99 74 -99 133c0 92 81 168 190 168zM338 0c-34 7 -89 13 -148 24c-49 -23 -80 -54 -80 -99c0 -51 48 -95 131 -95c97 0 163 51 163 106
c0 29 -18 54 -66 64zM138 326c0 -43 29 -79 75 -100c6 -3 16 -5 22 -5c10 0 19 1 36 4c60 14 102 49 102 102c0 55 -46 104 -121 104c-65 0 -114 -43 -114 -105zM264 646c57 0 80 33 80 86h43c0 -80 -32 -148 -123 -148c-94 0 -124 68 -124 148h43c0 -53 23 -86 81 -86z" />
    <glyph glyph-name="gdotaccent" unicode="&#x121;" horiz-adv-x="534" 
d="M254 497c44 0 83 -11 114 -30c34 45 71 67 126 67v-71c-31 0 -58 -10 -82 -31c25 -29 40 -65 40 -101c0 -76 -53 -128 -144 -151c-44 -11 -88 -16 -118 -23c-31 -8 -47 -16 -47 -32c0 -17 22 -26 59 -34c43 -9 129 -19 170 -27c80 -16 113 -55 113 -119
c0 -103 -112 -182 -249 -182c-121 0 -190 70 -190 146c0 51 23 94 90 128c-56 18 -80 46 -80 74c0 36 44 64 107 85c-59 28 -99 74 -99 133c0 92 81 168 190 168zM338 0c-34 7 -89 13 -148 24c-49 -23 -80 -54 -80 -99c0 -51 48 -95 131 -95c97 0 163 51 163 106
c0 29 -18 54 -66 64zM138 326c0 -43 29 -79 75 -100c6 -3 16 -5 22 -5c10 0 19 1 36 4c60 14 102 49 102 102c0 55 -46 104 -121 104c-65 0 -114 -43 -114 -105zM262 711c33 0 55 -22 55 -54s-22 -54 -54 -54c-33 0 -54 21 -54 54c0 32 21 54 53 54z" />
    <glyph glyph-name="gcommaaccent" unicode="&#x123;" horiz-adv-x="534" 
d="M254 497c44 0 83 -11 114 -30c34 45 71 67 126 67v-71c-31 0 -58 -10 -82 -31c25 -29 40 -65 40 -101c0 -76 -53 -128 -144 -151c-44 -11 -88 -16 -118 -23c-31 -8 -47 -16 -47 -32c0 -17 22 -26 59 -34c43 -9 129 -19 170 -27c80 -16 113 -55 113 -119
c0 -103 -112 -182 -249 -182c-121 0 -190 70 -190 146c0 51 23 94 90 128c-56 18 -80 46 -80 74c0 36 44 64 107 85c-59 28 -99 74 -99 133c0 92 81 168 190 168zM338 0c-34 7 -89 13 -148 24c-49 -23 -80 -54 -80 -99c0 -51 48 -95 131 -95c97 0 163 51 163 106
c0 29 -18 54 -66 64zM138 326c0 -43 29 -79 75 -100c6 -3 16 -5 22 -5c10 0 19 1 36 4c60 14 102 49 102 102c0 55 -46 104 -121 104c-65 0 -114 -43 -114 -105zM212 572c-10 17 -14 33 -14 54c0 31 17 66 83 121h50c-50 -55 -63 -84 -63 -117c0 -13 6 -29 14 -41z" />
    <glyph glyph-name="hcircumflex" unicode="&#x125;" horiz-adv-x="582" 
d="M87 0v763l82 17v-379c55 67 114 96 176 96c105 0 158 -55 158 -165v-332h-82v305c0 81 -33 116 -101 116c-47 0 -94 -25 -122 -63c-23 -31 -29 -56 -29 -91v-267h-82zM361 824l-90 76l-87 -76h-52l102 131h77l101 -131h-51z" />
    <glyph glyph-name="hbar" unicode="&#x127;" horiz-adv-x="582" 
d="M87 0v604h-57v57h57v102l82 17v-119h164v-57h-164v-203c55 67 114 96 176 96c105 0 158 -55 158 -165v-332h-82v305c0 81 -33 116 -101 116c-47 0 -94 -25 -122 -63c-23 -31 -29 -56 -29 -91v-267h-82z" />
    <glyph glyph-name="dotlessi" unicode="&#x131;" horiz-adv-x="256" 
d="M87 478l82 16v-494h-82v478z" />
    <glyph glyph-name="igrave" unicode="&#xec;" horiz-adv-x="256" 
d="M87 478l82 16v-494h-82v478zM136 577l-134 162h97l80 -162h-43z" />
    <glyph glyph-name="iacute" unicode="&#xed;" horiz-adv-x="256" 
d="M87 478l82 16v-494h-82v478zM253 739l-134 -162h-43l80 162h97z" />
    <glyph glyph-name="icircumflex" unicode="&#xee;" horiz-adv-x="256" 
d="M87 478l82 16v-494h-82v478zM212 577l-85 93l-83 -93h-48l105 162h54l105 -162h-48z" />
    <glyph glyph-name="itilde" unicode="&#x129;" horiz-adv-x="256" 
d="M79 633c-28 0 -48 -23 -51 -53l-35 7c7 74 44 117 90 117c36 0 75 -34 102 -34c29 0 47 23 51 54l35 -8c-8 -74 -44 -117 -90 -117c-36 0 -75 34 -102 34zM87 478l82 16v-494h-82v478z" />
    <glyph glyph-name="idieresis" unicode="&#xef;" horiz-adv-x="256" 
d="M44 698c30 0 50 -20 50 -50c0 -29 -20 -49 -49 -49c-30 0 -49 19 -49 49s19 50 48 50zM207 698c29 0 49 -20 49 -50c0 -29 -19 -49 -48 -49c-31 0 -50 19 -50 49s19 50 49 50zM87 478l82 16v-494h-82v478z" />
    <glyph glyph-name="imacron" unicode="&#x12b;" horiz-adv-x="256" 
d="M87 478l82 16v-494h-82v478zM261 686v-64h-267v64h267z" />
    <glyph glyph-name="ibreve" unicode="&#x12d;" horiz-adv-x="256" 
d="M87 478l82 16v-494h-82v478zM128 646c57 0 80 33 80 86h43c0 -80 -32 -148 -123 -148c-94 0 -124 68 -124 148h43c0 -53 23 -86 81 -86z" />
    <glyph glyph-name="iogonek" unicode="&#x12f;" horiz-adv-x="256" 
d="M87 478l82 16v-494c-67 -55 -82 -94 -82 -139c0 -21 14 -37 37 -37c25 0 48 8 66 28h3l-6 -70c-20 -13 -45 -19 -75 -19c-60 0 -97 31 -97 87c0 46 17 82 72 150v478zM128 722c32 0 54 -22 54 -54s-22 -54 -53 -54c-33 0 -54 21 -54 54c0 32 21 54 53 54z" />
    <glyph glyph-name="ij" unicode="&#x133;" horiz-adv-x="467" 
d="M87 478l82 16v-494h-82v478zM128 722c32 0 54 -22 54 -54s-22 -54 -53 -54c-33 0 -54 21 -54 54c0 32 21 54 53 54zM298 478l82 16v-512c0 -109 -21 -154 -51 -187l-119 -32l-6 14c68 43 94 98 94 207v494zM338 722c32 0 54 -22 54 -54s-21 -54 -53 -54
c-33 0 -54 21 -54 54c0 32 21 54 53 54z" />
    <glyph glyph-name="dotlessj" unicode="&#x237;" horiz-adv-x="256" 
d="M87 478l82 16v-512c0 -109 -21 -154 -51 -187l-119 -32l-6 14c68 43 94 98 94 207v494z" />
    <glyph glyph-name="jcircumflex" unicode="&#x135;" horiz-adv-x="249" 
d="M87 478l82 16v-512c0 -109 -21 -154 -51 -187l-119 -32l-6 14c68 43 94 98 94 207v494zM212 577l-85 93l-83 -93h-48l105 162h54l105 -162h-48z" />
    <glyph glyph-name="kcommaaccent" unicode="&#x137;" horiz-adv-x="536" 
d="M169 780v-509l215 214h113l-241 -219l305 -266h-123l-269 255v-255h-82v763zM321 -63c9 -16 13 -34 13 -54c0 -34 -17 -67 -83 -120h-49c48 54 62 85 62 117c0 13 -6 28 -13 40z" />
    <glyph glyph-name="kgreenlandic" unicode="&#x138;" horiz-adv-x="536" 
d="M169 485v-214l215 214h113l-241 -219l305 -266h-123l-269 255v-255h-82v485h82z" />
    <glyph glyph-name="lacute" unicode="&#x13a;" horiz-adv-x="256" 
d="M169 780v-780h-82v763zM251 955l-130 -131h-51l78 131h103z" />
    <glyph glyph-name="lcaron" unicode="&#x13e;" horiz-adv-x="256" 
d="M169 780v-780h-82v763zM299 781c9 -19 13 -37 13 -61c0 -35 -18 -76 -69 -133h-39c31 60 40 92 40 127c0 16 -5 35 -12 50z" />
    <glyph glyph-name="lcommaaccent" unicode="&#x13c;" horiz-adv-x="256" 
d="M169 780v-780h-82v763zM162 -63c9 -16 13 -34 13 -54c0 -34 -17 -67 -83 -120h-49c48 54 62 85 62 117c0 13 -6 28 -13 40z" />
    <glyph glyph-name="ldot" unicode="&#x140;" horiz-adv-x="361" 
d="M169 780v-780h-82v763zM306 442c33 0 55 -22 55 -54s-22 -54 -54 -54c-33 0 -54 21 -54 54c0 32 21 54 53 54z" />
    <glyph glyph-name="lslash" unicode="&#x142;" horiz-adv-x="279" 
d="M181 780v-319l68 45v-75l-68 -44v-387h-82v334l-69 -44v72l69 45v356z" />
    <glyph glyph-name="nacute" unicode="&#x144;" horiz-adv-x="582" 
d="M87 0v485h82v-84c55 67 114 96 176 96c105 0 158 -55 158 -165v-332h-82v305c0 81 -33 116 -101 116c-47 0 -94 -25 -122 -63c-23 -31 -29 -56 -29 -91v-267h-82zM418 739l-134 -162h-43l80 162h97z" />
    <glyph glyph-name="ncaron" unicode="&#x148;" horiz-adv-x="582" 
d="M87 0v485h82v-84c55 67 114 96 176 96c105 0 158 -55 158 -165v-332h-82v305c0 81 -33 116 -101 116c-47 0 -94 -25 -122 -63c-23 -31 -29 -56 -29 -91v-267h-82zM161 739h48l84 -94l84 94h48l-105 -162h-54z" />
    <glyph glyph-name="ntilde" unicode="&#xf1;" horiz-adv-x="582" 
d="M87 0v485h82v-84c55 67 114 96 176 96c105 0 158 -55 158 -165v-332h-82v305c0 81 -33 116 -101 116c-47 0 -94 -25 -122 -63c-23 -31 -29 -56 -29 -91v-267h-82zM236 639c-28 0 -48 -23 -51 -53l-35 7c7 74 44 117 90 117c43 0 89 -34 122 -34c29 0 47 23 51 54l35 -8
c-8 -74 -44 -117 -90 -117c-43 0 -89 34 -122 34z" />
    <glyph glyph-name="ncommaaccent" unicode="&#x146;" horiz-adv-x="582" 
d="M87 0v485h82v-84c55 67 114 96 176 96c105 0 158 -55 158 -165v-332h-82v305c0 81 -33 116 -101 116c-47 0 -94 -25 -122 -63c-23 -31 -29 -56 -29 -91v-267h-82zM329 -63c9 -16 13 -34 13 -54c0 -34 -17 -67 -83 -120h-49c48 54 62 85 62 117c0 13 -6 28 -13 40z" />
    <glyph glyph-name="napostrophe" unicode="&#x149;" horiz-adv-x="582" 
d="M87 0v485h82v-84c55 67 114 96 176 96c105 0 158 -55 158 -165v-332h-82v305c0 81 -33 116 -101 116c-47 0 -94 -25 -122 -63c-23 -31 -29 -56 -29 -91v-267h-82zM120 781c9 -19 13 -37 13 -61c0 -35 -18 -76 -69 -133h-39c31 60 40 92 40 127c0 16 -5 35 -12 50z" />
    <glyph glyph-name="eng" unicode="&#x14b;" horiz-adv-x="582" 
d="M87 0v485h82v-84c55 67 114 96 176 96c99 0 158 -55 158 -165v-393c0 -110 -54 -176 -150 -176c-25 0 -45 5 -62 14l-10 75c18 -15 34 -21 63 -21c48 0 77 38 77 109v365c0 81 -33 116 -101 116c-50 0 -94 -27 -122 -64c-21 -26 -29 -46 -29 -90v-267h-82z" />
    <glyph glyph-name="ograve" unicode="&#xf2;" horiz-adv-x="579" 
d="M290 53c95 0 156 70 156 192c0 116 -61 189 -156 189c-98 0 -156 -77 -156 -189s56 -192 156 -192zM290 -17c-140 0 -241 98 -241 262c0 162 102 258 241 258c132 0 241 -87 241 -258c0 -177 -113 -262 -241 -262zM299 577l-134 162h97l80 -162h-43z" />
    <glyph glyph-name="oacute" unicode="&#xf3;" horiz-adv-x="579" 
d="M290 53c95 0 156 70 156 192c0 116 -61 189 -156 189c-98 0 -156 -77 -156 -189s56 -192 156 -192zM290 -17c-140 0 -241 98 -241 262c0 162 102 258 241 258c132 0 241 -87 241 -258c0 -177 -113 -262 -241 -262zM417 739l-134 -162h-43l80 162h97z" />
    <glyph glyph-name="ocircumflex" unicode="&#xf4;" horiz-adv-x="579" 
d="M290 53c95 0 156 70 156 192c0 116 -61 189 -156 189c-98 0 -156 -77 -156 -189s56 -192 156 -192zM290 -17c-140 0 -241 98 -241 262c0 162 102 258 241 258c132 0 241 -87 241 -258c0 -177 -113 -262 -241 -262zM375 577l-85 93l-83 -93h-48l105 162h54l105 -162h-48z
" />
    <glyph glyph-name="otilde" unicode="&#xf5;" horiz-adv-x="579" 
d="M290 53c95 0 156 70 156 192c0 116 -61 189 -156 189c-98 0 -156 -77 -156 -189s56 -192 156 -192zM290 -17c-140 0 -241 98 -241 262c0 162 102 258 241 258c132 0 241 -87 241 -258c0 -177 -113 -262 -241 -262zM234 639c-28 0 -48 -23 -51 -53l-35 7
c7 74 44 117 90 117c43 0 89 -34 122 -34c29 0 47 23 51 54l35 -8c-8 -74 -44 -117 -90 -117c-43 0 -89 34 -122 34z" />
    <glyph glyph-name="odieresis" unicode="&#xf6;" horiz-adv-x="579" 
d="M290 53c95 0 156 70 156 192c0 116 -61 189 -156 189c-98 0 -156 -77 -156 -189s56 -192 156 -192zM290 -17c-140 0 -241 98 -241 262c0 162 102 258 241 258c132 0 241 -87 241 -258c0 -177 -113 -262 -241 -262zM200 704c29 0 50 -20 50 -50c0 -29 -20 -49 -49 -49
c-31 0 -50 19 -50 49s19 50 49 50zM382 704c30 0 50 -20 50 -50c0 -29 -20 -49 -49 -49c-31 0 -50 19 -50 49s20 50 49 50z" />
    <glyph glyph-name="omacron" unicode="&#x14d;" horiz-adv-x="579" 
d="M290 53c95 0 156 70 156 192c0 116 -61 189 -156 189c-98 0 -156 -77 -156 -189s56 -192 156 -192zM290 -17c-140 0 -241 98 -241 262c0 162 102 258 241 258c132 0 241 -87 241 -258c0 -177 -113 -262 -241 -262zM424 686v-64h-267v64h267z" />
    <glyph glyph-name="obreve" unicode="&#x14f;" horiz-adv-x="579" 
d="M290 53c95 0 156 70 156 192c0 116 -61 189 -156 189c-98 0 -156 -77 -156 -189s56 -192 156 -192zM290 -17c-140 0 -241 98 -241 262c0 162 102 258 241 258c132 0 241 -87 241 -258c0 -177 -113 -262 -241 -262zM291 646c57 0 80 33 80 86h43c0 -80 -32 -148 -123 -148
c-94 0 -124 68 -124 148h43c0 -53 23 -86 81 -86z" />
    <glyph glyph-name="ohungarumlaut" unicode="&#x151;" horiz-adv-x="579" 
d="M290 53c95 0 156 70 156 192c0 116 -61 189 -156 189c-98 0 -156 -77 -156 -189s56 -192 156 -192zM290 -17c-140 0 -241 98 -241 262c0 162 102 258 241 258c132 0 241 -87 241 -258c0 -177 -113 -262 -241 -262zM258 739h92l-116 -162h-41zM387 739h92l-116 -162h-41z
" />
    <glyph glyph-name="oslash" unicode="&#xf8;" horiz-adv-x="579" 
d="M290 -17c-43 0 -83 10 -117 27l-24 -37l-51 15l34 50c-52 45 -83 116 -83 207c0 162 102 258 241 258c43 0 84 -9 119 -28l24 38l52 -14l-34 -52c49 -43 80 -111 80 -202c0 -177 -113 -262 -241 -262zM134 245c0 -58 15 -107 43 -141l192 309c-22 14 -49 21 -79 21
c-98 0 -156 -77 -156 -189zM290 53c95 0 156 70 156 192c0 56 -15 103 -41 135l-191 -308c21 -12 47 -19 76 -19z" />
    <glyph glyph-name="oe" unicode="&#x153;" horiz-adv-x="869" 
d="M271 503c86 0 155 -47 189 -129c44 75 118 130 209 130c97 0 150 -56 150 -128s-44 -129 -160 -159c-47 -13 -118 -27 -171 -34c14 -76 65 -129 151 -129c64 0 125 29 164 76h3l-5 -90c-40 -34 -103 -57 -166 -57c-93 0 -154 43 -188 106c-38 -71 -104 -106 -176 -106
c-128 0 -222 99 -222 265c0 157 97 255 222 255zM274 54c86 0 141 72 141 195c0 102 -56 184 -141 184c-80 0 -140 -74 -140 -185c0 -112 50 -194 140 -194zM650 440c-93 0 -164 -106 -166 -207c44 6 109 19 157 34c66 20 95 58 95 99c0 46 -33 74 -86 74z" />
    <glyph glyph-name="racute" unicode="&#x155;" horiz-adv-x="373" 
d="M359 491v-82h-18c-51 0 -98 -16 -134 -43c-30 -23 -38 -46 -38 -89v-277h-82v485h82v-86c44 60 98 93 169 93c7 0 13 0 21 -1zM344 739l-134 -162h-43l80 162h97z" />
    <glyph glyph-name="rcaron" unicode="&#x159;" horiz-adv-x="373" 
d="M359 491v-82h-18c-51 0 -98 -16 -134 -43c-30 -23 -38 -46 -38 -89v-277h-82v485h82v-86c44 60 98 93 169 93c7 0 13 0 21 -1zM87 739h48l84 -94l84 94h48l-105 -162h-54z" />
    <glyph glyph-name="rcommaaccent" unicode="&#x157;" horiz-adv-x="373" 
d="M359 491v-82h-18c-51 0 -98 -16 -134 -43c-30 -23 -38 -46 -38 -89v-277h-82v485h82v-86c44 60 98 93 169 93c7 0 13 0 21 -1zM163 -63c9 -16 13 -34 13 -54c0 -34 -17 -67 -83 -120h-49c48 54 62 85 62 117c0 13 -6 28 -13 40z" />
    <glyph glyph-name="sacute" unicode="&#x15b;" horiz-adv-x="440" 
d="M50 31l6 92c35 -39 94 -69 159 -69c63 0 94 25 94 68c0 23 -12 46 -40 61c-39 21 -90 36 -130 55c-64 31 -85 70 -85 130c0 76 61 134 158 134c63 0 116 -16 160 -44l-23 -83c-36 38 -93 56 -134 56c-55 0 -78 -27 -78 -59s14 -50 46 -65c31 -15 85 -32 119 -49
c68 -34 90 -75 90 -134c0 -85 -66 -141 -179 -141c-72 0 -125 20 -163 48zM364 739l-134 -162h-43l80 162h97z" />
    <glyph glyph-name="scaron" unicode="&#x161;" horiz-adv-x="440" 
d="M50 31l6 92c35 -39 94 -69 159 -69c63 0 94 25 94 68c0 23 -12 46 -40 61c-39 21 -90 36 -130 55c-64 31 -85 70 -85 130c0 76 61 134 158 134c63 0 116 -16 160 -44l-23 -83c-36 38 -93 56 -134 56c-55 0 -78 -27 -78 -59s14 -50 46 -65c31 -15 85 -32 119 -49
c68 -34 90 -75 90 -134c0 -85 -66 -141 -179 -141c-72 0 -125 20 -163 48zM107 739h48l84 -94l84 94h48l-105 -162h-54z" />
    <glyph glyph-name="scircumflex" unicode="&#x15d;" horiz-adv-x="440" 
d="M50 31l6 92c35 -39 94 -69 159 -69c63 0 94 25 94 68c0 23 -12 46 -40 61c-39 21 -90 36 -130 55c-64 31 -85 70 -85 130c0 76 61 134 158 134c63 0 116 -16 160 -44l-23 -83c-36 38 -93 56 -134 56c-55 0 -78 -27 -78 -59s14 -50 46 -65c31 -15 85 -32 119 -49
c68 -34 90 -75 90 -134c0 -85 -66 -141 -179 -141c-72 0 -125 20 -163 48zM323 577l-85 93l-83 -93h-48l105 162h54l105 -162h-48z" />
    <glyph glyph-name="scedilla" unicode="&#x15f;" horiz-adv-x="440" 
d="M50 31l6 92c35 -39 94 -69 159 -69c63 0 94 25 94 68c0 23 -12 46 -40 61c-39 21 -90 36 -130 55c-64 31 -85 70 -85 130c0 76 61 134 158 134c63 0 116 -16 160 -44l-23 -83c-36 38 -93 56 -134 56c-55 0 -78 -27 -78 -59s14 -50 46 -65c31 -15 85 -32 119 -49
c68 -34 90 -75 90 -134c0 -77 -54 -130 -147 -139l-22 -43c5 1 14 2 22 2c52 0 85 -30 85 -75c0 -52 -47 -90 -112 -90c-33 0 -62 8 -81 23l5 53c16 -20 43 -28 71 -28c39 0 56 18 56 39c0 24 -20 39 -56 39c-18 0 -33 -2 -45 -5l-2 2l38 81c-68 2 -118 21 -154 48z" />
    <glyph glyph-name="uni0219" unicode="&#x219;" horiz-adv-x="440" 
d="M50 31l6 92c35 -39 94 -69 159 -69c63 0 94 25 94 68c0 23 -12 46 -40 61c-39 21 -90 36 -130 55c-64 31 -85 70 -85 130c0 76 61 134 158 134c63 0 116 -16 160 -44l-23 -83c-36 38 -93 56 -134 56c-55 0 -78 -27 -78 -59s14 -50 46 -65c31 -15 85 -32 119 -49
c68 -34 90 -75 90 -134c0 -85 -66 -141 -179 -141c-72 0 -125 20 -163 48zM268 -63c9 -16 13 -34 13 -54c0 -34 -17 -67 -83 -120h-49c48 54 62 85 62 117c0 13 -6 28 -13 40z" />
    <glyph glyph-name="tcaron" unicode="&#x165;" horiz-adv-x="355" 
d="M15 485h94v151l82 17v-168h146v-69h-146v-252c0 -91 13 -118 81 -155v-7l-94 -11c-48 23 -69 60 -69 165v260h-94v69zM350 781c9 -19 13 -37 13 -61c0 -35 -18 -76 -69 -133h-39c31 60 40 92 40 127c0 16 -5 35 -12 50z" />
    <glyph glyph-name="uni021B" unicode="&#x21b;" horiz-adv-x="355" 
d="M15 485h94v151l82 17v-168h146v-69h-146v-252c0 -91 13 -118 81 -155v-7l-94 -11c-48 23 -69 60 -69 165v260h-94v69zM222 -63c9 -16 13 -34 13 -54c0 -34 -17 -67 -83 -120h-49c48 54 62 85 62 117c0 13 -6 28 -13 40z" />
    <glyph glyph-name="tbar" unicode="&#x167;" horiz-adv-x="355" 
d="M15 485h94v151l82 17v-168h146v-69h-146v-140h134v-56h-134v-56c0 -91 13 -118 81 -155v-7l-94 -11c-48 23 -69 60 -69 165v64h-80v56h80v140h-94v69z" />
    <glyph glyph-name="ugrave" unicode="&#xf9;" horiz-adv-x="579" 
d="M79 485h82v-311c0 -77 38 -108 102 -108c52 0 100 32 132 82c10 15 15 32 15 54v283h82v-477l-82 -20v97c-45 -59 -105 -96 -174 -96c-104 0 -157 59 -157 169v327zM294 577l-134 162h97l80 -162h-43z" />
    <glyph glyph-name="uacute" unicode="&#xfa;" horiz-adv-x="579" 
d="M79 485h82v-311c0 -77 38 -108 102 -108c52 0 100 32 132 82c10 15 15 32 15 54v283h82v-477l-82 -20v97c-45 -59 -105 -96 -174 -96c-104 0 -157 59 -157 169v327zM411 739l-134 -162h-43l80 162h97z" />
    <glyph glyph-name="ucircumflex" unicode="&#xfb;" horiz-adv-x="579" 
d="M79 485h82v-311c0 -77 38 -108 102 -108c52 0 100 32 132 82c10 15 15 32 15 54v283h82v-477l-82 -20v97c-45 -59 -105 -96 -174 -96c-104 0 -157 59 -157 169v327zM370 577l-85 93l-83 -93h-48l105 162h54l105 -162h-48z" />
    <glyph glyph-name="utilde" unicode="&#x169;" horiz-adv-x="579" 
d="M79 485h82v-311c0 -77 38 -108 102 -108c52 0 100 32 132 82c10 15 15 32 15 54v283h82v-477l-82 -20v97c-45 -59 -105 -96 -174 -96c-104 0 -157 59 -157 169v327zM229 639c-28 0 -48 -23 -51 -53l-35 7c7 74 44 117 90 117c43 0 89 -34 122 -34c29 0 47 23 51 54l35 -8
c-8 -74 -44 -117 -90 -117c-43 0 -89 34 -122 34z" />
    <glyph glyph-name="udieresis" unicode="&#xfc;" horiz-adv-x="579" 
d="M79 485h82v-311c0 -77 38 -108 102 -108c52 0 100 32 132 82c10 15 15 32 15 54v283h82v-477l-82 -20v97c-45 -59 -105 -96 -174 -96c-104 0 -157 59 -157 169v327zM194 704c29 0 50 -20 50 -50c0 -29 -20 -49 -49 -49c-31 0 -50 19 -50 49s19 50 49 50zM376 704
c30 0 50 -20 50 -50c0 -29 -20 -49 -49 -49c-31 0 -50 19 -50 49s20 50 49 50z" />
    <glyph glyph-name="umacron" unicode="&#x16b;" horiz-adv-x="579" 
d="M79 485h82v-311c0 -77 38 -108 102 -108c52 0 100 32 132 82c10 15 15 32 15 54v283h82v-477l-82 -20v97c-45 -59 -105 -96 -174 -96c-104 0 -157 59 -157 169v327zM419 686v-64h-267v64h267z" />
    <glyph glyph-name="ubreve" unicode="&#x16d;" horiz-adv-x="579" 
d="M79 485h82v-311c0 -77 38 -108 102 -108c52 0 100 32 132 82c10 15 15 32 15 54v283h82v-477l-82 -20v97c-45 -59 -105 -96 -174 -96c-104 0 -157 59 -157 169v327zM286 646c57 0 80 33 80 86h43c0 -80 -32 -148 -123 -148c-94 0 -124 68 -124 148h43
c0 -53 23 -86 81 -86z" />
    <glyph glyph-name="uring" unicode="&#x16f;" horiz-adv-x="579" 
d="M79 485h82v-311c0 -77 38 -108 102 -108c52 0 100 32 132 82c10 15 15 32 15 54v283h82v-477l-82 -20v97c-45 -59 -105 -96 -174 -96c-104 0 -157 59 -157 169v327zM186 663c0 55 45 100 99 100c55 0 100 -45 100 -100c0 -54 -45 -99 -100 -99c-54 0 -99 45 -99 99z
M229 663c0 -31 25 -56 56 -56c32 0 57 25 57 56c0 32 -25 57 -57 57c-31 0 -56 -25 -56 -57z" />
    <glyph glyph-name="uhungarumlaut" unicode="&#x171;" horiz-adv-x="579" 
d="M79 485h82v-311c0 -77 38 -108 102 -108c52 0 100 32 132 82c10 15 15 32 15 54v283h82v-477l-82 -20v97c-45 -59 -105 -96 -174 -96c-104 0 -157 59 -157 169v327zM252 739h92l-116 -162h-41zM381 739h92l-116 -162h-41z" />
    <glyph glyph-name="uogonek" unicode="&#x173;" horiz-adv-x="579" 
d="M410 0v85c-45 -59 -105 -96 -174 -96c-104 0 -157 59 -157 169v327h82v-311c0 -77 38 -108 102 -108c52 0 100 32 132 82c10 15 15 32 15 54v283h82v-485c-90 -63 -108 -99 -108 -139c0 -21 13 -37 39 -37c22 0 45 8 64 29h3l-6 -71c-21 -13 -46 -19 -76 -19
c-59 0 -97 31 -97 87c0 46 24 82 99 150z" />
    <glyph glyph-name="wgrave" unicode="&#x1e81;" horiz-adv-x="774" 
d="M350 485h75l103 -391l150 391h87l-204 -485h-76l-101 357l-124 -357h-77l-174 485h87l126 -390zM395 577l-134 162h97l80 -162h-43z" />
    <glyph glyph-name="wacute" unicode="&#x1e83;" horiz-adv-x="774" 
d="M350 485h75l103 -391l150 391h87l-204 -485h-76l-101 357l-124 -357h-77l-174 485h87l126 -390zM513 739l-134 -162h-43l80 162h97z" />
    <glyph glyph-name="wcircumflex" unicode="&#x175;" horiz-adv-x="774" 
d="M350 485h75l103 -391l150 391h87l-204 -485h-76l-101 357l-124 -357h-77l-174 485h87l126 -390zM471 577l-85 93l-83 -93h-48l105 162h54l105 -162h-48z" />
    <glyph glyph-name="wdieresis" unicode="&#x1e85;" horiz-adv-x="774" 
d="M350 485h75l103 -391l150 391h87l-204 -485h-76l-101 357l-124 -357h-77l-174 485h87l126 -390zM296 704c29 0 50 -20 50 -50c0 -29 -20 -49 -49 -49c-31 0 -50 19 -50 49s19 50 49 50zM478 704c30 0 50 -20 50 -50c0 -29 -20 -49 -49 -49c-31 0 -50 19 -50 49
s20 50 49 50z" />
    <glyph glyph-name="ygrave" unicode="&#x1ef3;" horiz-adv-x="499" 
d="M61 -234c54 62 110 153 147 240l-199 479h90l150 -383l155 383h86l-212 -498c-47 -111 -81 -174 -117 -224h-100v3zM259 577l-134 162h97l80 -162h-43z" />
    <glyph glyph-name="yacute" unicode="&#xfd;" horiz-adv-x="499" 
d="M61 -234c54 62 110 153 147 240l-199 479h90l150 -383l155 383h86l-212 -498c-47 -111 -81 -174 -117 -224h-100v3zM377 739l-134 -162h-43l80 162h97z" />
    <glyph glyph-name="ycircumflex" unicode="&#x177;" horiz-adv-x="499" 
d="M61 -234c54 62 110 153 147 240l-199 479h90l150 -383l155 383h86l-212 -498c-47 -111 -81 -174 -117 -224h-100v3zM335 577l-85 93l-83 -93h-48l105 162h54l105 -162h-48z" />
    <glyph glyph-name="ydieresis" unicode="&#xff;" horiz-adv-x="499" 
d="M61 -234c54 62 110 153 147 240l-199 479h90l150 -383l155 383h86l-212 -498c-47 -111 -81 -174 -117 -224h-100v3zM160 704c29 0 50 -20 50 -50c0 -29 -20 -49 -49 -49c-31 0 -50 19 -50 49s19 50 49 50zM342 704c30 0 50 -20 50 -50c0 -29 -20 -49 -49 -49
c-31 0 -50 19 -50 49s20 50 49 50z" />
    <glyph glyph-name="zacute" unicode="&#x17a;" horiz-adv-x="519" 
d="M471 0h-451l330 410h-291l7 75h428l-334 -409h323zM388 739l-134 -162h-43l80 162h97z" />
    <glyph glyph-name="zcaron" unicode="&#x17e;" horiz-adv-x="519" 
d="M471 0h-451l330 410h-291l7 75h428l-334 -409h323zM131 739h48l84 -94l84 94h48l-105 -162h-54z" />
    <glyph glyph-name="zdotaccent" unicode="&#x17c;" horiz-adv-x="519" 
d="M471 0h-451l330 410h-291l7 75h428l-334 -409h323zM261 711c33 0 55 -22 55 -54s-22 -54 -54 -54c-33 0 -54 21 -54 54c0 32 21 54 53 54z" />
    <glyph glyph-name="germandbls" unicode="&#xdf;" horiz-adv-x="601" 
d="M503 614c0 -80 -51 -154 -161 -199c133 -40 214 -121 214 -233c0 -116 -75 -199 -204 -199c-53 0 -96 13 -122 35l-10 91h3c23 -33 67 -54 120 -54c89 0 130 53 130 129c0 87 -76 160 -223 190v69c127 41 171 102 171 164c0 66 -40 102 -110 102
c-87 0 -144 -69 -144 -184v-525h-82v533c0 143 91 247 228 247c120 0 190 -68 190 -166z" />
    <glyph glyph-name="thorn" unicode="&#xfe;" horiz-adv-x="590" 
d="M87 763l82 17v-310c40 20 83 28 128 28c138 0 245 -94 245 -251c0 -160 -99 -264 -259 -264c-40 0 -79 8 -114 27v-227l-82 -20v1000zM281 431c-48 0 -84 -9 -112 -29v-325c28 -19 63 -30 107 -30c110 0 180 75 180 196c0 114 -68 188 -175 188z" />
    <glyph glyph-name="florin" unicode="&#x192;" 
d="M42 -10c15 -14 39 -21 64 -21c56 0 84 50 104 180l41 259h-105v71h116l13 79c25 151 81 214 176 214c32 0 63 -8 85 -24l-13 -80c-17 18 -38 28 -62 28c-62 0 -88 -43 -106 -157l-10 -60h135v-71h-146l-44 -274c-28 -175 -84 -242 -173 -242c-27 0 -51 7 -66 16z" />
    <glyph glyph-name="uni02C9" unicode="&#x2c9;" horiz-adv-x="334" 
d="M277 680v-64h-267v64h267z" />
    <glyph glyph-name="uni0394" unicode="&#x394;" horiz-adv-x="744" 
d="M732 0h-720l337 751l53 8zM377 643l-255 -572h500z" />
    <glyph glyph-name="uni03A9" unicode="&#x3a9;" horiz-adv-x="793" 
d="M32 0l-10 75h228c-42 43 -92 112 -120 161c-48 82 -67 148 -67 230c0 184 119 321 333 321c215 0 334 -137 334 -321c0 -82 -20 -148 -67 -230c-29 -49 -79 -118 -121 -161h229l-11 -75h-309v70c47 45 111 127 148 196c35 67 47 125 47 194c0 141 -81 248 -250 248
c-170 0 -253 -107 -253 -248c0 -69 13 -127 48 -194c37 -70 102 -151 150 -196v-70h-309z" />
    <glyph glyph-name="uni03BC" unicode="&#x3bc;" horiz-adv-x="563" 
d="M249 -11c-41 0 -77 18 -91 54v-261l-81 -19v722h81v-301c0 -88 44 -115 97 -115c54 0 95 24 130 74c13 18 20 41 20 69v273h81v-477l-81 -20v94c-33 -58 -93 -93 -156 -93z" />
    <glyph glyph-name="pi" unicode="&#x3c0;" horiz-adv-x="611" 
d="M32 485h541v-67h-120v-265c0 -70 18 -91 61 -91c21 0 42 5 63 22l-6 -73c-24 -12 -54 -18 -81 -18c-76 0 -112 36 -112 141v284h-172v-240c0 -71 -13 -130 -50 -178h-85c43 52 60 101 60 178v240h-99v67z" />
    <glyph glyph-name="endash" unicode="&#x2013;" horiz-adv-x="600" 
d="M575 299v-61h-550v61h550z" />
    <glyph glyph-name="emdash" unicode="&#x2014;" horiz-adv-x="1000" 
d="M975 299v-61h-950v61h950z" />
    <glyph glyph-name="quoteleft" unicode="&#x2018;" horiz-adv-x="190" 
d="M79 520c-26 23 -44 61 -44 107c0 69 47 118 108 144l13 -21c-34 -22 -55 -51 -55 -92c0 -36 17 -68 47 -89z" />
    <glyph glyph-name="quoteright" unicode="&#x2019;" horiz-adv-x="190" 
d="M112 771c26 -22 43 -61 43 -107c0 -69 -46 -117 -107 -143l-13 20c34 22 55 51 55 93c0 35 -18 67 -47 89z" />
    <glyph glyph-name="quotesinglbase" unicode="&#x201a;" horiz-adv-x="247" 
d="M136 105c26 -22 43 -61 43 -107c0 -69 -46 -117 -107 -143l-13 20c34 22 55 51 55 93c0 35 -18 67 -47 89z" />
    <glyph glyph-name="quotedblleft" unicode="&#x201c;" horiz-adv-x="344" 
d="M242 520c-26 23 -44 61 -44 107c0 69 47 118 108 144l13 -21c-34 -22 -55 -51 -55 -92c0 -36 17 -68 47 -89zM79 520c-26 23 -44 61 -44 107c0 69 47 118 108 144l13 -21c-34 -22 -55 -51 -55 -92c0 -36 17 -68 47 -89z" />
    <glyph glyph-name="quotedblright" unicode="&#x201d;" horiz-adv-x="344" 
d="M265 771c26 -22 43 -61 43 -107c0 -69 -46 -117 -107 -143l-13 20c34 22 55 51 55 93c0 35 -18 67 -47 89zM102 771c26 -22 43 -61 43 -107c0 -69 -46 -117 -107 -143l-13 20c34 22 55 51 55 93c0 35 -18 67 -47 89z" />
    <glyph glyph-name="quotedblbase" unicode="&#x201e;" horiz-adv-x="411" 
d="M299 105c26 -22 43 -61 43 -107c0 -69 -46 -117 -107 -143l-13 20c34 22 55 51 55 93c0 35 -18 67 -47 89zM136 105c26 -22 43 -61 43 -107c0 -69 -46 -117 -107 -143l-13 20c34 22 55 51 55 93c0 35 -18 67 -47 89z" />
    <glyph glyph-name="dagger" unicode="&#x2020;" horiz-adv-x="455" 
d="M182 735h92l-20 -213l173 14v-79l-173 15l18 -160c-13 -140 -19 -280 -19 -424h-51c0 144 -6 284 -18 424l17 160l-172 -15v79l172 -14z" />
    <glyph glyph-name="daggerdbl" unicode="&#x2021;" horiz-adv-x="482" 
d="M287 -112h-92l19 210l-172 -15v79l172 -14l-17 164l17 163l-172 -14v79l172 -15l-19 210h92l-19 -210l172 15v-79l-172 14l17 -163l-17 -164l172 14v-79l-172 15z" />
    <glyph glyph-name="bullet" unicode="&#x2022;" horiz-adv-x="310" 
d="M45 400c0 60 49 110 110 110c60 0 109 -50 109 -110c0 -61 -49 -110 -109 -110c-61 0 -110 49 -110 110z" />
    <glyph glyph-name="ellipsis" unicode="&#x2026;" horiz-adv-x="791" 
d="M394 96c32 0 54 -22 54 -55c0 -31 -21 -53 -53 -53c-33 0 -54 21 -54 53c0 33 21 55 53 55zM667 96c32 0 54 -22 54 -55c0 -31 -21 -53 -53 -53c-33 0 -54 21 -54 53c0 33 21 55 53 55zM122 96c32 0 54 -22 54 -55c0 -31 -21 -53 -53 -53c-33 0 -54 21 -54 53
c0 33 21 55 53 55z" />
    <glyph glyph-name="perthousand" unicode="&#x2030;" horiz-adv-x="1152" 
d="M660 752l-459 -752h-66l458 752h67zM189 384c-80 0 -132 53 -132 147c0 98 76 197 174 197c80 0 133 -53 133 -147c0 -98 -77 -197 -175 -197zM228 670c-63 0 -109 -68 -109 -146c0 -53 26 -82 73 -82c63 0 110 68 110 146c0 53 -27 82 -74 82zM557 24
c-80 0 -132 53 -132 147c0 98 76 197 174 197c80 0 133 -53 133 -147c0 -98 -77 -197 -175 -197zM596 310c-63 0 -109 -68 -109 -146c0 -53 26 -82 73 -82c63 0 110 68 110 146c0 53 -27 82 -74 82zM920 24c-79 0 -132 53 -132 147c0 98 77 197 174 197
c80 0 133 -53 133 -147c0 -98 -77 -197 -175 -197zM959 310c-63 0 -109 -68 -109 -146c0 -53 26 -82 73 -82c64 0 110 68 110 146c0 53 -27 82 -74 82z" />
    <glyph glyph-name="guilsinglleft" unicode="&#x2039;" horiz-adv-x="294" 
d="M174 82l-130 165l130 165h67l-99 -165l99 -165h-67z" />
    <glyph glyph-name="guilsinglright" unicode="&#x203a;" horiz-adv-x="294" 
d="M121 412l130 -165l-130 -165h-67l99 165l-99 165h67z" />
    <glyph glyph-name="fraction" unicode="&#x2044;" horiz-adv-x="159" 
d="M371 780l-519 -810h-65l518 810h66z" />
    <glyph glyph-name="Euro" unicode="&#x20ac;" 
d="M24 428l14 58h40c34 178 152 279 334 279c56 0 104 -10 142 -28l-17 -74c-30 19 -77 29 -128 29c-135 0 -220 -76 -249 -206h334l-14 -58h-330c-1 -18 -2 -37 -2 -56c0 -12 0 -24 1 -35h310l-14 -58h-290c27 -145 119 -214 256 -214c59 0 106 14 148 44l-10 -91
c-36 -18 -82 -29 -142 -29c-185 0 -305 96 -333 290h-54l14 58h35c-1 11 -1 22 -1 34c0 19 0 38 2 57h-46z" />
    <glyph glyph-name="uni20B9" unicode="&#x20b9;" 
d="M47 505l26 62h289c-10 79 -73 123 -182 123h-133l26 62h455l-26 -62h-127c40 -29 64 -70 69 -123h84l-26 -62h-60c-16 -100 -92 -162 -230 -189l260 -316h-111l-283 357v3c191 19 265 63 282 145h-313z" />
    <glyph glyph-name="uni20BA" unicode="&#x20ba;" 
d="M55 413v70l72 38v231h82v-194l165 88v-70l-165 -87v-103l165 88v-70l-165 -87v-239c12 -4 26 -6 40 -6c112 0 201 81 228 221l75 -44c-37 -159 -154 -259 -310 -259c-44 0 -84 7 -115 18v271l-72 -38v70l72 38v102z" />
    <glyph glyph-name="afii61289" unicode="&#x2113;" horiz-adv-x="396" 
d="M347 31c-25 -29 -79 -46 -118 -46c-93 0 -135 40 -135 158v74l-51 -49l-16 56l67 67v303c0 128 59 186 140 186c79 0 124 -59 124 -154c0 -99 -51 -200 -202 -350v-120c0 -83 24 -107 81 -107c44 0 80 19 113 57h3zM156 594v-239c110 117 140 192 140 267
c0 61 -24 97 -65 97c-45 0 -75 -33 -75 -125z" />
    <glyph glyph-name="trademark" unicode="&#x2122;" horiz-adv-x="901" 
d="M214 350h-65v342h-135v60h335v-60h-135v-342zM397 350v402h75l148 -311l153 311h74v-402h-62v298l-145 -298h-38l-142 298v-298h-63z" />
    <glyph glyph-name="Omega" unicode="&#x2126;" horiz-adv-x="793" 
d="M32 0l-10 75h228c-42 43 -92 112 -120 161c-48 82 -67 148 -67 230c0 184 119 321 333 321c215 0 334 -137 334 -321c0 -82 -20 -148 -67 -230c-29 -49 -79 -118 -121 -161h229l-11 -75h-309v70c47 45 111 127 148 196c35 67 47 125 47 194c0 141 -81 248 -250 248
c-170 0 -253 -107 -253 -248c0 -69 13 -127 48 -194c37 -70 102 -151 150 -196v-70h-309z" />
    <glyph glyph-name="partialdiff" unicode="&#x2202;" horiz-adv-x="564" 
d="M287 458c66 0 122 -30 157 -75v14c0 192 -72 305 -191 305c-54 0 -95 -16 -132 -60h-3l-7 75c39 40 88 55 150 55c152 0 252 -135 252 -370c0 -263 -116 -419 -281 -419c-118 0 -191 84 -191 205c0 166 101 270 246 270zM238 56c102 0 182 95 201 259
c-38 53 -88 78 -148 78c-105 0 -173 -80 -173 -196c0 -84 41 -141 120 -141z" />
    <glyph glyph-name="Delta" unicode="&#x2206;" horiz-adv-x="744" 
d="M732 0h-720l337 751l53 8zM377 643l-255 -572h500z" />
    <glyph glyph-name="product" unicode="&#x220f;" horiz-adv-x="702" 
d="M163 -220h-75v952h526v-952h-74v881h-377v-881z" />
    <glyph glyph-name="summation" unicode="&#x2211;" horiz-adv-x="538" 
d="M511 -220h-487l303 476l-303 476h487v-68h-364l261 -408l-261 -408h364v-68z" />
    <glyph glyph-name="minus" unicode="&#x2212;" horiz-adv-x="576" 
d="M531 295v-73h-486v73h486z" />
    <glyph glyph-name="uni2215" unicode="&#x2215;" horiz-adv-x="159" 
d="M371 780l-519 -810h-65l518 810h66z" />
    <glyph glyph-name="uni2219" unicode="&#x2219;" horiz-adv-x="245" 
d="M122 318c32 0 54 -22 54 -55c0 -31 -21 -53 -53 -53c-33 0 -54 21 -54 53c0 33 21 55 53 55z" />
    <glyph glyph-name="radical" unicode="&#x221a;" horiz-adv-x="576" 
d="M262 -99l-140 420l-98 -36l-23 66l158 58l133 -400l214 881h60l-240 -989h-64z" />
    <glyph glyph-name="infinity" unicode="&#x221e;" horiz-adv-x="576" 
d="M165 387c59 0 102 -35 134 -85c26 43 71 85 126 85c79 0 127 -56 127 -130c0 -81 -54 -126 -123 -126c-60 0 -103 35 -135 84c-25 -42 -70 -84 -125 -84c-79 0 -127 56 -127 130c0 81 54 126 123 126zM165 187c46 0 80 23 105 68c-27 49 -57 78 -101 78
c-41 0 -72 -29 -72 -72c0 -45 25 -74 68 -74zM429 331c-46 0 -80 -24 -106 -69c27 -49 57 -77 102 -77c41 0 72 29 72 72c0 45 -25 74 -68 74z" />
    <glyph glyph-name="integral" unicode="&#x222b;" horiz-adv-x="445" 
d="M188 15v510c0 158 46 227 153 227c29 0 60 -7 81 -21l-13 -81c-17 20 -43 32 -67 32c-63 0 -85 -46 -85 -163v-503c0 -165 -48 -236 -156 -236c-27 0 -57 7 -77 23l14 77c19 -21 40 -31 66 -31c63 0 84 46 84 166z" />
    <glyph glyph-name="approxequal" unicode="&#x2248;" horiz-adv-x="576" 
d="M541 369c-29 -54 -75 -90 -136 -90c-89 0 -151 91 -235 91c-44 0 -77 -18 -103 -60l-32 58c29 48 75 74 136 74c89 0 153 -91 235 -91c43 0 75 28 101 75zM541 169c-29 -48 -75 -74 -136 -74c-89 0 -151 91 -235 91c-43 0 -75 -28 -101 -75l-34 57c29 54 75 90 136 90
c89 0 153 -91 235 -91c44 0 76 18 103 60z" />
    <glyph glyph-name="notequal" unicode="&#x2260;" horiz-adv-x="576" 
d="M531 202v-66h-286l-56 -92h-71l56 92h-129v66h169l69 113h-238v66h279l56 92h72l-57 -92h136v-66h-176l-69 -113h245z" />
    <glyph glyph-name="lessequal" unicode="&#x2264;" horiz-adv-x="576" 
d="M531 442l-422 -122l422 -120v-66l-486 147v79l486 147v-65zM531 93v-63h-486v63h486z" />
    <glyph glyph-name="greaterequal" unicode="&#x2265;" horiz-adv-x="576" 
d="M45 134v66l421 121l-421 121v65l486 -147v-79zM531 93v-63h-486v63h486z" />
    <glyph glyph-name="lozenge" unicode="&#x25ca;" horiz-adv-x="521" 
d="M42 390l187 390h63l187 -390l-187 -390h-63zM108 390l152 -316l152 317l-152 315z" />
    <glyph glyph-name="fi" unicode="&#xfb01;" horiz-adv-x="607" 
d="M199 545v-60h138v-69h-138v-416h-82v416h-99v69h99v78c0 95 33 163 97 192l130 25v-46c-115 -24 -145 -80 -145 -189zM438 478l82 16v-494h-82v478zM479 722c32 0 54 -22 54 -54s-22 -54 -53 -54c-33 0 -54 21 -54 54c0 32 21 54 53 54z" />
    <glyph glyph-name="fl" unicode="&#xfb02;" horiz-adv-x="607" 
d="M199 545v-60h138v-69h-138v-416h-82v416h-99v69h99v78c0 95 33 163 97 192l130 25v-46c-115 -24 -145 -80 -145 -189zM520 780v-780h-82v763z" />
    <glyph glyph-name="questiondown.cap" horiz-adv-x="458" 
d="M353 675c-32 0 -54 22 -54 55c0 31 21 53 53 53c33 0 54 -21 54 -53c0 -33 -21 -55 -53 -55zM318 549l75 16v-182c-153 -8 -247 -75 -247 -176c0 -88 68 -144 174 -144c37 0 68 5 97 17l-15 -80c-29 -9 -57 -12 -92 -12c-143 0 -248 75 -248 214c0 125 102 216 256 239
v108z" />
    <glyph glyph-name="exclamdown.cap" horiz-adv-x="279" 
d="M142 673c-33 0 -55 22 -55 54s22 53 54 53c33 0 54 -21 54 -53s-21 -54 -53 -54zM187 7l-103 -19c6 192 25 412 46 563l26 -5c17 -146 30 -369 31 -539z" />
    <glyph glyph-name="periodcenterd.cap" horiz-adv-x="245" 
d="M122 440c32 0 54 -22 54 -55c0 -31 -21 -53 -53 -53c-33 0 -54 21 -54 53c0 33 21 55 53 55z" />
    <glyph glyph-name="hyphen.cap" horiz-adv-x="324" 
d="M289 423v-73h-254v73h254z" />
    <glyph glyph-name="endash.cap" horiz-adv-x="600" 
d="M575 416v-60h-550v60h550z" />
    <glyph glyph-name="emdash.cap" horiz-adv-x="1000" 
d="M975 416v-60h-950v60h950z" />
    <glyph glyph-name="uni00AD.cap" horiz-adv-x="324" 
d="M289 423v-73h-254v73h254z" />
    <glyph glyph-name="parenleft.cap" horiz-adv-x="348" 
d="M74 386c0 186 52 310 158 423h61c-105 -132 -148 -251 -148 -423s43 -291 148 -423h-61c-106 113 -158 237 -158 423z" />
    <glyph glyph-name="parenright.cap" horiz-adv-x="348" 
d="M275 386c0 -186 -52 -310 -158 -423h-62c105 132 148 251 148 423s-43 291 -148 423h62c106 -113 158 -237 158 -423z" />
    <glyph glyph-name="bracketleft.cap" horiz-adv-x="348" 
d="M84 -37v846h210v-47h-142v-752h142v-47h-210z" />
    <glyph glyph-name="bracketright.cap" horiz-adv-x="348" 
d="M265 809v-846h-211v47h142v752h-142v47h211z" />
    <glyph glyph-name="braceleft.cap" horiz-adv-x="348" 
d="M27 362v48c73 6 100 55 100 115v138c0 105 56 146 171 146v-46c-72 0 -104 -29 -104 -113v-139c0 -76 -35 -112 -96 -125c61 -13 96 -49 96 -125v-139c0 -86 32 -113 104 -113v-46c-115 0 -171 41 -171 146v138c0 60 -27 109 -100 115z" />
    <glyph glyph-name="braceright.cap" horiz-adv-x="348" 
d="M321 410v-48c-73 -6 -100 -55 -100 -115v-138c0 -105 -55 -146 -171 -146v46c72 0 104 29 104 113v139c0 76 35 112 96 125c-61 13 -96 49 -96 125v139c0 86 -32 113 -104 113v46c116 0 171 -41 171 -146v-138c0 -60 27 -109 100 -115z" />
    <glyph glyph-name="guilsinglleft.cap" horiz-adv-x="294" 
d="M174 221l-130 165l130 165h67l-99 -165l99 -165h-67z" />
    <glyph glyph-name="guilsinglright.cap" horiz-adv-x="294" 
d="M121 551l130 -165l-130 -165h-67l99 165l-99 165h67z" />
    <glyph glyph-name="guillemotleft.cap" horiz-adv-x="450" 
d="M174 221l-130 165l130 165h60l-99 -165l99 -165h-60zM336 221l-130 165l130 165h61l-99 -165l99 -165h-61z" />
    <glyph glyph-name="guillemotright.cap" horiz-adv-x="450" 
d="M114 551l130 -165l-130 -165h-60l99 165l-99 165h60zM277 551l130 -165l-130 -165h-61l99 165l-99 165h61z" />
    <glyph glyph-name="A.superior" horiz-adv-x="416" 
d="M7 350l181 400l49 7l171 -407h-73l-46 116h-161l-47 -116h-74zM210 670l-65 -154h126z" />
    <glyph glyph-name="B.superior" horiz-adv-x="346" 
d="M298 657c0 -38 -19 -70 -58 -88c49 -16 75 -50 75 -100c0 -71 -60 -119 -152 -119h-109v402h116c85 0 128 -41 128 -95zM118 535v-132h46c58 0 85 30 85 70c0 36 -28 62 -78 62h-53zM118 699v-117h48c45 0 69 28 69 62c0 31 -23 55 -69 55h-48z" />
    <glyph glyph-name="C.superior" horiz-adv-x="397" 
d="M362 723l-7 -75h-3c-25 30 -64 48 -115 48c-82 0 -138 -65 -138 -145c0 -85 56 -145 138 -145c48 0 91 20 126 59h3l-7 -83c-35 -25 -81 -39 -128 -39c-117 0 -200 83 -200 209c0 110 83 207 202 207c53 0 94 -12 129 -36z" />
    <glyph glyph-name="D.superior" horiz-adv-x="411" 
d="M158 350h-104v402h105c141 0 222 -80 222 -196c0 -132 -79 -206 -223 -206zM119 692v-282h42c99 0 152 52 152 146c0 76 -54 136 -151 136h-43z" />
    <glyph glyph-name="E.superior" horiz-adv-x="314" 
d="M119 694v-108h138v-55h-138v-123h162v-58h-227v402h225v-58h-160z" />
    <glyph glyph-name="F.superior" horiz-adv-x="303" 
d="M281 752v-58h-162v-110h149v-58h-149v-176h-65v402h227z" />
    <glyph glyph-name="G.superior" horiz-adv-x="412" 
d="M376 539v-146c-41 -32 -93 -50 -146 -50c-118 0 -199 81 -199 206c0 112 76 210 205 210c49 0 91 -13 125 -35l-7 -72h-3c-29 29 -69 46 -115 46c-84 0 -137 -61 -137 -149c0 -89 54 -147 134 -147c32 0 59 10 77 27v110h66z" />
    <glyph glyph-name="H.superior" horiz-adv-x="426" 
d="M119 350h-65v402h65v-163h188v163h65v-402h-65v179h-188v-179z" />
    <glyph glyph-name="I.superior" horiz-adv-x="173" 
d="M119 350h-65v402h65v-402z" />
    <glyph glyph-name="J.superior" horiz-adv-x="174" 
d="M54 752h66v-330c0 -91 -12 -140 -42 -173l-90 -22l-2 5c50 39 68 76 68 185v335z" />
    <glyph glyph-name="K.superior" horiz-adv-x="394" 
d="M119 350h-65v402h65v-187l166 187h88l-184 -196l199 -206h-91l-178 195v-195z" />
    <glyph glyph-name="L.superior" horiz-adv-x="326" 
d="M54 350v402h65v-342h193v-60h-258z" />
    <glyph glyph-name="M.superior" horiz-adv-x="558" 
d="M54 350v402h75l148 -311l153 311h74v-402h-62v298l-145 -298h-38l-142 298v-298h-63z" />
    <glyph glyph-name="N.superior" horiz-adv-x="469" 
d="M352 752h63v-402h-54l-243 296v-296h-64v402h54l244 -296v296z" />
    <glyph glyph-name="O.superior" horiz-adv-x="455" 
d="M356 551c0 85 -54 148 -129 148s-128 -63 -128 -148c0 -86 53 -148 128 -148s129 62 129 148zM424 551c0 -121 -82 -209 -197 -209s-196 88 -196 209s82 209 196 209c115 0 197 -88 197 -209z" />
    <glyph glyph-name="P.superior" horiz-adv-x="328" 
d="M119 350h-65v402h102c94 0 151 -45 151 -123c0 -90 -57 -134 -162 -134h-26v-145zM119 696v-145h31c61 0 93 25 93 74c0 45 -32 71 -89 71h-35z" />
    <glyph glyph-name="Q.superior" horiz-adv-x="458" 
d="M228 350c-16 0 -32 2 -47 6v-1c31 -11 73 -32 114 -43c27 -7 55 -10 83 -10l-20 -65c-27 2 -59 9 -86 19c-54 20 -95 45 -135 63c-17 7 -36 13 -51 16l29 54c-49 37 -84 97 -84 166c0 119 82 205 197 205c116 0 199 -87 199 -207c0 -117 -83 -203 -199 -203zM357 553
c0 84 -54 145 -129 145s-127 -60 -127 -143c0 -85 56 -149 127 -149c75 0 129 62 129 147z" />
    <glyph glyph-name="R.superior" horiz-adv-x="366" 
d="M53 350v402h113c91 0 145 -42 145 -116c0 -56 -35 -94 -90 -112l138 -174h-80l-123 161h-37v-161h-66zM119 696v-140h8c76 0 116 22 116 73c0 44 -30 67 -85 67h-39z" />
    <glyph glyph-name="S.superior" horiz-adv-x="302" 
d="M39 443c34 -28 65 -42 102 -42c41 0 66 20 66 53c0 31 -18 51 -79 84c-70 37 -91 68 -91 122c0 57 47 100 116 100c33 0 64 -7 92 -19v-73c-35 23 -62 34 -88 34c-36 0 -54 -19 -54 -45c0 -28 12 -42 78 -77c69 -35 93 -70 93 -125c0 -69 -56 -113 -137 -113
c-37 0 -69 7 -94 22l-7 79h3z" />
    <glyph glyph-name="T.superior" horiz-adv-x="362" 
d="M214 350h-65v342h-135v60h335v-60h-135v-342z" />
    <glyph glyph-name="U.superior" horiz-adv-x="412" 
d="M51 752h66v-248c0 -67 40 -97 89 -97c51 0 90 30 90 97v248h65v-250c0 -112 -67 -159 -155 -159s-155 47 -155 157v252z" />
    <glyph glyph-name="V.superior" horiz-adv-x="415" 
d="M7 752h76l120 -311l129 311h76l-178 -402h-55z" />
    <glyph glyph-name="W.superior" horiz-adv-x="610" 
d="M383 350l-80 199l-83 -199h-49l-164 402h76l116 -311l75 178l-53 133h75l113 -305l123 305h71l-171 -402h-49z" />
    <glyph glyph-name="X.superior" horiz-adv-x="415" 
d="M11 350l154 209l-147 193h86l104 -144l99 144h83l-145 -191l158 -211h-86l-114 162l-115 -162h-77z" />
    <glyph glyph-name="Y.superior" horiz-adv-x="382" 
d="M217 350h-65v182l-147 220h80l102 -162l110 162h81l-161 -221v-181z" />
    <glyph glyph-name="Z.superior" horiz-adv-x="388" 
d="M352 350h-349l251 340h-211l5 62h327l-255 -340h243z" />
    <glyph glyph-name="ordfeminine" unicode="&#xaa;" horiz-adv-x="351" 
d="M64 606v58c32 23 73 34 113 34c82 0 121 -43 121 -119v-223l-62 -15v49c-32 -29 -72 -48 -121 -48c-54 0 -90 29 -90 80c0 46 26 79 74 101c39 18 79 29 137 35v21c0 42 -24 65 -69 65c-36 0 -73 -13 -100 -38h-3zM236 446v72c-36 -4 -75 -13 -101 -25
c-30 -14 -44 -31 -44 -56c0 -27 17 -45 51 -45c32 0 67 18 94 54z" />
    <glyph glyph-name="b.superior" horiz-adv-x="416" 
d="M190 338c-30 0 -64 9 -84 21l-46 -18v510l63 13v-195c27 20 55 33 97 33c91 0 163 -65 163 -172c0 -116 -74 -192 -193 -192zM205 648c-35 0 -63 -11 -82 -32v-213c18 -11 41 -16 64 -16c80 0 131 51 131 137c0 75 -45 124 -113 124z" />
    <glyph glyph-name="c.superior" horiz-adv-x="353" 
d="M326 443l-10 -74c-24 -16 -66 -31 -110 -31c-106 0 -174 68 -174 177c0 106 68 187 187 187c39 0 76 -11 102 -28l-11 -62c-23 20 -52 31 -89 31c-78 0 -123 -51 -123 -128c0 -67 40 -119 114 -119c47 0 80 14 111 47h3z" />
    <glyph glyph-name="d.superior" horiz-adv-x="417" 
d="M297 339l2 35c-31 -25 -70 -36 -107 -36c-101 0 -160 78 -160 174c0 111 80 190 179 190c30 0 56 -7 83 -21v170l63 13v-508zM208 391c34 0 64 9 86 29v208c-20 14 -46 20 -75 20c-69 0 -120 -53 -120 -135c0 -72 40 -122 109 -122z" />
    <glyph glyph-name="e.superior" horiz-adv-x="359" 
d="M209 501c-32 -8 -80 -18 -118 -24c11 -50 47 -84 108 -84c44 0 86 19 113 53h3l-4 -69c-29 -24 -72 -39 -117 -39c-109 0 -162 77 -162 163c0 101 76 202 186 202c69 0 106 -39 106 -91s-32 -90 -115 -111zM203 653c-63 0 -113 -68 -115 -137c30 4 72 13 104 23
c48 15 68 38 68 65c0 31 -22 49 -57 49z" />
    <glyph glyph-name="f.superior" horiz-adv-x="247" 
d="M143 702v-12h95v-54h-95v-286h-64v286h-67v54h67v22c0 67 24 114 69 134l95 18v-33c-80 -18 -100 -55 -100 -129z" />
    <glyph glyph-name="g.superior" horiz-adv-x="373" 
d="M178 698c30 0 57 -8 79 -21c24 33 50 47 89 47v-54c-21 0 -39 -6 -56 -20c17 -20 27 -44 27 -68c0 -54 -37 -90 -103 -107c-29 -8 -60 -11 -79 -16c-21 -5 -31 -10 -31 -21s15 -17 40 -22c29 -6 88 -13 116 -19c56 -11 80 -38 80 -84c0 -72 -78 -128 -176 -128
c-84 0 -133 48 -133 102c0 35 16 63 62 87c-39 13 -56 32 -56 52c0 26 31 46 75 62c-41 19 -68 51 -68 93c0 64 56 117 134 117zM233 349c-23 5 -61 9 -102 16c-31 -15 -51 -36 -51 -66c0 -33 32 -63 89 -63c65 0 108 34 108 70c0 19 -11 36 -44 43zM100 577
c0 -28 19 -53 50 -67c4 -2 12 -3 17 -3c6 0 14 1 21 3c41 9 68 33 68 68c0 37 -31 70 -80 70c-44 0 -76 -29 -76 -71z" />
    <glyph glyph-name="h.superior" horiz-adv-x="409" 
d="M60 350v500l63 14v-232c38 46 78 65 122 65c69 0 110 -38 110 -114v-233h-64v212c0 54 -21 77 -67 77c-34 0 -63 -18 -81 -42c-14 -18 -20 -31 -20 -62v-185h-63z" />
    <glyph glyph-name="i.superior" horiz-adv-x="182" 
d="M60 683l63 13v-346h-63v333zM91 857c24 0 40 -17 40 -41s-16 -40 -39 -40c-25 0 -41 15 -41 40c0 24 16 41 40 41z" />
    <glyph glyph-name="j.superior" horiz-adv-x="182" 
d="M59 683l63 13v-357c0 -76 -14 -108 -35 -131l-89 -23l-4 10c46 29 65 69 65 144v344zM90 857c24 0 41 -17 41 -41s-17 -40 -40 -40c-25 0 -41 15 -41 40c0 24 17 41 40 41z" />
    <glyph glyph-name="k.superior" horiz-adv-x="379" 
d="M123 864v-324l145 150h86l-159 -155l201 -185h-91l-182 178v-178h-63v500z" />
    <glyph glyph-name="l.superior" horiz-adv-x="183" 
d="M123 864v-514h-63v500z" />
    <glyph glyph-name="m.superior" horiz-adv-x="596" 
d="M480 350v215c0 47 -23 74 -62 74c-33 0 -57 -17 -74 -43c-6 -11 -10 -23 -11 -39v-207h-63v215c0 47 -24 74 -62 74c-33 0 -58 -17 -74 -44c-8 -12 -11 -25 -11 -45v-200h-63v340h63v-50c24 39 60 57 102 57c52 0 85 -29 99 -66c26 43 66 66 111 66
c73 0 108 -48 108 -117v-230h-63z" />
    <glyph glyph-name="n.superior" unicode="&#x207f;" horiz-adv-x="409" 
d="M60 350v340h63v-58c38 46 78 65 122 65c69 0 110 -38 110 -114v-233h-64v212c0 54 -21 77 -67 77c-34 0 -63 -18 -81 -42c-14 -18 -20 -31 -20 -62v-185h-63z" />
    <glyph glyph-name="ordmasculine" unicode="&#xba;" horiz-adv-x="406" 
d="M203 391c64 0 105 47 105 131c0 77 -41 127 -105 127c-65 0 -105 -52 -105 -127c0 -77 37 -131 105 -131zM203 338c-98 0 -171 69 -171 184c0 113 73 180 171 180c94 0 170 -62 170 -180c0 -124 -79 -184 -170 -184z" />
    <glyph glyph-name="p.superior" horiz-adv-x="414" 
d="M60 690h63v-10c28 13 56 19 86 19c97 0 172 -66 172 -176c0 -112 -69 -185 -181 -185c-28 0 -54 5 -77 18v-157l-63 -14v505zM196 647c-31 0 -55 -6 -73 -19v-221c18 -13 42 -20 71 -20c74 0 121 51 121 133c0 77 -46 127 -119 127z" />
    <glyph glyph-name="q.superior" horiz-adv-x="418" 
d="M358 693v-493l-63 -15v182c-25 -17 -61 -28 -98 -28c-100 0 -165 69 -165 177c0 113 73 186 184 186c30 0 58 -5 84 -15zM212 393c36 0 64 8 83 25v218c-19 9 -42 14 -71 14c-80 0 -125 -51 -125 -132c0 -77 41 -125 113 -125z" />
    <glyph glyph-name="r.superior" horiz-adv-x="263" 
d="M254 693v-66h-11c-37 0 -67 -8 -91 -23c-21 -13 -29 -29 -29 -62v-192h-63v340h63v-58c28 40 68 62 114 62c5 0 11 0 17 -1z" />
    <glyph glyph-name="s.superior" horiz-adv-x="308" 
d="M35 372l4 62c28 -29 69 -47 112 -47c44 0 66 19 66 48c0 16 -9 32 -29 43c-27 14 -62 24 -90 37c-47 23 -61 50 -61 91c0 54 43 96 112 96c44 0 81 -12 112 -31l-15 -59c-26 26 -66 40 -95 40c-38 0 -55 -20 -55 -43c0 -21 10 -33 32 -44c22 -10 59 -22 83 -34
c49 -23 65 -53 65 -94c0 -59 -47 -99 -126 -99c-50 0 -88 14 -115 34z" />
    <glyph glyph-name="t.superior" horiz-adv-x="251" 
d="M12 690h65v103l63 13v-116h101v-54h-101v-171c0 -64 11 -83 57 -108v-6l-72 -8c-32 16 -48 42 -48 115v178h-65v54z" />
    <glyph glyph-name="u.superior" horiz-adv-x="405" 
d="M54 690h63v-216c0 -52 25 -73 68 -73c35 0 66 21 88 54c6 11 10 23 10 38v197h63v-334l-63 -15v67c-31 -42 -72 -66 -120 -66c-73 0 -109 42 -109 118v230z" />
    <glyph glyph-name="v.superior" horiz-adv-x="346" 
d="M5 690h69l91 -269l107 269h69l-147 -340h-62z" />
    <glyph glyph-name="w.superior" horiz-adv-x="547" 
d="M245 690h58l69 -270l103 270h67l-143 -340h-60l-68 249l-83 -249h-61l-122 340h67l85 -269z" />
    <glyph glyph-name="x.superior" horiz-adv-x="381" 
d="M362 690l-139 -163l141 -177h-76l-101 132l-109 -132h-75l149 173l-132 167h81l89 -123l97 123h75z" />
    <glyph glyph-name="y.superior" horiz-adv-x="354" 
d="M43 188c37 43 76 105 102 165l-140 337h69l102 -262l106 262h66l-149 -349c-33 -77 -56 -121 -81 -156h-75v3z" />
    <glyph glyph-name="z.superior" horiz-adv-x="363" 
d="M329 350h-318l224 283h-195l6 57h301l-226 -283h217z" />
    <glyph glyph-name="zero.superior" unicode="&#x2070;" horiz-adv-x="375" 
d="M187 448c-88 0 -150 72 -150 206s62 206 150 206s151 -72 151 -206c0 -133 -63 -206 -151 -206zM187 503c54 0 87 53 87 151s-33 151 -87 151c-53 0 -86 -53 -86 -151c0 -97 33 -151 86 -151z" />
    <glyph glyph-name="onesuperior" unicode="&#xb9;" horiz-adv-x="264" 
d="M171 458h-64v338l-90 -3l9 57h145v-392z" />
    <glyph glyph-name="twosuperior" unicode="&#xb2;" horiz-adv-x="348" 
d="M220 596c-31 -31 -64 -58 -99 -82h190l-7 -56h-269v49c46 31 93 72 132 113c46 48 61 81 61 120c0 34 -24 61 -69 61c-40 0 -72 -12 -111 -43l10 72c27 20 68 30 110 30c84 0 126 -49 126 -110c0 -51 -18 -97 -74 -154z" />
    <glyph glyph-name="threesuperior" unicode="&#xb3;" horiz-adv-x="346" 
d="M284 762c0 -40 -24 -75 -66 -91c54 -17 84 -47 84 -102c0 -75 -62 -121 -152 -121c-48 0 -83 6 -110 21l-3 64c33 -21 64 -29 111 -29c57 0 90 29 90 66c0 39 -32 66 -89 66c-32 0 -63 -4 -85 -10l13 63c13 -1 32 -2 50 -2c56 0 93 22 93 64c0 30 -25 53 -73 53
c-38 0 -64 -6 -90 -23l14 64c23 10 54 15 89 15c80 0 124 -43 124 -98z" />
    <glyph glyph-name="four.superior" unicode="&#x2074;" horiz-adv-x="367" 
d="M218 458v104h-205v33l194 255h70v-236h72v-52h-72v-104h-59zM78 614h140v182z" />
    <glyph glyph-name="five.superior" unicode="&#x2075;" horiz-adv-x="353" 
d="M305 850l-8 -53h-173l-10 -79c8 2 22 2 34 2c99 0 154 -55 154 -122c0 -97 -78 -154 -226 -154c-14 0 -23 0 -35 2l8 60c14 -3 28 -4 49 -4c92 0 141 37 141 91c0 43 -36 77 -109 77c-27 0 -53 -3 -77 -9l24 189h228z" />
    <glyph glyph-name="six.superior" unicode="&#x2076;" horiz-adv-x="354" 
d="M287 802c-108 -9 -171 -61 -192 -133c24 22 52 34 90 34c79 0 136 -47 136 -125c0 -71 -55 -130 -140 -130c-95 0 -148 61 -148 164c0 122 75 235 265 250zM178 658c-41 0 -69 -14 -92 -41v-8c0 -70 36 -107 99 -107c44 0 78 35 78 78c0 45 -36 78 -85 78z" />
    <glyph glyph-name="seven.superior" unicode="&#x2077;" horiz-adv-x="327" 
d="M86 458c39 123 91 243 136 336l-205 -4l24 60h264c-65 -145 -116 -271 -146 -392h-73z" />
    <glyph glyph-name="eight.superior" unicode="&#x2078;" horiz-adv-x="373" 
d="M332 562c0 -61 -51 -114 -148 -114c-92 0 -142 45 -142 111c0 46 27 80 79 99c-41 18 -67 49 -67 96c0 57 55 106 130 106c82 0 127 -47 127 -102c0 -40 -23 -69 -64 -90c55 -17 85 -56 85 -106zM269 564c0 39 -28 64 -95 77c-47 -13 -72 -45 -72 -79
c0 -33 31 -62 82 -62c57 0 85 29 85 64zM114 756c0 -38 20 -57 80 -75c35 14 58 35 58 71c0 31 -27 57 -68 57c-40 0 -70 -24 -70 -53z" />
    <glyph glyph-name="nine.superior" unicode="&#x2079;" horiz-adv-x="359" 
d="M116 441l-39 49c92 35 146 76 170 130c-18 -11 -40 -17 -64 -17c-88 0 -149 47 -149 127c0 72 51 130 135 130c95 0 151 -61 151 -163c0 -115 -65 -201 -204 -256zM193 650c28 0 50 6 68 19c1 9 2 19 2 29c0 68 -34 109 -95 109c-46 0 -77 -35 -77 -79
c0 -46 42 -78 102 -78z" />
    <glyph glyph-name="zero.inferior" unicode="&#x2080;" horiz-adv-x="375" 
d="M187 -152c-88 0 -150 72 -150 206s62 206 150 206s151 -72 151 -206c0 -133 -63 -206 -151 -206zM187 -97c54 0 87 53 87 151s-33 151 -87 151c-53 0 -86 -53 -86 -151c0 -97 33 -151 86 -151z" />
    <glyph glyph-name="one.inferior" unicode="&#x2081;" horiz-adv-x="264" 
d="M171 -142h-64v338l-90 -3l9 57h145v-392z" />
    <glyph glyph-name="two.inferior" unicode="&#x2082;" horiz-adv-x="348" 
d="M220 -4c-31 -31 -64 -58 -99 -82h190l-7 -56h-269v49c46 31 93 72 132 113c46 48 61 81 61 120c0 34 -24 61 -69 61c-40 0 -72 -12 -111 -43l10 72c27 20 68 30 110 30c84 0 126 -49 126 -110c0 -51 -18 -97 -74 -154z" />
    <glyph glyph-name="three.inferior" unicode="&#x2083;" horiz-adv-x="346" 
d="M284 162c0 -40 -24 -75 -66 -91c54 -17 84 -47 84 -102c0 -75 -62 -121 -152 -121c-48 0 -83 6 -110 21l-3 64c33 -21 64 -29 111 -29c57 0 90 29 90 66c0 39 -32 66 -89 66c-32 0 -63 -4 -85 -10l13 63c13 -1 32 -2 50 -2c56 0 93 22 93 64c0 30 -25 53 -73 53
c-38 0 -64 -6 -90 -23l14 64c23 10 54 15 89 15c80 0 124 -43 124 -98z" />
    <glyph glyph-name="four.inferior" unicode="&#x2084;" horiz-adv-x="360" 
d="M211 -142v104h-205v33l194 255h70v-236h72v-52h-72v-104h-59zM71 14h140v182z" />
    <glyph glyph-name="five.inferior" unicode="&#x2085;" horiz-adv-x="353" 
d="M305 250l-8 -53h-173l-10 -79c8 2 22 2 34 2c99 0 154 -55 154 -122c0 -97 -78 -154 -226 -154c-14 0 -23 0 -35 2l8 60c14 -3 28 -4 49 -4c92 0 141 37 141 91c0 43 -36 77 -109 77c-27 0 -53 -3 -77 -9l24 189h228z" />
    <glyph glyph-name="six.inferior" unicode="&#x2086;" horiz-adv-x="354" 
d="M287 202c-108 -9 -171 -61 -192 -133c24 22 52 34 90 34c79 0 136 -47 136 -125c0 -71 -55 -130 -140 -130c-95 0 -148 61 -148 164c0 122 75 235 265 250zM178 58c-41 0 -69 -14 -92 -41v-8c0 -70 36 -107 99 -107c44 0 78 35 78 78c0 45 -36 78 -85 78z" />
    <glyph glyph-name="seven.inferior" unicode="&#x2087;" horiz-adv-x="327" 
d="M86 -142c39 123 91 243 136 336l-205 -4l24 60h264c-65 -145 -116 -271 -146 -392h-73z" />
    <glyph glyph-name="eight.inferior" unicode="&#x2088;" horiz-adv-x="373" 
d="M332 -38c0 -61 -51 -114 -148 -114c-92 0 -142 45 -142 111c0 46 27 80 79 99c-41 18 -67 49 -67 96c0 57 55 106 130 106c82 0 127 -47 127 -102c0 -40 -23 -69 -64 -90c55 -17 85 -56 85 -106zM269 -36c0 39 -28 64 -95 77c-47 -13 -72 -45 -72 -79
c0 -33 31 -62 82 -62c57 0 85 29 85 64zM114 156c0 -38 20 -57 80 -75c35 14 58 35 58 71c0 31 -27 57 -68 57c-40 0 -70 -24 -70 -53z" />
    <glyph glyph-name="nine.inferior" unicode="&#x2089;" horiz-adv-x="359" 
d="M116 -159l-39 49c92 35 146 76 170 130c-18 -11 -40 -17 -64 -17c-88 0 -149 47 -149 127c0 72 51 130 135 130c95 0 151 -61 151 -163c0 -115 -65 -201 -204 -256zM193 50c28 0 50 6 68 19c1 9 2 19 2 29c0 68 -34 109 -95 109c-46 0 -77 -35 -77 -79
c0 -46 42 -78 102 -78z" />
    <glyph glyph-name="zero.numerator" horiz-adv-x="375" 
d="M187 350c-88 0 -150 72 -150 206s62 206 150 206s151 -72 151 -206c0 -133 -63 -206 -151 -206zM187 405c54 0 87 53 87 151s-33 151 -87 151c-53 0 -86 -53 -86 -151c0 -97 33 -151 86 -151z" />
    <glyph glyph-name="one.numerator" horiz-adv-x="264" 
d="M171 360h-64v338l-90 -3l9 57h145v-392z" />
    <glyph glyph-name="two.numerator" horiz-adv-x="348" 
d="M220 498c-31 -31 -64 -58 -99 -82h190l-7 -56h-269v49c46 31 93 72 132 113c46 48 61 81 61 120c0 34 -24 61 -69 61c-40 0 -72 -12 -111 -43l10 72c27 20 68 30 110 30c84 0 126 -49 126 -110c0 -51 -18 -97 -74 -154z" />
    <glyph glyph-name="three.numerator" horiz-adv-x="346" 
d="M284 664c0 -40 -24 -75 -66 -91c54 -17 84 -47 84 -102c0 -75 -62 -121 -152 -121c-48 0 -83 6 -110 21l-3 64c33 -21 64 -29 111 -29c57 0 90 29 90 66c0 39 -32 66 -89 66c-32 0 -63 -4 -85 -10l13 63c13 -1 32 -2 50 -2c56 0 93 22 93 64c0 30 -25 53 -73 53
c-38 0 -64 -6 -90 -23l14 64c23 10 54 15 89 15c80 0 124 -43 124 -98z" />
    <glyph glyph-name="four.numerator" horiz-adv-x="360" 
d="M211 360v104h-205v33l194 255h70v-236h72v-52h-72v-104h-59zM71 516h140v182z" />
    <glyph glyph-name="five.numerator" horiz-adv-x="353" 
d="M305 752l-8 -53h-173l-10 -79c8 2 22 2 34 2c99 0 154 -55 154 -122c0 -97 -78 -154 -226 -154c-14 0 -23 0 -35 2l8 60c14 -3 28 -4 49 -4c92 0 141 37 141 91c0 43 -36 77 -109 77c-27 0 -53 -3 -77 -9l24 189h228z" />
    <glyph glyph-name="six.numerator" horiz-adv-x="354" 
d="M287 704c-108 -9 -171 -61 -192 -133c24 22 52 34 90 34c79 0 136 -47 136 -125c0 -71 -55 -130 -140 -130c-95 0 -148 61 -148 164c0 122 75 235 265 250zM178 560c-41 0 -69 -14 -92 -41v-8c0 -70 36 -107 99 -107c44 0 78 35 78 78c0 45 -36 78 -85 78z" />
    <glyph glyph-name="seven.numerator" horiz-adv-x="327" 
d="M86 360c39 123 91 243 136 336l-205 -4l24 60h264c-65 -145 -116 -271 -146 -392h-73z" />
    <glyph glyph-name="eight.numerator" horiz-adv-x="373" 
d="M332 464c0 -61 -51 -114 -148 -114c-92 0 -142 45 -142 111c0 46 27 80 79 99c-41 18 -67 49 -67 96c0 57 55 106 130 106c82 0 127 -47 127 -102c0 -40 -23 -69 -64 -90c55 -17 85 -56 85 -106zM269 466c0 39 -28 64 -95 77c-47 -13 -72 -45 -72 -79
c0 -33 31 -62 82 -62c57 0 85 29 85 64zM114 658c0 -38 20 -57 80 -75c35 14 58 35 58 71c0 31 -27 57 -68 57c-40 0 -70 -24 -70 -53z" />
    <glyph glyph-name="nine.numerator" horiz-adv-x="359" 
d="M116 343l-39 49c92 35 146 76 170 130c-18 -11 -40 -17 -64 -17c-88 0 -149 47 -149 127c0 72 51 130 135 130c95 0 151 -61 151 -163c0 -115 -65 -201 -204 -256zM193 552c28 0 50 6 68 19c1 9 2 19 2 29c0 68 -34 109 -95 109c-46 0 -77 -35 -77 -79
c0 -46 42 -78 102 -78z" />
    <glyph glyph-name="zero.denominator" horiz-adv-x="375" 
d="M187 -10c-88 0 -150 72 -150 206s62 206 150 206s151 -72 151 -206c0 -133 -63 -206 -151 -206zM187 45c54 0 87 53 87 151s-33 151 -87 151c-53 0 -86 -53 -86 -151c0 -97 33 -151 86 -151z" />
    <glyph glyph-name="one.denominator" horiz-adv-x="264" 
d="M171 0h-64v338l-90 -3l9 57h145v-392z" />
    <glyph glyph-name="two.denominator" horiz-adv-x="348" 
d="M220 138c-31 -31 -64 -58 -99 -82h190l-7 -56h-269v49c46 31 93 72 132 113c46 48 61 81 61 120c0 34 -24 61 -69 61c-40 0 -72 -12 -111 -43l10 72c27 20 68 30 110 30c84 0 126 -49 126 -110c0 -51 -18 -97 -74 -154z" />
    <glyph glyph-name="three.denominator" horiz-adv-x="346" 
d="M284 304c0 -40 -24 -75 -66 -91c54 -17 84 -47 84 -102c0 -75 -62 -121 -152 -121c-48 0 -83 6 -110 21l-3 64c33 -21 64 -29 111 -29c57 0 90 29 90 66c0 39 -32 66 -89 66c-32 0 -63 -4 -85 -10l13 63c13 -1 32 -2 50 -2c56 0 93 22 93 64c0 30 -25 53 -73 53
c-38 0 -64 -6 -90 -23l14 64c23 10 54 15 89 15c80 0 124 -43 124 -98z" />
    <glyph glyph-name="four.denominator" horiz-adv-x="360" 
d="M211 0v104h-205v33l194 255h70v-236h72v-52h-72v-104h-59zM71 156h140v182z" />
    <glyph glyph-name="five.denominator" horiz-adv-x="353" 
d="M305 392l-8 -53h-173l-10 -79c8 2 22 2 34 2c99 0 154 -55 154 -122c0 -97 -78 -154 -226 -154c-14 0 -23 0 -35 2l8 60c14 -3 28 -4 49 -4c92 0 141 37 141 91c0 43 -36 77 -109 77c-27 0 -53 -3 -77 -9l24 189h228z" />
    <glyph glyph-name="six.denominator" horiz-adv-x="354" 
d="M287 344c-108 -9 -171 -61 -192 -133c24 22 52 34 90 34c79 0 136 -47 136 -125c0 -71 -55 -130 -140 -130c-95 0 -148 61 -148 164c0 122 75 235 265 250zM178 200c-41 0 -69 -14 -92 -41v-8c0 -70 36 -107 99 -107c44 0 78 35 78 78c0 45 -36 78 -85 78z" />
    <glyph glyph-name="seven.denominator" horiz-adv-x="327" 
d="M86 0c39 123 91 243 136 336l-205 -4l24 60h264c-65 -145 -116 -271 -146 -392h-73z" />
    <glyph glyph-name="eight.denominator" horiz-adv-x="373" 
d="M332 104c0 -61 -51 -114 -148 -114c-92 0 -142 45 -142 111c0 46 27 80 79 99c-41 18 -67 49 -67 96c0 57 55 106 130 106c82 0 127 -47 127 -102c0 -40 -23 -69 -64 -90c55 -17 85 -56 85 -106zM269 106c0 39 -28 64 -95 77c-47 -13 -72 -45 -72 -79
c0 -33 31 -62 82 -62c57 0 85 29 85 64zM114 298c0 -38 20 -57 80 -75c35 14 58 35 58 71c0 31 -27 57 -68 57c-40 0 -70 -24 -70 -53z" />
    <glyph glyph-name="nine.denominator" horiz-adv-x="359" 
d="M116 -17l-39 49c92 35 146 76 170 130c-18 -11 -40 -17 -64 -17c-88 0 -149 47 -149 127c0 72 51 130 135 130c95 0 151 -61 151 -163c0 -115 -65 -201 -204 -256zM193 192c28 0 50 6 68 19c1 9 2 19 2 29c0 68 -34 109 -95 109c-46 0 -77 -35 -77 -79
c0 -46 42 -78 102 -78z" />
    <glyph glyph-name="zero.scprop" horiz-adv-x="553" 
d="M276 -15c-130 0 -220 96 -220 274c0 179 90 272 220 272c131 0 221 -93 221 -272c0 -178 -90 -274 -221 -274zM276 54c83 0 135 72 135 205c0 134 -52 203 -135 203c-82 0 -134 -69 -134 -203c0 -133 52 -205 134 -205z" />
    <glyph glyph-name="one.scprop" horiz-adv-x="318" 
d="M220 0h-84v442l-104 -4l11 80h177v-518z" />
    <glyph glyph-name="two.scprop" horiz-adv-x="492" 
d="M298 184c-30 -30 -84 -77 -126 -109h258l-8 -75h-365v64c55 41 123 99 177 151c65 65 85 106 85 155s-35 88 -99 88c-54 0 -103 -15 -153 -53l15 90c41 24 96 37 155 37c110 0 165 -68 165 -148c0 -67 -28 -125 -104 -200z" />
    <glyph glyph-name="three.scprop" horiz-adv-x="474" 
d="M384 399c0 -55 -31 -102 -89 -123c69 -23 107 -66 107 -135c0 -94 -78 -155 -192 -155c-63 0 -112 8 -147 27l-3 77c42 -24 81 -34 138 -34c77 0 121 39 121 91c0 51 -42 88 -119 88c-43 0 -82 -3 -112 -9l14 75c19 -3 45 -3 68 -3c79 0 131 30 131 87
c0 43 -34 76 -94 76c-54 0 -90 -9 -129 -34l17 83c34 14 78 21 128 21c104 0 161 -58 161 -132z" />
    <glyph glyph-name="four.scprop" horiz-adv-x="528" 
d="M310 0v134h-280v43l266 341h91v-316h85v-68h-85v-134h-77zM117 202h193v248z" />
    <glyph glyph-name="five.scprop" horiz-adv-x="463" 
d="M383 518l-10 -65h-203l-15 -119c10 1 27 2 42 2c130 0 198 -71 198 -160c0 -137 -110 -210 -316 -210c-9 0 -19 0 -27 1l10 75c14 -2 29 -3 50 -3c131 0 203 51 203 133c0 58 -50 103 -142 103c-36 0 -68 -3 -99 -8l30 251h279z" />
    <glyph glyph-name="six.scprop" horiz-adv-x="521" 
d="M405 475c-143 -10 -230 -83 -261 -181c34 27 75 42 127 42c110 0 186 -66 186 -171c0 -98 -79 -179 -197 -179c-135 0 -206 84 -206 219c0 172 116 334 363 348zM253 279c-50 0 -90 -17 -122 -46c-1 -10 -1 -20 -1 -30c0 -96 48 -150 131 -150c62 0 113 48 113 113
c0 66 -50 113 -121 113z" />
    <glyph glyph-name="seven.scprop" horiz-adv-x="439" 
d="M49 518h356c-80 -178 -152 -371 -181 -518h-93c42 155 115 329 174 447l-285 -4z" />
    <glyph glyph-name="eight.scprop" horiz-adv-x="519" 
d="M450 137c0 -83 -67 -150 -188 -150c-129 0 -193 60 -193 147c0 59 40 101 112 127c-58 26 -92 66 -92 130c0 78 73 140 173 140c106 0 168 -59 168 -136c0 -56 -31 -97 -90 -125c70 -26 110 -70 110 -133zM371 142c0 51 -34 79 -116 99c-71 -17 -109 -56 -109 -100
c0 -50 37 -87 116 -87c72 0 109 39 109 88zM166 387c0 -49 25 -74 104 -98c52 20 85 46 85 94s-37 83 -93 83s-96 -34 -96 -79z" />
    <glyph glyph-name="nine.scprop" horiz-adv-x="500" 
d="M182 -22l-57 59c110 46 180 104 213 176c-26 -17 -57 -26 -96 -26c-112 0 -190 64 -190 170c0 94 74 175 186 175c124 0 200 -79 200 -214c0 -154 -87 -266 -256 -340zM258 244c43 0 73 11 99 33c2 13 3 27 3 41c0 91 -44 144 -124 144c-60 0 -102 -43 -102 -105
c0 -67 51 -113 124 -113z" />
    <glyph glyph-name="zero.sctab" horiz-adv-x="479" 
d="M240 -15c-127 0 -215 95 -215 274s88 272 215 272c126 0 214 -93 214 -272s-88 -274 -214 -274zM240 54c79 0 129 71 129 205c0 133 -50 203 -129 203c-80 0 -130 -69 -130 -203s50 -205 130 -205z" />
    <glyph glyph-name="one.sctab" horiz-adv-x="479" 
d="M108 0v75h109v367l-104 -4l11 80h177v-443h106v-75h-299z" />
    <glyph glyph-name="two.sctab" horiz-adv-x="479" 
d="M292 184c-30 -30 -84 -77 -126 -109h258l-8 -75h-365v64c55 41 123 99 177 151c65 65 85 106 85 155s-35 88 -99 88c-54 0 -103 -15 -153 -53l15 90c41 24 96 37 155 37c110 0 165 -68 165 -148c0 -67 -28 -125 -104 -200z" />
    <glyph glyph-name="three.sctab" horiz-adv-x="479" 
d="M390 399c0 -55 -31 -102 -89 -123c69 -23 107 -66 107 -135c0 -94 -78 -155 -192 -155c-63 0 -112 8 -147 27l-3 77c42 -24 81 -34 138 -34c77 0 121 39 121 91c0 51 -42 88 -119 88c-43 0 -82 -3 -112 -9l14 75c19 -3 45 -3 68 -3c79 0 131 30 131 87
c0 43 -34 76 -94 76c-54 0 -90 -9 -129 -34l17 83c34 14 78 21 128 21c104 0 161 -58 161 -132z" />
    <glyph glyph-name="four.sctab" horiz-adv-x="479" 
d="M297 0v134h-280v43l266 341h91v-316h85v-68h-85v-134h-77zM104 202h193v248z" />
    <glyph glyph-name="five.sctab" horiz-adv-x="479" 
d="M399 518l-10 -65h-203l-15 -119c10 1 27 2 42 2c130 0 198 -71 198 -160c0 -137 -110 -210 -316 -210c-9 0 -19 0 -27 1l10 75c14 -2 29 -3 50 -3c131 0 203 51 203 133c0 58 -50 103 -142 103c-36 0 -68 -3 -99 -8l30 251h279z" />
    <glyph glyph-name="six.sctab" horiz-adv-x="479" 
d="M389 475c-143 -10 -230 -83 -261 -181c34 27 75 42 127 42c110 0 186 -66 186 -171c0 -98 -79 -179 -197 -179c-135 0 -206 84 -206 219c0 172 116 334 363 348zM237 279c-50 0 -90 -17 -122 -46c-1 -10 -1 -20 -1 -30c0 -96 48 -150 131 -150c62 0 113 48 113 113
c0 66 -50 113 -121 113z" />
    <glyph glyph-name="seven.sctab" horiz-adv-x="479" 
d="M63 518h362c-79 -178 -152 -371 -181 -518h-93c42 155 116 329 174 447l-291 -4z" />
    <glyph glyph-name="eight.sctab" horiz-adv-x="479" 
d="M430 137c0 -83 -67 -150 -188 -150c-129 0 -193 60 -193 147c0 59 40 101 112 127c-58 26 -92 66 -92 130c0 78 73 140 173 140c106 0 168 -59 168 -136c0 -56 -31 -97 -90 -125c70 -26 110 -70 110 -133zM351 142c0 51 -34 79 -116 99c-71 -17 -109 -56 -109 -100
c0 -50 37 -87 116 -87c72 0 109 39 109 88zM146 387c0 -49 25 -74 104 -98c52 20 85 46 85 94s-37 83 -93 83s-96 -34 -96 -79z" />
    <glyph glyph-name="nine.sctab" horiz-adv-x="479" 
d="M173 -22l-57 59c110 46 180 104 213 176c-26 -17 -57 -26 -96 -26c-112 0 -190 64 -190 170c0 94 74 175 186 175c124 0 200 -79 200 -214c0 -154 -87 -266 -256 -340zM249 244c43 0 73 11 99 33c2 13 3 27 3 41c0 91 -44 144 -124 144c-60 0 -102 -43 -102 -105
c0 -67 51 -113 124 -113z" />
    <glyph glyph-name="a.sc" horiz-adv-x="561" 
d="M468 0l-74 173h-222l-79 -173h-89l243 513l76 12l234 -525h-89zM287 429l-89 -192h172z" />
    <glyph glyph-name="b.sc" horiz-adv-x="514" 
d="M351 280c67 -19 107 -60 107 -133c0 -90 -75 -147 -193 -147h-172v518h174c110 0 165 -55 165 -126c0 -46 -29 -92 -81 -112zM177 241v-174h82c73 0 113 38 113 85c0 50 -39 89 -110 89h-85zM177 453v-152h85c56 0 88 39 88 81c0 39 -32 71 -91 71h-82z" />
    <glyph glyph-name="c.sc" horiz-adv-x="538" 
d="M492 132l-11 -102c-43 -28 -105 -43 -161 -43c-159 0 -274 107 -274 271c0 160 112 273 267 273c77 0 128 -15 172 -41l-12 -90h-3c-32 35 -85 53 -151 53c-113 0 -187 -80 -187 -195c0 -122 86 -193 197 -193c58 0 111 18 160 67h3z" />
    <glyph glyph-name="d.sc" horiz-adv-x="589" 
d="M253 0h-160v518h162c187 0 288 -103 288 -249c0 -175 -101 -269 -290 -269zM177 452v-384h72c134 0 208 68 208 199c0 103 -73 185 -206 185h-74z" />
    <glyph glyph-name="e.sc" horiz-adv-x="474" 
d="M177 444v-137h206v-74h-206v-159h237v-74h-321v518h311v-74h-227z" />
    <glyph glyph-name="f.sc" horiz-adv-x="440" 
d="M174 440v-149h208v-78h-208v-213h-81v518h320v-78h-239z" />
    <glyph glyph-name="g.sc" horiz-adv-x="577" 
d="M517 254v-186c-52 -52 -127 -81 -204 -81c-155 0 -267 107 -267 273c0 152 105 271 272 271c74 0 134 -19 181 -51l-16 -86h-3c-43 44 -101 63 -160 63c-118 0 -189 -85 -189 -198c0 -124 79 -199 189 -199c50 0 85 16 113 43v151h84z" />
    <glyph glyph-name="h.sc" horiz-adv-x="630" 
d="M177 0h-84v518h84v-207h276v207h83v-518h-83v236h-276v-236z" />
    <glyph glyph-name="i.sc" horiz-adv-x="270" 
d="M177 0h-84v518h84v-518z" />
    <glyph glyph-name="j.sc" horiz-adv-x="270" 
d="M95 518h84v-397c0 -151 -22 -229 -79 -286l-131 -36l-4 11c97 57 130 126 130 305v403z" />
    <glyph glyph-name="k.sc" horiz-adv-x="591" 
d="M177 0h-84v518h84v-243l261 243h116l-281 -250l311 -268h-120l-287 257v-257z" />
    <glyph glyph-name="l.sc" horiz-adv-x="465" 
d="M93 0v518h84v-443h278v-75h-362z" />
    <glyph glyph-name="m.sc" horiz-adv-x="780" 
d="M687 0h-75v387l-202 -387h-46l-196 384v-384h-75v518h88l207 -404l211 404h88v-518z" />
    <glyph glyph-name="n.sc" horiz-adv-x="681" 
d="M93 518h77l337 -397v397h80v-518h-73l-340 401v-401h-81v518z" />
    <glyph glyph-name="o.sc" horiz-adv-x="617" 
d="M486 256c0 118 -75 203 -178 203s-177 -85 -177 -203c0 -114 74 -198 177 -198c104 0 178 84 178 198zM571 256c0 -158 -108 -271 -263 -271s-262 113 -262 271c0 163 108 275 262 275c156 0 263 -112 263 -275z" />
    <glyph glyph-name="p.sc" horiz-adv-x="479" 
d="M177 0h-84v518h148c130 0 207 -54 207 -159c0 -116 -78 -174 -218 -174h-53v-185zM177 454v-201h57c82 0 128 35 128 106c0 62 -47 95 -132 95h-53z" />
    <glyph glyph-name="q.sc" horiz-adv-x="598" 
d="M299 -1c-20 0 -39 2 -57 7v-2c88 -43 158 -72 259 -76l-27 -78c-75 8 -140 30 -262 96c-27 15 -51 25 -75 34l35 56c-75 47 -126 134 -126 234c0 150 108 261 253 261c146 0 253 -111 253 -261c0 -157 -108 -271 -253 -271zM467 270c0 109 -70 189 -168 189
c-99 0 -168 -80 -168 -189c0 -111 74 -198 168 -198c99 0 168 82 168 198z" />
    <glyph glyph-name="r.sc" horiz-adv-x="531" 
d="M93 0v518h180c114 0 177 -50 177 -148c0 -77 -40 -125 -113 -149l185 -221h-107l-159 206c-17 -2 -34 -2 -52 -2h-27v-204h-84zM177 453v-191h23c108 0 166 28 166 104c0 56 -39 87 -109 87h-80z" />
    <glyph glyph-name="s.sc" horiz-adv-x="457" 
d="M54 115c50 -39 101 -56 167 -56c65 0 102 30 102 76c0 44 -29 70 -110 98c-107 36 -151 80 -151 159s65 139 167 139c54 0 101 -9 143 -28v-88c-45 32 -98 48 -140 48c-62 0 -90 -30 -90 -68c0 -40 24 -62 105 -91c113 -41 156 -88 156 -165c0 -101 -80 -152 -190 -152
c-60 0 -116 11 -150 30z" />
    <glyph glyph-name="t.sc" horiz-adv-x="495" 
d="M290 0h-84v443h-194v75h472v-75h-194v-443z" />
    <glyph glyph-name="u.sc" horiz-adv-x="605" 
d="M87 518h84v-315c0 -98 59 -141 131 -141s132 43 132 141v315h84v-315c0 -152 -98 -218 -216 -218c-117 0 -215 66 -215 218v315z" />
    <glyph glyph-name="v.sc" horiz-adv-x="561" 
d="M9 518h92l175 -418l185 418h92l-243 -518h-70z" />
    <glyph glyph-name="w.sc" horiz-adv-x="792" 
d="M497 0l-103 264l-109 -264h-69l-207 518h90l154 -410l103 253l-60 157h88l149 -411l162 411h88l-216 -518h-70z" />
    <glyph glyph-name="x.sc" horiz-adv-x="596" 
d="M5 0l238 276l-197 242h104l143 -187l149 187h104l-204 -242l234 -276h-104l-180 222l-183 -222h-104z" />
    <glyph glyph-name="y.sc" horiz-adv-x="548" 
d="M544 518l-235 -299v-219h-83v221l-222 297h100l164 -230l174 230h102z" />
    <glyph glyph-name="z.sc" horiz-adv-x="548" 
d="M510 0h-496l351 441h-319l8 77h463l-353 -441h359z" />
    <glyph glyph-name="agrave.sc" horiz-adv-x="561" 
d="M468 0l-74 173h-222l-79 -173h-89l243 513l76 12l234 -525h-89zM287 429l-89 -192h172zM296 610l-134 162h97l80 -162h-43z" />
    <glyph glyph-name="aacute.sc" horiz-adv-x="561" 
d="M468 0l-74 173h-222l-79 -173h-89l243 513l76 12l234 -525h-89zM287 429l-89 -192h172zM413 772l-134 -162h-43l80 162h97z" />
    <glyph glyph-name="acircumflex.sc" horiz-adv-x="561" 
d="M468 0l-74 173h-222l-79 -173h-89l243 513l76 12l234 -525h-89zM287 429l-89 -192h172zM372 610l-85 93l-83 -93h-48l105 162h54l105 -162h-48z" />
    <glyph glyph-name="atilde.sc" horiz-adv-x="561" 
d="M468 0l-74 173h-222l-79 -173h-89l243 513l76 12l234 -525h-89zM287 429l-89 -192h172zM231 672c-28 0 -48 -23 -51 -53l-35 7c7 74 44 117 90 117c43 0 89 -34 122 -34c29 0 47 23 51 54l35 -8c-8 -74 -44 -117 -90 -117c-43 0 -89 34 -122 34z" />
    <glyph glyph-name="adieresis.sc" horiz-adv-x="561" 
d="M468 0l-74 173h-222l-79 -173h-89l243 513l76 12l234 -525h-89zM287 429l-89 -192h172zM196 737c29 0 50 -20 50 -50c0 -29 -20 -49 -49 -49c-31 0 -50 19 -50 49s19 50 49 50zM378 737c30 0 50 -20 50 -50c0 -29 -20 -49 -49 -49c-31 0 -50 19 -50 49s20 50 49 50z" />
    <glyph glyph-name="amacron.sc" horiz-adv-x="561" 
d="M468 0l-74 173h-222l-79 -173h-89l243 513l76 12l234 -525h-89zM287 429l-89 -192h172zM421 719v-64h-267v64h267z" />
    <glyph glyph-name="abreve.sc" horiz-adv-x="561" 
d="M468 0l-74 173h-222l-79 -173h-89l243 513l76 12l234 -525h-89zM287 429l-89 -192h172zM288 679c57 0 80 33 80 86h43c0 -80 -32 -148 -123 -148c-94 0 -124 68 -124 148h43c0 -53 23 -86 81 -86z" />
    <glyph glyph-name="aring.sc" horiz-adv-x="561" 
d="M468 0l-74 173h-222l-79 -173h-89l243 513l76 12l234 -525h-89zM287 429l-89 -192h172zM188 696c0 55 45 100 99 100c55 0 100 -45 100 -100c0 -54 -45 -99 -100 -99c-54 0 -99 45 -99 99zM231 696c0 -31 25 -56 56 -56c32 0 57 25 57 56c0 32 -25 57 -57 57
c-31 0 -56 -25 -56 -57z" />
    <glyph glyph-name="aogonek.sc" horiz-adv-x="561" 
d="M369 -150c0 46 23 82 99 150l-74 173h-222l-79 -173h-89l243 513l76 12l234 -525c-97 -60 -116 -99 -116 -139c0 -21 14 -37 40 -37c21 0 45 8 63 29h3l-6 -71c-20 -13 -45 -19 -75 -19c-60 0 -97 31 -97 87zM287 429l-89 -192h172z" />
    <glyph glyph-name="ae.sc" horiz-adv-x="721" 
d="M424 450v-146h206v-68h-206v-168h237v-68h-320v168h-174l-97 -168h-91l302 518h370v-68h-227zM330 450l-127 -219h138v219h-11z" />
    <glyph glyph-name="cacute.sc" horiz-adv-x="538" 
d="M492 132l-11 -102c-43 -28 -105 -43 -161 -43c-159 0 -274 107 -274 271c0 160 112 273 267 273c77 0 128 -15 172 -41l-12 -90h-3c-32 35 -85 53 -151 53c-113 0 -187 -80 -187 -195c0 -122 86 -193 197 -193c58 0 111 18 160 67h3zM424 772l-134 -162h-43l80 162h97z
" />
    <glyph glyph-name="ccircumflex.sc" horiz-adv-x="538" 
d="M492 132l-11 -102c-43 -28 -105 -43 -161 -43c-159 0 -274 107 -274 271c0 160 112 273 267 273c77 0 128 -15 172 -41l-12 -90h-3c-32 35 -85 53 -151 53c-113 0 -187 -80 -187 -195c0 -122 86 -193 197 -193c58 0 111 18 160 67h3zM383 610l-85 93l-83 -93h-48l105 162
h54l105 -162h-48z" />
    <glyph glyph-name="ccaron.sc" horiz-adv-x="538" 
d="M492 132l-11 -102c-43 -28 -105 -43 -161 -43c-159 0 -274 107 -274 271c0 160 112 273 267 273c77 0 128 -15 172 -41l-12 -90h-3c-32 35 -85 53 -151 53c-113 0 -187 -80 -187 -195c0 -122 86 -193 197 -193c58 0 111 18 160 67h3zM167 772h48l84 -94l84 94h48
l-105 -162h-54z" />
    <glyph glyph-name="ccedilla.sc" horiz-adv-x="538" 
d="M492 132l-11 -102c-41 -27 -99 -41 -153 -43l-23 -45c5 1 14 2 22 2c52 0 85 -30 85 -75c0 -52 -47 -90 -112 -90c-33 0 -62 8 -81 23l5 53c16 -20 43 -28 71 -28c39 0 56 18 56 39c0 24 -20 39 -56 39c-18 0 -33 -2 -45 -5l-2 2l40 87c-142 12 -242 116 -242 269
c0 160 112 273 267 273c77 0 128 -15 172 -41l-12 -90h-3c-32 35 -85 53 -151 53c-113 0 -187 -80 -187 -195c0 -122 86 -193 197 -193c58 0 111 18 160 67h3z" />
    <glyph glyph-name="cdotaccent.sc" horiz-adv-x="538" 
d="M492 132l-11 -102c-43 -28 -105 -43 -161 -43c-159 0 -274 107 -274 271c0 160 112 273 267 273c77 0 128 -15 172 -41l-12 -90h-3c-32 35 -85 53 -151 53c-113 0 -187 -80 -187 -195c0 -122 86 -193 197 -193c58 0 111 18 160 67h3zM298 744c33 0 55 -22 55 -54
s-22 -54 -54 -54c-33 0 -54 21 -54 54c0 32 21 54 53 54z" />
    <glyph glyph-name="dcaron.sc" horiz-adv-x="589" 
d="M253 0h-160v518h162c187 0 288 -103 288 -249c0 -175 -101 -269 -290 -269zM177 452v-384h72c134 0 208 68 208 199c0 103 -73 185 -206 185h-74zM138 772h48l84 -94l84 94h48l-105 -162h-54z" />
    <glyph glyph-name="dcroat.sc" horiz-adv-x="589" 
d="M253 0h-160v238h-66v57h66v223h162c187 0 288 -103 288 -249c0 -175 -101 -269 -290 -269zM177 452v-157h114v-57h-114v-170h72c134 0 208 68 208 199c0 103 -73 185 -206 185h-74z" />
    <glyph glyph-name="eth.sc" horiz-adv-x="589" 
d="M253 0h-160v238h-66v57h66v223h162c187 0 288 -103 288 -249c0 -175 -101 -269 -290 -269zM177 452v-157h114v-57h-114v-170h72c134 0 208 68 208 199c0 103 -73 185 -206 185h-74z" />
    <glyph glyph-name="egrave.sc" horiz-adv-x="474" 
d="M177 444v-137h206v-74h-206v-159h237v-74h-321v518h311v-74h-227zM258 610l-134 162h97l80 -162h-43z" />
    <glyph glyph-name="eacute.sc" horiz-adv-x="474" 
d="M177 444v-137h206v-74h-206v-159h237v-74h-321v518h311v-74h-227zM375 772l-134 -162h-43l80 162h97z" />
    <glyph glyph-name="ecircumflex.sc" horiz-adv-x="474" 
d="M177 444v-137h206v-74h-206v-159h237v-74h-321v518h311v-74h-227zM334 610l-85 93l-83 -93h-48l105 162h54l105 -162h-48z" />
    <glyph glyph-name="edieresis.sc" horiz-adv-x="474" 
d="M177 444v-137h206v-74h-206v-159h237v-74h-321v518h311v-74h-227zM158 737c29 0 50 -20 50 -50c0 -29 -20 -49 -49 -49c-31 0 -50 19 -50 49s19 50 49 50zM340 737c30 0 50 -20 50 -50c0 -29 -20 -49 -49 -49c-31 0 -50 19 -50 49s20 50 49 50z" />
    <glyph glyph-name="emacron.sc" horiz-adv-x="474" 
d="M177 444v-137h206v-74h-206v-159h237v-74h-321v518h311v-74h-227zM383 719v-64h-267v64h267z" />
    <glyph glyph-name="ebreve.sc" horiz-adv-x="474" 
d="M177 444v-137h206v-74h-206v-159h237v-74h-321v518h311v-74h-227zM250 679c57 0 80 33 80 86h43c0 -80 -32 -148 -123 -148c-94 0 -124 68 -124 148h43c0 -53 23 -86 81 -86z" />
    <glyph glyph-name="edotaccent.sc" horiz-adv-x="474" 
d="M177 444v-137h206v-74h-206v-159h237v-74h-321v518h311v-74h-227zM248 744c33 0 55 -22 55 -54s-22 -54 -54 -54c-33 0 -54 21 -54 54c0 32 21 54 53 54z" />
    <glyph glyph-name="ecaron.sc" horiz-adv-x="474" 
d="M177 444v-137h206v-74h-206v-159h237v-74h-321v518h311v-74h-227zM118 772h48l84 -94l84 94h48l-105 -162h-54z" />
    <glyph glyph-name="eogonek.sc" horiz-adv-x="474" 
d="M332 0h-239v518h311v-74h-227v-137h206v-74h-206v-159h237v-74c-90 -63 -108 -99 -108 -139c0 -21 13 -37 39 -37c22 0 45 8 64 29h3l-6 -71c-21 -13 -46 -19 -76 -19c-59 0 -97 31 -97 87c0 46 24 82 99 150z" />
    <glyph glyph-name="gcircumflex.sc" horiz-adv-x="577" 
d="M517 254v-186c-52 -52 -127 -81 -204 -81c-155 0 -267 107 -267 273c0 152 105 271 272 271c74 0 134 -19 181 -51l-16 -86h-3c-43 44 -101 63 -160 63c-118 0 -189 -85 -189 -198c0 -124 79 -199 189 -199c50 0 85 16 113 43v151h84zM388 610l-85 93l-83 -93h-48
l105 162h54l105 -162h-48z" />
    <glyph glyph-name="gbreve.sc" horiz-adv-x="577" 
d="M517 254v-186c-52 -52 -127 -81 -204 -81c-155 0 -267 107 -267 273c0 152 105 271 272 271c74 0 134 -19 181 -51l-16 -86h-3c-43 44 -101 63 -160 63c-118 0 -189 -85 -189 -198c0 -124 79 -199 189 -199c50 0 85 16 113 43v151h84zM304 679c57 0 80 33 80 86h43
c0 -80 -32 -148 -123 -148c-94 0 -124 68 -124 148h43c0 -53 23 -86 81 -86z" />
    <glyph glyph-name="gdotaccent.sc" horiz-adv-x="577" 
d="M517 254v-186c-52 -52 -127 -81 -204 -81c-155 0 -267 107 -267 273c0 152 105 271 272 271c74 0 134 -19 181 -51l-16 -86h-3c-43 44 -101 63 -160 63c-118 0 -189 -85 -189 -198c0 -124 79 -199 189 -199c50 0 85 16 113 43v151h84zM302 744c33 0 55 -22 55 -54
s-22 -54 -54 -54c-33 0 -54 21 -54 54c0 32 21 54 53 54z" />
    <glyph glyph-name="gcommaaccent.sc" horiz-adv-x="577" 
d="M517 254v-186c-52 -52 -127 -81 -204 -81c-155 0 -267 107 -267 273c0 152 105 271 272 271c74 0 134 -19 181 -51l-16 -86h-3c-43 44 -101 63 -160 63c-118 0 -189 -85 -189 -198c0 -124 79 -199 189 -199c50 0 85 16 113 43v151h84zM348 -63c9 -16 13 -34 13 -54
c0 -34 -17 -67 -83 -120h-49c48 54 62 85 62 117c0 13 -6 28 -13 40z" />
    <glyph glyph-name="hcircumflex.sc" horiz-adv-x="630" 
d="M177 0h-84v518h84v-207h276v207h83v-518h-83v236h-276v-236zM399 610l-85 93l-83 -93h-48l105 162h54l105 -162h-48z" />
    <glyph glyph-name="hbar.sc" horiz-adv-x="630" 
d="M177 0h-84v381h-66v56h66v81h84v-81h276v81h83v-81h67v-56h-67v-381h-83v236h-276v-236zM177 311h276v70h-276v-70z" />
    <glyph glyph-name="igrave.sc" horiz-adv-x="270" 
d="M177 0h-84v518h84v-518zM143 610l-134 162h97l80 -162h-43z" />
    <glyph glyph-name="iacute.sc" horiz-adv-x="270" 
d="M177 0h-84v518h84v-518zM260 772l-134 -162h-43l80 162h97z" />
    <glyph glyph-name="icircumflex.sc" horiz-adv-x="270" 
d="M177 0h-84v518h84v-518zM219 610l-85 93l-83 -93h-48l105 162h54l105 -162h-48z" />
    <glyph glyph-name="itilde.sc" horiz-adv-x="270" 
d="M88 666c-28 0 -48 -23 -51 -53l-35 7c7 74 44 117 90 117c35 0 75 -34 102 -34c29 0 47 23 51 54l35 -8c-8 -74 -44 -117 -90 -117c-36 0 -75 34 -102 34zM177 0h-84v518h84v-518z" />
    <glyph glyph-name="idieresis.sc" horiz-adv-x="270" 
d="M53 731c30 0 50 -20 50 -50c0 -29 -20 -49 -49 -49c-30 0 -50 19 -50 49s20 50 49 50zM215 731c30 0 50 -20 50 -50c0 -29 -20 -49 -49 -49c-30 0 -49 19 -49 49s19 50 48 50zM177 0h-84v518h84v-518z" />
    <glyph glyph-name="imacron.sc" horiz-adv-x="270" 
d="M251 713v-64h-233v64h233zM177 0h-84v518h84v-518z" />
    <glyph glyph-name="ibreve.sc" horiz-adv-x="270" 
d="M177 0h-84v518h84v-518zM135 679c57 0 80 33 80 86h43c0 -80 -32 -148 -123 -148c-94 0 -124 68 -124 148h43c0 -53 23 -86 81 -86z" />
    <glyph glyph-name="idotaccent.sc" horiz-adv-x="270" 
d="M177 0h-84v518h84v-518zM134 744c33 0 55 -22 55 -54s-22 -54 -54 -54c-33 0 -54 21 -54 54c0 32 21 54 53 54z" />
    <glyph glyph-name="iogonek.sc" horiz-adv-x="270" 
d="M177 0c-67 -55 -83 -94 -83 -139c0 -21 13 -37 36 -37c26 0 48 8 66 28h3l-5 -70c-21 -13 -46 -19 -76 -19c-59 0 -97 31 -97 87c0 46 18 82 72 150v518h84v-518z" />
    <glyph glyph-name="ij.sc" horiz-adv-x="514" 
d="M177 0h-84v518h84v-518zM338 518h84v-397c0 -151 -22 -229 -79 -286l-131 -36l-4 11c97 57 130 126 130 305v403z" />
    <glyph glyph-name="jcircumflex.sc" horiz-adv-x="262" 
d="M90 518h84v-397c0 -151 -22 -229 -79 -286l-131 -36l-4 11c97 57 130 126 130 305v403zM216 610l-85 93l-83 -93h-48l105 162h54l105 -162h-48z" />
    <glyph glyph-name="kcommaaccent.sc" horiz-adv-x="591" 
d="M177 0h-84v518h84v-243l261 243h116l-281 -250l311 -268h-120l-287 257v-257zM337 -63c9 -16 13 -34 13 -54c0 -34 -17 -67 -83 -120h-49c48 54 62 85 62 117c0 13 -6 28 -13 40z" />
    <glyph glyph-name="lacute.sc" horiz-adv-x="465" 
d="M93 0v518h84v-443h278v-75h-362zM293 772l-134 -162h-43l80 162h97z" />
    <glyph glyph-name="lcaron.sc" horiz-adv-x="465" 
d="M93 0v518h84v-443h278v-75h-362zM338 527c9 -19 13 -37 13 -61c0 -35 -18 -76 -69 -133h-39c31 60 40 92 40 127c0 16 -5 35 -12 50z" />
    <glyph glyph-name="lcommaaccent.sc" horiz-adv-x="465" 
d="M93 0v518h84v-443h278v-75h-362zM307 -63c9 -16 13 -34 13 -54c0 -34 -17 -67 -83 -120h-49c48 54 62 85 62 117c0 13 -6 28 -13 40z" />
    <glyph glyph-name="ldot.sc" horiz-adv-x="465" 
d="M93 0v518h84v-443h278v-75h-362zM364 380c33 0 55 -22 55 -54s-22 -54 -54 -54c-33 0 -54 21 -54 54c0 32 21 54 53 54z" />
    <glyph glyph-name="lslash.sc" horiz-adv-x="465" 
d="M93 0v200l-66 -43v75l66 43v243h84v-187l122 80v-74l-122 -81v-181h278v-75h-362z" />
    <glyph glyph-name="nacute.sc" horiz-adv-x="681" 
d="M93 518h77l337 -397v397h80v-518h-73l-340 401v-401h-81v518zM466 772l-134 -162h-43l80 162h97z" />
    <glyph glyph-name="ncaron.sc" horiz-adv-x="681" 
d="M93 518h77l337 -397v397h80v-518h-73l-340 401v-401h-81v518zM209 772h48l84 -94l84 94h48l-105 -162h-54z" />
    <glyph glyph-name="ntilde.sc" horiz-adv-x="681" 
d="M93 518h77l337 -397v397h80v-518h-73l-340 401v-401h-81v518zM284 672c-28 0 -48 -23 -51 -53l-35 7c7 74 44 117 90 117c43 0 89 -34 122 -34c29 0 47 23 51 54l35 -8c-8 -74 -44 -117 -90 -117c-43 0 -89 34 -122 34z" />
    <glyph glyph-name="ncommaaccent.sc" horiz-adv-x="681" 
d="M93 518h77l337 -397v397h80v-518h-73l-340 401v-401h-81v518zM375 -63c9 -16 13 -34 13 -54c0 -34 -17 -67 -83 -120h-49c48 54 62 85 62 117c0 13 -6 28 -13 40z" />
    <glyph glyph-name="eng.sc" horiz-adv-x="681" 
d="M587 518v-580c0 -109 -54 -175 -148 -175c-29 0 -52 6 -74 17l-8 79c19 -18 38 -25 71 -25c48 0 79 37 79 109v64l-333 397v-404h-81v518h77l337 -401v401h80z" />
    <glyph glyph-name="ograve.sc" horiz-adv-x="617" 
d="M486 256c0 118 -75 203 -178 203s-177 -85 -177 -203c0 -114 74 -198 177 -198c104 0 178 84 178 198zM571 256c0 -158 -108 -271 -263 -271s-262 113 -262 271c0 163 108 275 262 275c156 0 263 -112 263 -275zM317 610l-134 162h97l80 -162h-43z" />
    <glyph glyph-name="oacute.sc" horiz-adv-x="617" 
d="M486 256c0 118 -75 203 -178 203s-177 -85 -177 -203c0 -114 74 -198 177 -198c104 0 178 84 178 198zM571 256c0 -158 -108 -271 -263 -271s-262 113 -262 271c0 163 108 275 262 275c156 0 263 -112 263 -275zM434 772l-134 -162h-43l80 162h97z" />
    <glyph glyph-name="ocircumflex.sc" horiz-adv-x="617" 
d="M486 256c0 118 -75 203 -178 203s-177 -85 -177 -203c0 -114 74 -198 177 -198c104 0 178 84 178 198zM571 256c0 -158 -108 -271 -263 -271s-262 113 -262 271c0 163 108 275 262 275c156 0 263 -112 263 -275zM393 610l-85 93l-83 -93h-48l105 162h54l105 -162h-48z
" />
    <glyph glyph-name="otilde.sc" horiz-adv-x="617" 
d="M486 256c0 118 -75 203 -178 203s-177 -85 -177 -203c0 -114 74 -198 177 -198c104 0 178 84 178 198zM571 256c0 -158 -108 -271 -263 -271s-262 113 -262 271c0 163 108 275 262 275c156 0 263 -112 263 -275zM252 672c-28 0 -48 -23 -51 -53l-35 7c7 74 44 117 90 117
c43 0 89 -34 122 -34c29 0 47 23 51 54l35 -8c-8 -74 -44 -117 -90 -117c-43 0 -89 34 -122 34z" />
    <glyph glyph-name="odieresis.sc" horiz-adv-x="617" 
d="M486 256c0 118 -75 203 -178 203s-177 -85 -177 -203c0 -114 74 -198 177 -198c104 0 178 84 178 198zM571 256c0 -158 -108 -271 -263 -271s-262 113 -262 271c0 163 108 275 262 275c156 0 263 -112 263 -275zM217 737c29 0 50 -20 50 -50c0 -29 -20 -49 -49 -49
c-31 0 -50 19 -50 49s19 50 49 50zM399 737c30 0 50 -20 50 -50c0 -29 -20 -49 -49 -49c-31 0 -50 19 -50 49s20 50 49 50z" />
    <glyph glyph-name="omacron.sc" horiz-adv-x="617" 
d="M486 256c0 118 -75 203 -178 203s-177 -85 -177 -203c0 -114 74 -198 177 -198c104 0 178 84 178 198zM571 256c0 -158 -108 -271 -263 -271s-262 113 -262 271c0 163 108 275 262 275c156 0 263 -112 263 -275zM442 719v-64h-267v64h267z" />
    <glyph glyph-name="obreve.sc" horiz-adv-x="617" 
d="M486 256c0 118 -75 203 -178 203s-177 -85 -177 -203c0 -114 74 -198 177 -198c104 0 178 84 178 198zM571 256c0 -158 -108 -271 -263 -271s-262 113 -262 271c0 163 108 275 262 275c156 0 263 -112 263 -275zM309 679c57 0 80 33 80 86h43c0 -80 -32 -148 -123 -148
c-94 0 -124 68 -124 148h43c0 -53 23 -86 81 -86z" />
    <glyph glyph-name="ohungarumlaut.sc" horiz-adv-x="617" 
d="M486 256c0 118 -75 203 -178 203s-177 -85 -177 -203c0 -114 74 -198 177 -198c104 0 178 84 178 198zM571 256c0 -158 -108 -271 -263 -271s-262 113 -262 271c0 163 108 275 262 275c156 0 263 -112 263 -275zM275 772h92l-116 -162h-41zM404 772h92l-116 -162h-41z
" />
    <glyph glyph-name="oslash.sc" horiz-adv-x="617" 
d="M571 256c0 -158 -108 -271 -263 -271c-53 0 -100 13 -139 36l-22 -27l-57 17l34 44c-49 49 -78 119 -78 201c0 163 108 275 262 275c55 0 104 -14 145 -40l28 37l57 -18l-42 -54c47 -48 75 -118 75 -200zM131 256c0 -54 16 -101 44 -135l232 307c-28 20 -62 31 -99 31
c-103 0 -177 -85 -177 -203zM486 256c0 53 -15 99 -41 134l-230 -305c26 -18 58 -27 93 -27c104 0 178 84 178 198z" />
    <glyph glyph-name="oe.sc" horiz-adv-x="757" 
d="M460 450v-146h206v-68h-206v-168h237v-68h-378c-160 0 -273 106 -273 259s114 259 273 259h368v-68h-227zM132 259c0 -113 80 -191 197 -191h47v382h-47c-118 0 -197 -77 -197 -191z" />
    <glyph glyph-name="racute.sc" horiz-adv-x="531" 
d="M93 0v518h180c114 0 177 -50 177 -148c0 -77 -40 -125 -113 -149l185 -221h-107l-159 206c-17 -2 -34 -2 -52 -2h-27v-204h-84zM177 453v-191h23c108 0 166 28 166 104c0 56 -39 87 -109 87h-80zM386 772l-134 -162h-43l80 162h97z" />
    <glyph glyph-name="rcaron.sc" horiz-adv-x="531" 
d="M93 0v518h180c114 0 177 -50 177 -148c0 -77 -40 -125 -113 -149l185 -221h-107l-159 206c-17 -2 -34 -2 -52 -2h-27v-204h-84zM177 453v-191h23c108 0 166 28 166 104c0 56 -39 87 -109 87h-80zM128 772h48l84 -94l84 94h48l-105 -162h-54z" />
    <glyph glyph-name="rcommaaccent.sc" horiz-adv-x="531" 
d="M93 0v518h180c114 0 177 -50 177 -148c0 -77 -40 -125 -113 -149l185 -221h-107l-159 206c-17 -2 -34 -2 -52 -2h-27v-204h-84zM177 453v-191h23c108 0 166 28 166 104c0 56 -39 87 -109 87h-80zM311 -63c9 -16 13 -34 13 -54c0 -34 -17 -67 -83 -120h-49
c48 54 62 85 62 117c0 13 -6 28 -13 40z" />
    <glyph glyph-name="sacute.sc" horiz-adv-x="457" 
d="M54 115c50 -39 101 -56 167 -56c65 0 102 30 102 76c0 44 -29 70 -110 98c-107 36 -151 80 -151 159s65 139 167 139c54 0 101 -9 143 -28v-88c-45 32 -98 48 -140 48c-62 0 -90 -30 -90 -68c0 -40 24 -62 105 -91c113 -41 156 -88 156 -165c0 -101 -80 -152 -190 -152
c-60 0 -116 11 -150 30zM355 772l-134 -162h-43l80 162h97z" />
    <glyph glyph-name="scaron.sc" horiz-adv-x="457" 
d="M54 115c50 -39 101 -56 167 -56c65 0 102 30 102 76c0 44 -29 70 -110 98c-107 36 -151 80 -151 159s65 139 167 139c54 0 101 -9 143 -28v-88c-45 32 -98 48 -140 48c-62 0 -90 -30 -90 -68c0 -40 24 -62 105 -91c113 -41 156 -88 156 -165c0 -101 -80 -152 -190 -152
c-60 0 -116 11 -150 30zM98 772h48l84 -94l84 94h48l-105 -162h-54z" />
    <glyph glyph-name="scircumflex.sc" horiz-adv-x="457" 
d="M54 115c50 -39 101 -56 167 -56c65 0 102 30 102 76c0 44 -29 70 -110 98c-107 36 -151 80 -151 159s65 139 167 139c54 0 101 -9 143 -28v-88c-45 32 -98 48 -140 48c-62 0 -90 -30 -90 -68c0 -40 24 -62 105 -91c113 -41 156 -88 156 -165c0 -101 -80 -152 -190 -152
c-60 0 -116 11 -150 30zM314 610l-85 93l-83 -93h-48l105 162h54l105 -162h-48z" />
    <glyph glyph-name="scedilla.sc" horiz-adv-x="457" 
d="M54 115c50 -39 101 -56 167 -56c65 0 102 30 102 76c0 44 -29 70 -110 98c-107 36 -151 80 -151 159s65 139 167 139c54 0 101 -9 143 -28v-88c-45 32 -98 48 -140 48c-62 0 -90 -30 -90 -68c0 -40 24 -62 105 -91c113 -41 156 -88 156 -165c0 -92 -66 -142 -160 -150
l-24 -47c5 1 14 2 22 2c52 0 85 -30 85 -75c0 -52 -47 -90 -112 -90c-33 0 -62 8 -81 23l5 53c16 -20 43 -28 71 -28c39 0 56 18 56 39c0 24 -20 39 -56 39c-18 0 -33 -2 -45 -5l-2 2l39 85c-55 2 -106 12 -138 30z" />
    <glyph glyph-name="uni0219.sc" horiz-adv-x="457" 
d="M54 115c50 -39 101 -56 167 -56c65 0 102 30 102 76c0 44 -29 70 -110 98c-107 36 -151 80 -151 159s65 139 167 139c54 0 101 -9 143 -28v-88c-45 32 -98 48 -140 48c-62 0 -90 -30 -90 -68c0 -40 24 -62 105 -91c113 -41 156 -88 156 -165c0 -101 -80 -152 -190 -152
c-60 0 -116 11 -150 30zM264 -63c9 -16 13 -34 13 -54c0 -34 -17 -67 -83 -120h-49c48 54 62 85 62 117c0 13 -6 28 -13 40z" />
    <glyph glyph-name="tcaron.sc" horiz-adv-x="495" 
d="M290 0h-84v443h-194v75h472v-75h-194v-443zM116 772h48l84 -94l84 94h48l-105 -162h-54z" />
    <glyph glyph-name="uni0163.sc" horiz-adv-x="495" 
d="M290 0h-84v443h-194v75h472v-75h-194v-443zM284 -63c9 -16 13 -34 13 -54c0 -34 -17 -67 -83 -120h-49c48 54 62 85 62 117c0 13 -6 28 -13 40z" />
    <glyph glyph-name="uni021B.sc" horiz-adv-x="495" 
d="M290 0h-84v443h-194v75h472v-75h-194v-443zM284 -63c9 -16 13 -34 13 -54c0 -34 -17 -67 -83 -120h-49c48 54 62 85 62 117c0 13 -6 28 -13 40z" />
    <glyph glyph-name="tbar.sc" horiz-adv-x="495" 
d="M290 0h-84v226h-94v56h94v161h-194v75h472v-75h-194v-161h93v-56h-93v-226z" />
    <glyph glyph-name="ugrave.sc" horiz-adv-x="605" 
d="M87 518h84v-315c0 -98 59 -141 131 -141s132 43 132 141v315h84v-315c0 -152 -98 -218 -216 -218c-117 0 -215 66 -215 218v315zM311 610l-134 162h97l80 -162h-43z" />
    <glyph glyph-name="uacute.sc" horiz-adv-x="605" 
d="M87 518h84v-315c0 -98 59 -141 131 -141s132 43 132 141v315h84v-315c0 -152 -98 -218 -216 -218c-117 0 -215 66 -215 218v315zM428 772l-134 -162h-43l80 162h97z" />
    <glyph glyph-name="ucircumflex.sc" horiz-adv-x="605" 
d="M87 518h84v-315c0 -98 59 -141 131 -141s132 43 132 141v315h84v-315c0 -152 -98 -218 -216 -218c-117 0 -215 66 -215 218v315zM387 610l-85 93l-83 -93h-48l105 162h54l105 -162h-48z" />
    <glyph glyph-name="utilde.sc" horiz-adv-x="605" 
d="M87 518h84v-315c0 -98 59 -141 131 -141s132 43 132 141v315h84v-315c0 -152 -98 -218 -216 -218c-117 0 -215 66 -215 218v315zM246 672c-28 0 -48 -23 -51 -53l-35 7c7 74 44 117 90 117c43 0 89 -34 122 -34c29 0 47 23 51 54l35 -8c-8 -74 -44 -117 -90 -117
c-43 0 -89 34 -122 34z" />
    <glyph glyph-name="udieresis.sc" horiz-adv-x="605" 
d="M87 518h84v-315c0 -98 59 -141 131 -141s132 43 132 141v315h84v-315c0 -152 -98 -218 -216 -218c-117 0 -215 66 -215 218v315zM211 737c29 0 50 -20 50 -50c0 -29 -20 -49 -49 -49c-31 0 -50 19 -50 49s19 50 49 50zM393 737c30 0 50 -20 50 -50c0 -29 -20 -49 -49 -49
c-31 0 -50 19 -50 49s20 50 49 50z" />
    <glyph glyph-name="umacron.sc" horiz-adv-x="605" 
d="M87 518h84v-315c0 -98 59 -141 131 -141s132 43 132 141v315h84v-315c0 -152 -98 -218 -216 -218c-117 0 -215 66 -215 218v315zM436 719v-64h-267v64h267z" />
    <glyph glyph-name="ubreve.sc" horiz-adv-x="605" 
d="M87 518h84v-315c0 -98 59 -141 131 -141s132 43 132 141v315h84v-315c0 -152 -98 -218 -216 -218c-117 0 -215 66 -215 218v315zM303 679c57 0 80 33 80 86h43c0 -80 -32 -148 -123 -148c-94 0 -124 68 -124 148h43c0 -53 23 -86 81 -86z" />
    <glyph glyph-name="uring.sc" horiz-adv-x="605" 
d="M87 518h84v-315c0 -98 59 -141 131 -141s132 43 132 141v315h84v-315c0 -152 -98 -218 -216 -218c-117 0 -215 66 -215 218v315zM203 696c0 55 45 100 99 100c55 0 100 -45 100 -100c0 -54 -45 -99 -100 -99c-54 0 -99 45 -99 99zM246 696c0 -31 25 -56 56 -56
c32 0 57 25 57 56c0 32 -25 57 -57 57c-31 0 -56 -25 -56 -57z" />
    <glyph glyph-name="uhungarumlaut.sc" horiz-adv-x="605" 
d="M87 518h84v-315c0 -98 59 -141 131 -141s132 43 132 141v315h84v-315c0 -152 -98 -218 -216 -218c-117 0 -215 66 -215 218v315zM269 772h92l-116 -162h-41zM398 772h92l-116 -162h-41z" />
    <glyph glyph-name="uogonek.sc" horiz-adv-x="605" 
d="M441 -218c-21 -13 -45 -19 -75 -19c-60 0 -98 31 -98 87c0 45 21 80 87 140c-14 -3 -34 -5 -53 -5c-117 0 -215 66 -215 218v315h84v-315c0 -98 59 -141 131 -141s132 43 132 141v315h84v-315c0 -76 -24 -129 -63 -166c-95 -95 -114 -129 -114 -176c0 -21 13 -37 39 -37
c22 0 46 8 64 29h3z" />
    <glyph glyph-name="wgrave.sc" horiz-adv-x="792" 
d="M497 0l-103 264l-109 -264h-69l-207 518h90l154 -410l103 253l-60 157h88l149 -411l162 411h88l-216 -518h-70zM401 610l-134 162h97l80 -162h-43z" />
    <glyph glyph-name="wacute.sc" horiz-adv-x="792" 
d="M497 0l-103 264l-109 -264h-69l-207 518h90l154 -410l103 253l-60 157h88l149 -411l162 411h88l-216 -518h-70zM518 772l-134 -162h-43l80 162h97z" />
    <glyph glyph-name="wcircumflex.sc" horiz-adv-x="792" 
d="M497 0l-103 264l-109 -264h-69l-207 518h90l154 -410l103 253l-60 157h88l149 -411l162 411h88l-216 -518h-70zM477 610l-85 93l-83 -93h-48l105 162h54l105 -162h-48z" />
    <glyph glyph-name="wdieresis.sc" horiz-adv-x="792" 
d="M497 0l-103 264l-109 -264h-69l-207 518h90l154 -410l103 253l-60 157h88l149 -411l162 411h88l-216 -518h-70zM301 737c29 0 50 -20 50 -50c0 -29 -20 -49 -49 -49c-31 0 -50 19 -50 49s19 50 49 50zM483 737c30 0 50 -20 50 -50c0 -29 -20 -49 -49 -49
c-31 0 -50 19 -50 49s20 50 49 50z" />
    <glyph glyph-name="ygrave.sc" horiz-adv-x="548" 
d="M544 518l-235 -299v-219h-83v221l-222 297h100l164 -230l174 230h102zM282 610l-134 162h97l80 -162h-43z" />
    <glyph glyph-name="yacute.sc" horiz-adv-x="548" 
d="M544 518l-235 -299v-219h-83v221l-222 297h100l164 -230l174 230h102zM399 772l-134 -162h-43l80 162h97z" />
    <glyph glyph-name="ycircumflex.sc" horiz-adv-x="548" 
d="M544 518l-235 -299v-219h-83v221l-222 297h100l164 -230l174 230h102zM358 610l-85 93l-83 -93h-48l105 162h54l105 -162h-48z" />
    <glyph glyph-name="ydieresis.sc" horiz-adv-x="548" 
d="M544 518l-235 -299v-219h-83v221l-222 297h100l164 -230l174 230h102zM182 737c29 0 50 -20 50 -50c0 -29 -20 -49 -49 -49c-31 0 -50 19 -50 49s19 50 49 50zM364 737c30 0 50 -20 50 -50c0 -29 -20 -49 -49 -49c-31 0 -50 19 -50 49s20 50 49 50z" />
    <glyph glyph-name="zacute.sc" horiz-adv-x="548" 
d="M510 0h-496l351 441h-319l8 77h463l-353 -441h359zM396 772l-134 -162h-43l80 162h97z" />
    <glyph glyph-name="zcaron.sc" horiz-adv-x="548" 
d="M510 0h-496l351 441h-319l8 77h463l-353 -441h359zM139 772h48l84 -94l84 94h48l-105 -162h-54z" />
    <glyph glyph-name="zdotaccent.sc" horiz-adv-x="548" 
d="M510 0h-496l351 441h-319l8 77h463l-353 -441h359zM269 744c33 0 55 -22 55 -54s-22 -54 -54 -54c-33 0 -54 21 -54 54c0 32 21 54 53 54z" />
    <glyph glyph-name="germandbls.sc" horiz-adv-x="618" 
d="M522 476l-103 -176c96 -11 151 -69 151 -154c0 -86 -68 -158 -182 -158c-53 0 -91 10 -120 27l-8 87h3c27 -25 68 -41 120 -41c69 0 107 40 107 90c0 57 -45 92 -134 92c-17 0 -39 -2 -52 -5l-1 3l116 198c-25 12 -57 20 -95 20c-86 0 -153 -58 -153 -164v-295h-83v306
c0 136 99 225 236 225c83 0 147 -22 198 -55z" />
    <glyph glyph-name="thorn.sc" horiz-adv-x="479" 
d="M177 0h-84v518h84v-93h64c130 0 207 -53 207 -157c0 -115 -78 -172 -218 -172h-53v-96zM177 361v-197h57c82 0 128 34 128 104c0 61 -48 93 -132 93h-53z" />
    <glyph glyph-name="fi.sc" horiz-adv-x="710" 
d="M174 440v-149h208v-78h-208v-213h-81v518h320v-78h-239zM617 0h-84v518h84v-518z" />
    <glyph glyph-name="fl.sc" horiz-adv-x="905" 
d="M174 440v-149h208v-78h-208v-213h-81v518h320v-78h-239zM533 0v518h84v-443h278v-75h-362z" />
    <glyph glyph-name="ampersand.sc" horiz-adv-x="626" 
d="M330 226l-5 74c64 26 178 16 259 51l5 -74c-27 -12 -60 -17 -95 -21c4 -18 7 -39 7 -59c0 -134 -82 -214 -231 -214c-130 0 -206 80 -206 182c0 64 34 116 98 143c-28 24 -42 60 -42 95c0 74 73 127 176 127c41 0 73 -4 102 -13l-12 -79c-23 13 -60 21 -95 21
c-67 0 -103 -30 -103 -75c0 -31 10 -59 42 -89c-63 -29 -91 -68 -91 -121c0 -66 49 -118 138 -118c103 0 159 50 159 140c0 18 -3 36 -8 54c-35 -4 -69 -11 -98 -24z" />
    <glyph glyph-name="exclam.sc" horiz-adv-x="268" 
d="M132 86c30 0 50 -20 50 -49s-20 -49 -49 -49c-30 0 -49 20 -49 49s19 49 48 49zM87 513l103 14c-7 -126 -25 -276 -43 -367l-32 5c-15 88 -27 237 -28 348z" />
    <glyph glyph-name="question.sc" horiz-adv-x="350" 
d="M114 86c30 0 49 -20 49 -49s-19 -49 -48 -49c-30 0 -49 20 -49 49s19 49 48 49zM145 162l-66 -13v131c100 4 158 43 158 104c0 54 -44 81 -111 81c-28 0 -52 -3 -74 -13l14 71c21 6 42 8 68 8c102 0 179 -45 179 -144c0 -87 -67 -140 -168 -157v-68z" />
    <glyph glyph-name="exclamdown.sc" horiz-adv-x="268" 
d="M135 434c-29 0 -49 20 -49 49s20 48 48 48c31 0 49 -19 49 -48s-18 -49 -48 -49zM181 3l-103 -14c6 126 25 276 43 367l32 -5c15 -88 27 -237 28 -348z" />
    <glyph glyph-name="questiondown.sc" horiz-adv-x="350" 
d="M236 434c-30 0 -50 20 -50 49s20 48 49 48c30 0 49 -19 49 -48s-19 -49 -48 -49zM205 358l66 13v-132c-100 -4 -158 -42 -158 -103c0 -54 44 -82 111 -82c28 0 52 4 74 13l-14 -71c-22 -5 -43 -8 -68 -8c-102 0 -179 46 -179 145c0 87 67 140 168 156v69z" />
    <glyph glyph-name="percent.sc" horiz-adv-x="694" 
d="M547 518l-337 -518h-63l336 518h64zM159 240c-71 0 -115 40 -115 118c0 80 65 160 147 160c71 0 115 -40 115 -118c0 -79 -65 -160 -147 -160zM191 468c-52 0 -91 -52 -91 -113c0 -43 20 -64 60 -64c51 0 89 51 89 112c0 43 -18 65 -58 65zM503 0c-71 0 -115 40 -115 118
c0 80 65 160 147 160c71 0 115 -40 115 -118c0 -79 -65 -160 -147 -160zM535 228c-51 0 -90 -52 -90 -113c0 -43 19 -64 59 -64c52 0 90 51 90 112c0 43 -19 65 -59 65z" />
    <glyph glyph-name="perthousand.sc" horiz-adv-x="999" 
d="M549 518l-337 -518h-65l336 518h66zM159 240c-71 0 -115 40 -115 118c0 80 65 160 147 160c71 0 115 -40 115 -118c0 -79 -65 -160 -147 -160zM191 468c-52 0 -91 -52 -91 -113c0 -43 20 -64 60 -64c51 0 89 51 89 112c0 43 -18 65 -58 65zM505 0c-71 0 -115 40 -115 118
c0 80 65 160 147 160c71 0 115 -40 115 -118c0 -79 -65 -160 -147 -160zM537 228c-51 0 -90 -52 -90 -113c0 -43 19 -64 59 -64c52 0 90 51 90 112c0 43 -19 65 -59 65zM808 0c-70 0 -115 40 -115 118c0 80 66 160 147 160c71 0 116 -40 116 -118c0 -79 -66 -160 -148 -160z
M840 228c-51 0 -90 -52 -90 -113c0 -43 20 -64 59 -64c52 0 90 51 90 112c0 43 -19 65 -59 65z" />
    <glyph glyph-name="dollar.sc" horiz-adv-x="479" 
d="M261 612v-81c46 -2 87 -12 124 -29v-85c-39 28 -81 44 -124 49v-170c116 -40 157 -87 157 -163c0 -88 -64 -137 -157 -147v-76h-49v74c-58 2 -112 15 -145 35l-6 90c43 -34 88 -56 151 -60v193c-105 35 -145 76 -145 153c0 68 56 127 145 136v81h49zM349 131
c0 41 -24 69 -88 94v-176c57 6 88 37 88 82zM136 397c0 -37 18 -60 76 -84v154c-52 -6 -76 -35 -76 -70z" />
    <glyph glyph-name="Euro.sc" horiz-adv-x="479" 
d="M14 297l17 49h43c28 118 118 185 245 185c61 0 102 -9 137 -25l-22 -68c-28 16 -65 26 -112 26c-87 0 -147 -40 -171 -118h251l-17 -49h-243c-1 -12 -2 -24 -2 -37c0 -11 0 -22 1 -32h221l-17 -49h-195c24 -86 91 -124 180 -124c44 0 87 12 125 47h3l-10 -86
c-31 -18 -79 -29 -121 -29c-134 0 -227 68 -254 192h-70l17 49h46c-1 10 -1 21 -1 32c0 12 0 25 1 37h-52z" />
    <glyph glyph-name="cent.sc" horiz-adv-x="479" 
d="M389 609l-29 -115c34 -8 65 -22 91 -40l-20 -76c-26 21 -55 37 -89 46l-84 -338h14c74 0 128 23 178 79h3l-15 -97c-38 -30 -104 -53 -170 -53c-10 0 -19 0 -28 1l-26 -106h-55l29 115c-99 28 -157 110 -157 226c0 146 91 251 255 251c7 0 14 0 21 -1l27 108h55zM105 251
c0 -71 33 -131 100 -155l84 336h-8c-115 0 -176 -69 -176 -181z" />
    <glyph glyph-name="sterling.sc" horiz-adv-x="479" 
d="M352 296l-17 -58c-37 3 -82 4 -126 5c5 -22 9 -45 9 -67c0 -31 -5 -57 -15 -79c39 -17 78 -44 131 -44c35 0 63 14 94 50h3l1 -77c-29 -30 -63 -42 -95 -42c-73 0 -122 47 -165 60c-34 -39 -63 -52 -84 -52c-29 0 -47 20 -47 47c0 34 48 70 111 70h3c6 16 9 35 9 57
c0 25 -6 51 -14 76c-30 -2 -60 -5 -89 -11l17 63l52 4c-12 33 -22 67 -22 100c0 78 58 133 150 133c53 0 102 -18 146 -47l-21 -72c-43 37 -83 51 -123 51c-54 0 -82 -31 -82 -75c0 -29 6 -58 14 -87h16c42 0 106 -3 144 -5z" />
    <glyph glyph-name="florin.sc" horiz-adv-x="479" 
d="M23 -48l-2 78c14 -14 36 -23 64 -23c53 0 82 46 98 166l12 89h-106v58h114l3 17c19 138 75 194 171 194c31 0 60 -8 83 -24l-10 -69c-17 18 -38 26 -63 26c-57 0 -83 -37 -98 -135l-2 -9h136v-58h-144l-15 -104c-23 -162 -82 -222 -169 -222c-29 0 -55 7 -72 16z" />
    <glyph glyph-name="yen.sc" horiz-adv-x="479" 
d="M457 211v-57h-182v-154h-84v154h-169v57h169l-52 86h-117v57h83l-97 164h88l138 -252l149 252h89l-106 -164h91v-57h-127l-55 -86h182z" />
    <glyph glyph-name="uni20B9.sc" horiz-adv-x="479" 
d="M35 326l24 57h224c-9 52 -60 79 -141 79h-107l24 56h380l-24 -56h-99c25 -20 41 -47 45 -79h78l-24 -57h-58c-15 -63 -68 -106 -157 -128l192 -198h-113l-221 234v4c140 13 202 40 220 88h-243z" />
    <glyph glyph-name="uni20BA.sc" horiz-adv-x="479" 
d="M40 283v60l60 28v147h79v-114l131 58v-61l-131 -58v-70l131 59v-60l-131 -59v-143c9 -2 19 -3 29 -3c88 0 160 51 183 147l68 -43c-32 -112 -129 -179 -255 -179c-41 0 -76 6 -104 15v174l-60 -28v60l60 28v70z" />
    <glyph glyph-name="zero.onumprop" horiz-adv-x="624" 
d="M312 -15c-153 0 -258 95 -258 274s105 272 258 272c152 0 258 -93 258 -272s-106 -274 -258 -274zM312 54c104 0 171 71 171 205s-67 203 -171 203c-105 0 -172 -70 -172 -203c0 -134 67 -205 172 -205z" />
    <glyph glyph-name="one.onumprop" horiz-adv-x="354" 
d="M233 0h-85v442l-102 -4l10 80h177v-518z" />
    <glyph glyph-name="two.onumprop" horiz-adv-x="505" 
d="M313 190c-31 -31 -94 -81 -146 -115h288l-8 -75h-405v64c69 43 152 104 207 159c61 60 83 95 83 148c0 49 -37 86 -103 86c-57 0 -109 -17 -160 -55l15 92c43 24 100 37 162 37c112 0 169 -65 169 -146c0 -71 -29 -121 -102 -195z" />
    <glyph glyph-name="three.onumprop" horiz-adv-x="515" 
d="M328 194c84 -28 131 -82 131 -169c0 -130 -99 -211 -256 -211c-61 0 -112 9 -155 28l-4 82c44 -24 91 -35 152 -35c111 0 177 56 177 137c0 73 -56 123 -157 123c-44 0 -88 -3 -122 -11l16 86c22 -2 51 -3 77 -3c105 0 170 46 170 130c0 61 -44 107 -125 107
c-56 0 -100 -11 -142 -38l16 91c39 14 83 20 134 20c130 0 202 -73 202 -171c0 -74 -43 -135 -114 -166z" />
    <glyph glyph-name="four.onumprop" horiz-adv-x="598" 
d="M376 -187v187h-337v63l336 455h81v-445h101v-73h-101v-187h-80zM119 73h257v347z" />
    <glyph glyph-name="five.onumprop" horiz-adv-x="477" 
d="M422 518l-11 -76h-243l-25 -188c10 2 26 3 40 3c158 0 247 -81 247 -196c0 -156 -126 -251 -356 -251c-14 0 -28 1 -41 3l12 85c17 -3 37 -5 59 -5c161 0 243 65 243 164c0 76 -61 132 -185 132c-35 0 -72 -4 -104 -13l43 342h321z" />
    <glyph glyph-name="six.onumprop" horiz-adv-x="599" 
d="M501 683c-208 -11 -326 -136 -361 -299c46 41 105 65 177 65c140 0 234 -88 234 -225c0 -133 -96 -238 -242 -238c-166 0 -255 119 -255 287c0 259 150 476 461 493zM301 384c-71 0 -127 -26 -171 -70c-1 -13 -1 -26 -1 -39c0 -131 68 -213 180 -213c89 0 155 68 155 163
s-66 159 -163 159z" />
    <glyph glyph-name="seven.onumprop" horiz-adv-x="531" 
d="M51 518h435c-101 -245 -190 -508 -232 -705h-101c57 216 154 465 227 624l-356 -8z" />
    <glyph glyph-name="eight.onumprop" horiz-adv-x="601" 
d="M540 190c0 -111 -94 -203 -238 -203c-148 0 -241 81 -241 199c0 95 61 164 169 200c-111 52 -145 115 -145 193c0 102 89 193 220 193c138 0 217 -85 217 -187c0 -89 -50 -153 -144 -193c106 -48 162 -109 162 -202zM453 196c0 73 -50 117 -161 158
c-97 -31 -150 -88 -150 -160c0 -74 64 -131 156 -131c98 0 155 60 155 133zM170 578c0 -75 43 -117 145 -156c78 33 127 80 127 153c0 72 -55 123 -135 123c-81 0 -137 -54 -137 -120z" />
    <glyph glyph-name="nine.onumprop" horiz-adv-x="593" 
d="M189 -213l-57 71c157 64 256 143 301 247c-38 -19 -85 -30 -136 -30c-146 0 -247 86 -247 227c0 127 95 229 233 229c166 0 259 -113 259 -281c0 -210 -114 -357 -353 -463zM311 137c58 0 105 12 143 34c5 25 7 51 7 78c0 128 -71 207 -180 207c-84 0 -148 -65 -148 -155
c0 -96 70 -164 178 -164z" />
    <glyph glyph-name="zero.onumtab" 
d="M293 -15c-139 0 -236 95 -236 274s97 272 236 272s236 -93 236 -272s-97 -274 -236 -274zM293 54c93 0 152 71 152 205s-59 203 -152 203s-152 -70 -152 -203c0 -134 59 -205 152 -205z" />
    <glyph glyph-name="one.onumtab" 
d="M490 0h-372v75h143v367l-146 -4l10 80h221v-443h144v-75z" />
    <glyph glyph-name="two.onumtab" 
d="M356 185c-31 -30 -94 -78 -145 -110h295l-8 -75h-418v64c71 41 156 101 213 153c67 62 91 98 91 154c0 49 -38 86 -107 86c-59 0 -117 -19 -167 -56l15 89c45 27 105 41 169 41c115 0 173 -65 173 -146c0 -73 -31 -126 -111 -200z" />
    <glyph glyph-name="three.onumtab" 
d="M359 194c84 -28 130 -82 130 -169c0 -130 -100 -211 -258 -211c-62 0 -113 9 -156 28l-4 82c44 -24 92 -35 153 -35c112 0 180 56 180 137c0 73 -58 123 -161 123c-44 0 -88 -3 -122 -11l16 86c22 -2 51 -3 78 -3c106 0 173 45 173 130c0 61 -46 107 -128 107
c-57 0 -101 -11 -143 -38l16 91c39 14 84 20 135 20c131 0 204 -73 204 -172c0 -74 -42 -134 -113 -165z" />
    <glyph glyph-name="four.onumtab" 
d="M368 -187v187h-330v63l335 455h75v-445h101v-73h-101v-187h-80zM114 73h254v343z" />
    <glyph glyph-name="five.onumtab" 
d="M477 518l-11 -76h-262l-25 -189c12 3 33 4 53 4c163 0 254 -81 254 -196c0 -156 -130 -251 -367 -251c-17 0 -35 2 -50 4l11 84c23 -3 44 -5 70 -5c168 0 253 65 253 164c0 76 -64 132 -195 132c-39 0 -79 -4 -114 -13l42 342h341z" />
    <glyph glyph-name="six.onumtab" 
d="M492 683c-204 -11 -320 -136 -355 -299c45 41 102 65 171 65c135 0 227 -88 227 -225c0 -133 -94 -238 -236 -238c-161 0 -248 119 -248 287c0 259 149 476 454 493zM292 384c-69 0 -123 -26 -165 -70c-1 -13 -1 -26 -1 -39c0 -131 66 -213 174 -213c85 0 148 68 148 163
s-64 159 -156 159z" />
    <glyph glyph-name="seven.onumtab" 
d="M73 518h442c-101 -245 -191 -508 -232 -705h-101c57 216 153 465 227 624l-363 -8z" />
    <glyph glyph-name="eight.onumtab" 
d="M526 190c0 -111 -91 -203 -232 -203c-144 0 -234 81 -234 199c0 95 59 164 164 200c-107 52 -140 116 -140 193c0 102 87 193 214 193c133 0 210 -85 210 -187c0 -89 -48 -153 -139 -193c102 -48 157 -110 157 -202zM439 196c0 73 -47 117 -154 158
c-93 -31 -144 -88 -144 -160c0 -74 61 -131 150 -131c93 0 148 60 148 133zM169 578c0 -75 41 -117 138 -156c74 33 120 80 120 153c0 72 -51 123 -128 123s-130 -54 -130 -120z" />
    <glyph glyph-name="nine.onumtab" 
d="M186 -213l-57 71c157 64 256 143 301 247c-38 -19 -85 -30 -136 -30c-146 0 -247 86 -247 227c0 127 95 229 233 229c166 0 259 -113 259 -281c0 -210 -114 -357 -353 -463zM308 137c58 0 105 12 143 34c5 25 7 51 7 78c0 128 -71 207 -180 207c-84 0 -148 -65 -148 -155
c0 -96 70 -164 178 -164z" />
    <glyph glyph-name="zero.prop" horiz-adv-x="673" 
d="M335 -16c-162 0 -266 138 -266 394c0 260 111 390 269 390c165 0 267 -130 267 -392c0 -254 -109 -392 -270 -392zM335 61c115 0 183 103 183 318c0 211 -69 315 -181 315c-111 0 -181 -104 -181 -314c0 -211 68 -319 179 -319z" />
    <glyph glyph-name="one.prop" horiz-adv-x="382" 
d="M251 0h-85v676l-118 -9l14 85h189v-752z" />
    <glyph glyph-name="two.prop" horiz-adv-x="577" 
d="M88 716c55 31 121 49 196 49c140 0 222 -88 222 -202c0 -91 -34 -155 -106 -243c-57 -68 -169 -179 -239 -242h371l-9 -78h-486v45c84 75 224 219 302 318c55 69 80 117 80 183c0 77 -50 137 -153 137c-68 0 -133 -21 -197 -70z" />
    <glyph glyph-name="three.prop" horiz-adv-x="567" 
d="M357 395c92 -31 144 -92 144 -188c0 -135 -110 -220 -281 -220c-61 0 -112 10 -155 28l-5 87c44 -24 92 -35 153 -35c125 0 200 58 200 144c0 83 -63 138 -180 138c-49 0 -95 -3 -132 -10l20 88c24 -2 54 -3 83 -3c119 0 194 49 194 139c0 71 -52 125 -148 125
c-60 0 -106 -11 -151 -39l17 94c41 15 87 22 141 22c144 0 226 -81 226 -191c0 -81 -47 -145 -126 -179z" />
    <glyph glyph-name="four.prop" horiz-adv-x="641" 
d="M416 0v223h-393v59l382 470h92v-455h101v-74h-101v-223h-81zM115 297h301v371z" />
    <glyph glyph-name="five.prop" horiz-adv-x="582" 
d="M510 752l-11 -76h-316l-26 -197c11 1 30 2 47 2c195 0 304 -100 304 -243c0 -179 -146 -284 -407 -284c-13 0 -26 1 -38 3l8 84c18 -2 36 -4 61 -4c188 0 291 75 291 195c0 103 -77 177 -241 177c-37 0 -76 -3 -111 -9l45 352h394z" />
    <glyph glyph-name="six.prop" horiz-adv-x="634" 
d="M531 693c-219 -12 -342 -140 -377 -304c49 43 112 67 188 67c144 0 242 -92 242 -234c0 -134 -104 -236 -252 -236c-172 0 -265 122 -265 301c0 258 157 476 480 493zM326 389c-74 0 -135 -25 -181 -69c-1 -11 -1 -23 -1 -34c0 -137 72 -222 190 -222
c95 0 165 66 165 160c0 99 -71 165 -173 165z" />
    <glyph glyph-name="seven.prop" horiz-adv-x="550" 
d="M50 752h462c-95 -258 -179 -543 -217 -752h-103c55 228 145 502 215 671l-387 -8z" />
    <glyph glyph-name="eight.prop" horiz-adv-x="613" 
d="M546 190c0 -111 -94 -203 -238 -203c-148 0 -241 81 -241 199c0 95 61 164 169 200c-111 52 -145 115 -145 193c0 102 89 193 220 193c138 0 217 -85 217 -187c0 -89 -50 -153 -144 -193c106 -48 162 -109 162 -202zM459 196c0 73 -50 117 -161 158
c-97 -31 -150 -88 -150 -160c0 -74 64 -131 156 -131c98 0 155 60 155 133zM176 578c0 -75 43 -117 145 -156c78 33 127 80 127 153c0 72 -55 123 -135 123c-81 0 -137 -54 -137 -120z" />
    <glyph glyph-name="nine.prop" horiz-adv-x="629" 
d="M209 -23l-59 71c170 70 273 164 313 289c-40 -24 -91 -37 -148 -37c-157 0 -265 91 -265 237c0 129 99 235 243 235c171 0 268 -123 268 -304c0 -223 -113 -380 -352 -491zM329 365c60 0 109 11 149 35c3 22 5 45 5 69c0 139 -77 225 -194 225c-90 0 -154 -65 -154 -158
c0 -100 76 -171 194 -171z" />
    <glyph glyph-name="ampersand.salt" horiz-adv-x="767" 
d="M631 351l76 -27c-28 -76 -63 -141 -107 -193l124 -131h-105l-72 77c-68 -59 -150 -90 -243 -90c-153 0 -240 79 -240 204c0 88 42 148 167 225c-68 76 -94 129 -94 191c0 94 73 173 184 173c115 0 178 -74 178 -161c0 -77 -39 -137 -158 -211l206 -220
c38 47 67 103 84 163zM311 63c69 0 131 26 183 70l-219 235c-97 -63 -126 -108 -126 -168c0 -85 57 -137 162 -137zM217 609c0 -46 14 -82 80 -154c102 63 124 102 124 162c0 50 -39 94 -99 94c-66 0 -105 -41 -105 -102z" />
    <glyph glyph-name="comma.salt" horiz-adv-x="247" 
d="M203 96l-111 -228h-61l90 228h82z" />
    <glyph glyph-name="semicolon.salt" horiz-adv-x="245" 
d="M122 490c32 0 54 -22 54 -55c0 -31 -21 -53 -53 -53c-33 0 -54 21 -54 53c0 33 21 55 53 55zM175 96l-111 -228h-61l90 228h82z" />
    <glyph glyph-name="quoteleft.salt" horiz-adv-x="203" 
d="M22 530l111 229h61l-90 -229h-82z" />
    <glyph glyph-name="quoteright.salt" horiz-adv-x="203" 
d="M190 758l-111 -228h-61l90 228h82z" />
    <glyph glyph-name="quotesinglbase.salt" horiz-adv-x="247" 
d="M203 96l-111 -228h-61l90 228h82z" />
    <glyph glyph-name="quotedblleft.salt" horiz-adv-x="344" 
d="M181 530l111 229h61l-90 -229h-82zM20 530l111 229h61l-90 -229h-82z" />
    <glyph glyph-name="quotedblright.salt" horiz-adv-x="344" 
d="M354 758l-111 -228h-61l90 228h82zM192 758l-111 -228h-61l90 228h82z" />
    <glyph glyph-name="quotedblbase.salt" horiz-adv-x="411" 
d="M364 96l-111 -228h-61l90 228h82zM203 96l-111 -228h-61l90 228h82z" />
    <glyph glyph-name="A.salt" horiz-adv-x="757" 
d="M656 0l-116 257h-323l-115 -257h-95l373 786h4l367 -786h-95zM379 621l-133 -293h265z" />
    <glyph glyph-name="G.salt" horiz-adv-x="778" 
d="M440 704c-180 0 -293 -136 -293 -320c0 -194 120 -318 292 -318c78 0 140 23 184 63v181h-187v80h275v-308c-73 -61 -170 -95 -275 -95c-222 0 -379 158 -379 397c0 221 147 401 382 401c100 0 182 -27 245 -71l-12 -101h-3c-60 61 -141 91 -229 91z" />
    <glyph glyph-name="J.salt" horiz-adv-x="436" 
d="M339 772v-517c0 -164 -91 -259 -238 -259c-28 0 -53 4 -77 13l-8 94c23 -21 49 -29 86 -29c92 0 152 64 152 186v512h85z" />
    <glyph glyph-name="M.salt" horiz-adv-x="984" 
d="M795 790l122 -790h-86l-77 530l-254 -557h-6l-261 560l-79 -533h-87l126 788h4l299 -643l295 645h4z" />
    <glyph glyph-name="N.salt" horiz-adv-x="843" 
d="M102 0v786h4l550 -608v594h85v-798h-4l-550 610v-584h-85z" />
    <glyph glyph-name="V.salt" horiz-adv-x="707" 
d="M7 772h97l245 -604l254 604h97l-351 -798h-4z" />
    <glyph glyph-name="W.salt" horiz-adv-x="1083" 
d="M7 772h95l217 -588l224 610h4l203 -611l231 589h95l-326 -804h-4l-203 599l-226 -599h-4z" />
    <glyph glyph-name="a.sc.salt" horiz-adv-x="551" 
d="M456 0l-73 165h-211l-77 -165h-91l277 545h4l262 -545h-91zM281 401l-81 -171h159z" />
    <glyph glyph-name="g.sc.salt" horiz-adv-x="579" 
d="M321 457c-118 0 -190 -85 -190 -198c0 -124 80 -199 190 -199c51 0 87 16 116 43v104h-116v74h198v-216c-52 -50 -127 -78 -204 -78c-156 0 -269 107 -269 273c0 152 106 271 273 271c75 0 135 -19 181 -51l-15 -86h-3c-43 44 -101 63 -161 63z" />
    <glyph glyph-name="j.sc.salt" horiz-adv-x="376" 
d="M290 518v-312c0 -132 -72 -213 -193 -213c-29 0 -55 4 -76 14l-8 89c22 -18 41 -26 77 -26c70 0 116 50 116 143v305h84z" />
    <glyph glyph-name="m.sc.salt" horiz-adv-x="729" 
d="M592 542l80 -542h-82l-43 304l-176 -330h-6l-182 333l-44 -307h-82l82 541h3l226 -418l221 419h3z" />
    <glyph glyph-name="n.sc.salt" horiz-adv-x="673" 
d="M577 -24l-400 379v-355h-84v537h3l400 -382v363h84v-542h-3z" />
    <glyph glyph-name="v.sc.salt" horiz-adv-x="518" 
d="M9 518h89l158 -373l163 373h90l-252 -543h-4z" />
    <glyph glyph-name="w.sc.salt" horiz-adv-x="779" 
d="M534 -32l-144 375l-159 -375h-4l-218 550h86l139 -364l155 383h6l141 -385l148 366h86l-232 -550h-4z" />
    <glyph glyph-name="a.salt" horiz-adv-x="592" 
d="M516 10l-81 -24c-5 15 -9 37 -10 53c-46 -37 -100 -51 -150 -51c-143 0 -226 110 -226 248c0 162 103 267 253 267c50 0 90 -10 133 -33l70 10v-375c0 -41 4 -69 11 -95zM291 59c57 0 102 18 132 54v281c-29 25 -66 38 -114 38c-110 0 -175 -75 -175 -194
c0 -104 58 -179 157 -179z" />
    <glyph glyph-name="e.salt" horiz-adv-x="543" 
d="M489 234l-363 -9c6 -111 73 -171 172 -171c68 0 126 22 174 75h4l-11 -90c-36 -32 -94 -56 -174 -56c-135 0 -242 79 -242 255c0 146 94 264 236 264c128 0 207 -88 207 -217c0 -16 -1 -36 -3 -51zM284 436c-85 0 -142 -62 -155 -155l287 8c0 83 -45 147 -132 147z" />
    <glyph glyph-name="g.salt" horiz-adv-x="596" 
d="M89 -187l-5 91c43 -44 104 -70 179 -70c112 0 164 58 164 159v35c-37 -26 -90 -43 -146 -43c-140 0 -232 98 -232 252c0 161 103 266 260 266c53 0 94 -9 131 -25l69 12v-499c0 -135 -87 -228 -242 -228c-76 0 -139 20 -178 50zM299 56c56 0 97 13 128 41v313
c-29 14 -62 22 -108 22c-116 0 -185 -75 -185 -193c0 -113 63 -183 165 -183z" />
    <glyph glyph-name="v.salt" horiz-adv-x="480" 
d="M9 485h89l132 -351l153 351h88l-245 -517h-3z" />
    <glyph glyph-name="w.salt" horiz-adv-x="755" 
d="M9 485h88l122 -351l159 379h4l134 -375l142 347h88l-231 -525h-4l-136 361l-158 -368h-4z" />
    <glyph glyph-name="ae.salt" horiz-adv-x="821" 
d="M767 236l-346 -9c5 -112 69 -168 164 -168c65 0 120 21 166 73h3l-11 -90c-36 -33 -91 -54 -166 -54c-89 0 -153 33 -192 96c-52 -53 -131 -95 -212 -95c-84 0 -134 45 -134 117c0 77 49 128 141 154c41 12 97 21 163 24v46c0 64 -37 97 -101 97c-53 0 -106 -19 -146 -57
h-3v78c46 34 103 50 160 50c81 0 131 -32 151 -90c38 55 97 90 168 90c123 0 198 -86 198 -213c0 -15 -1 -35 -3 -49zM570 432c-77 0 -134 -55 -146 -150l270 7c0 82 -42 143 -124 143zM343 123v108c-54 -3 -106 -10 -144 -21c-53 -15 -75 -45 -75 -84c0 -42 24 -72 76 -72
c50 0 103 24 143 69z" />
    <glyph glyph-name="oe.salt" horiz-adv-x="900" 
d="M847 236l-347 -10c5 -111 69 -172 164 -172c65 0 121 22 165 74h4l-10 -89c-36 -34 -91 -56 -167 -56c-86 0 -157 35 -196 109c-40 -73 -108 -109 -184 -109c-131 0 -227 100 -227 266c0 157 99 254 227 254c83 0 151 -41 189 -114c37 70 103 113 186 113
c123 0 199 -88 199 -217c0 -15 -2 -35 -3 -49zM276 54c86 0 141 71 141 195c0 103 -56 184 -141 184c-83 0 -142 -72 -142 -184c0 -114 51 -195 142 -195zM650 436c-79 0 -135 -61 -147 -155l271 8c0 84 -43 147 -124 147z" />
    <glyph glyph-name="Agrave.salt" horiz-adv-x="757" 
d="M656 0l-116 257h-323l-115 -257h-95l373 786h4l367 -786h-95zM379 621l-133 -293h265zM389 826l-130 131h103l78 -131h-51z" />
    <glyph glyph-name="Aacute.salt" horiz-adv-x="757" 
d="M656 0l-116 257h-323l-115 -257h-95l373 786h4l367 -786h-95zM379 621l-133 -293h265zM505 957l-130 -131h-51l78 131h103z" />
    <glyph glyph-name="Acircumflex.salt" horiz-adv-x="757" 
d="M656 0l-116 257h-323l-115 -257h-95l373 786h4l367 -786h-95zM379 621l-133 -293h265zM471 826l-90 76l-87 -76h-52l102 131h77l101 -131h-51z" />
    <glyph glyph-name="Atilde.salt" horiz-adv-x="757" 
d="M656 0l-116 257h-323l-115 -257h-95l373 786h4l367 -786h-95zM379 621l-133 -293h265zM322 868c-28 0 -49 -23 -51 -53l-35 8c7 73 42 116 87 116s93 -34 128 -34c30 0 47 23 51 54l35 -8c-7 -74 -43 -117 -87 -117c-45 0 -93 34 -128 34z" />
    <glyph glyph-name="Adieresis.salt" horiz-adv-x="757" 
d="M656 0l-116 257h-323l-115 -257h-95l373 786h4l367 -786h-95zM379 621l-133 -293h265zM281 943c30 0 51 -21 51 -51s-20 -51 -50 -51c-31 0 -51 20 -51 51c0 30 20 51 50 51zM483 943c30 0 51 -21 51 -51s-21 -51 -50 -51c-32 0 -51 20 -51 51c0 30 20 51 50 51z" />
    <glyph glyph-name="Amacron.salt" horiz-adv-x="757" 
d="M656 0l-116 257h-323l-115 -257h-95l373 786h4l367 -786h-95zM379 621l-133 -293h265zM522 913v-61h-280v61h280z" />
    <glyph glyph-name="Abreve.salt" horiz-adv-x="757" 
d="M656 0l-116 257h-323l-115 -257h-95l373 786h4l367 -786h-95zM379 621l-133 -293h265zM383 885c54 0 77 28 80 72h43c0 -65 -32 -131 -123 -131c-94 0 -124 66 -124 131h43c3 -44 26 -72 81 -72z" />
    <glyph glyph-name="Aring.salt" horiz-adv-x="757" 
d="M656 0l-116 257h-323l-115 -257h-95l373 786h4l367 -786h-95zM379 621l-133 -293h265zM284 906c0 54 45 98 98 98c54 0 98 -44 98 -98c0 -53 -44 -98 -98 -98c-53 0 -98 45 -98 98zM324 906c0 -31 26 -58 58 -58s58 27 58 58c0 32 -26 58 -58 58s-58 -26 -58 -58z" />
    <glyph glyph-name="Aogonek.salt" horiz-adv-x="757" 
d="M556 -150c0 46 24 83 100 150l-116 257h-323l-115 -257h-95l373 786h4l367 -786c-94 -48 -122 -95 -122 -139c0 -21 13 -37 39 -37c22 0 45 8 64 29h3l-6 -71c-21 -13 -46 -19 -76 -19c-59 0 -97 31 -97 87zM379 621l-133 -293h265z" />
    <glyph glyph-name="Gcircumflex.salt" horiz-adv-x="778" 
d="M440 704c-180 0 -293 -136 -293 -320c0 -194 120 -318 292 -318c78 0 140 23 184 63v181h-187v80h275v-308c-73 -61 -170 -95 -275 -95c-222 0 -379 158 -379 397c0 221 147 401 382 401c100 0 182 -27 245 -71l-12 -101h-3c-60 61 -141 91 -229 91zM514 824l-90 76
l-87 -76h-52l102 131h77l101 -131h-51z" />
    <glyph glyph-name="Gbreve.salt" horiz-adv-x="778" 
d="M440 704c-180 0 -293 -136 -293 -320c0 -194 120 -318 292 -318c78 0 140 23 184 63v181h-187v80h275v-308c-73 -61 -170 -95 -275 -95c-222 0 -379 158 -379 397c0 221 147 401 382 401c100 0 182 -27 245 -71l-12 -101h-3c-60 61 -141 91 -229 91zM426 883
c54 0 77 28 80 72h43c0 -65 -32 -131 -123 -131c-94 0 -124 66 -124 131h43c3 -44 26 -72 81 -72z" />
    <glyph glyph-name="Gdotaccent.salt" horiz-adv-x="778" 
d="M440 704c-180 0 -293 -136 -293 -320c0 -194 120 -318 292 -318c78 0 140 23 184 63v181h-187v80h275v-308c-73 -61 -170 -95 -275 -95c-222 0 -379 158 -379 397c0 221 147 401 382 401c100 0 182 -27 245 -71l-12 -101h-3c-60 61 -141 91 -229 91zM424 941
c32 0 53 -21 53 -52s-21 -52 -52 -52c-32 0 -52 20 -52 52c0 31 20 52 51 52z" />
    <glyph glyph-name="Gcommaaccent.salt" horiz-adv-x="778" 
d="M440 704c-180 0 -293 -136 -293 -320c0 -194 120 -318 292 -318c78 0 140 23 184 63v181h-187v80h275v-308c-73 -61 -170 -95 -275 -95c-222 0 -379 158 -379 397c0 221 147 401 382 401c100 0 182 -27 245 -71l-12 -101h-3c-60 61 -141 91 -229 91zM470 -63
c9 -16 13 -34 13 -54c0 -34 -17 -67 -83 -120h-49c48 54 62 85 62 117c0 13 -6 28 -13 40z" />
    <glyph glyph-name="IJ.salt" horiz-adv-x="691" 
d="M187 0h-85v772h85v-772zM595 772v-517c0 -164 -91 -259 -238 -259c-28 0 -53 4 -77 13l-8 94c23 -21 49 -29 86 -29c92 0 152 64 152 186v512h85z" />
    <glyph glyph-name="Jcircumflex.salt" horiz-adv-x="436" 
d="M339 772v-517c0 -164 -91 -259 -238 -259c-28 0 -53 4 -77 13l-8 94c23 -21 49 -29 86 -29c92 0 152 64 152 186v512h85zM386 824l-90 76l-87 -76h-52l102 131h77l101 -131h-51z" />
    <glyph glyph-name="Nacute.salt" horiz-adv-x="843" 
d="M102 0v786h4l550 -608v594h85v-798h-4l-550 610v-584h-85zM535 955l-130 -131h-51l78 131h103z" />
    <glyph glyph-name="Ncaron.salt" horiz-adv-x="843" 
d="M102 0v786h4l550 -608v594h85v-798h-4l-550 610v-584h-85zM271 955h52l89 -76l88 76h51l-101 -131h-77z" />
    <glyph glyph-name="Ntilde.salt" horiz-adv-x="843" 
d="M102 0v786h4l550 -608v594h85v-798h-4l-550 610v-584h-85zM352 866c-28 0 -49 -23 -51 -53l-35 8c7 73 42 116 87 116s93 -34 128 -34c30 0 47 23 51 54l35 -8c-7 -74 -43 -117 -87 -117c-45 0 -93 34 -128 34z" />
    <glyph glyph-name="Ncommaaccent.salt" horiz-adv-x="843" 
d="M102 0v786h4l550 -608v594h85v-798h-4l-550 610v-584h-85zM457 -63c9 -16 13 -34 13 -54c0 -34 -17 -67 -83 -120h-49c48 54 62 85 62 117c0 13 -6 28 -13 40z" />
    <glyph glyph-name="Eng.salt" horiz-adv-x="843" 
d="M102 0v786h4l550 -608v594h85v-819c0 -118 -62 -190 -168 -190c-33 0 -61 7 -87 21l-11 89c25 -23 47 -33 88 -33c56 0 93 42 93 123v101l-469 520v-584h-85z" />
    <glyph glyph-name="Wgrave.salt" horiz-adv-x="1083" 
d="M7 772h95l217 -588l224 610h4l203 -611l231 589h95l-326 -804h-4l-203 599l-226 -599h-4zM550 826l-130 131h103l78 -131h-51z" />
    <glyph glyph-name="Wacute.salt" horiz-adv-x="1083" 
d="M7 772h95l217 -588l224 610h4l203 -611l231 589h95l-326 -804h-4l-203 599l-226 -599h-4zM666 957l-130 -131h-51l78 131h103z" />
    <glyph glyph-name="Wcircumflex.salt" horiz-adv-x="1083" 
d="M7 772h95l217 -588l224 610h4l203 -611l231 589h95l-326 -804h-4l-203 599l-226 -599h-4zM632 826l-90 76l-87 -76h-52l102 131h77l101 -131h-51z" />
    <glyph glyph-name="Wdieresis.salt" horiz-adv-x="1083" 
d="M7 772h95l217 -588l224 610h4l203 -611l231 589h95l-326 -804h-4l-203 599l-226 -599h-4zM441 943c30 0 51 -21 51 -51s-20 -51 -50 -51c-31 0 -51 20 -51 51c0 30 20 51 50 51zM643 943c30 0 51 -21 51 -51s-21 -51 -50 -51c-32 0 -51 20 -51 51c0 30 20 51 50 51z" />
    <glyph glyph-name="agrave.sc.salt" horiz-adv-x="551" 
d="M456 0l-73 165h-211l-77 -165h-91l277 545h4l262 -545h-91zM281 401l-81 -171h159zM291 610l-134 162h97l80 -162h-43z" />
    <glyph glyph-name="aacute.sc.salt" horiz-adv-x="551" 
d="M456 0l-73 165h-211l-77 -165h-91l277 545h4l262 -545h-91zM281 401l-81 -171h159zM409 772l-134 -162h-43l80 162h97z" />
    <glyph glyph-name="acircumflex.sc.salt" horiz-adv-x="551" 
d="M456 0l-73 165h-211l-77 -165h-91l277 545h4l262 -545h-91zM281 401l-81 -171h159zM367 610l-85 93l-83 -93h-48l105 162h54l105 -162h-48z" />
    <glyph glyph-name="atilde.sc.salt" horiz-adv-x="551" 
d="M456 0l-73 165h-211l-77 -165h-91l277 545h4l262 -545h-91zM281 401l-81 -171h159zM226 672c-28 0 -48 -23 -51 -53l-35 7c7 74 44 117 90 117c43 0 89 -34 122 -34c29 0 47 23 51 54l35 -8c-8 -74 -44 -117 -90 -117c-43 0 -89 34 -122 34z" />
    <glyph glyph-name="adieresis.sc.salt" horiz-adv-x="551" 
d="M456 0l-73 165h-211l-77 -165h-91l277 545h4l262 -545h-91zM281 401l-81 -171h159zM192 737c29 0 50 -20 50 -50c0 -29 -20 -49 -49 -49c-31 0 -50 19 -50 49s19 50 49 50zM374 737c30 0 50 -20 50 -50c0 -29 -20 -49 -49 -49c-31 0 -50 19 -50 49s20 50 49 50z" />
    <glyph glyph-name="amacron.sc.salt" horiz-adv-x="551" 
d="M456 0l-73 165h-211l-77 -165h-91l277 545h4l262 -545h-91zM281 401l-81 -171h159zM416 719v-64h-267v64h267z" />
    <glyph glyph-name="abreve.sc.salt" horiz-adv-x="551" 
d="M456 0l-73 165h-211l-77 -165h-91l277 545h4l262 -545h-91zM281 401l-81 -171h159zM283 679c57 0 80 33 80 86h43c0 -80 -32 -148 -123 -148c-94 0 -124 68 -124 148h43c0 -53 23 -86 81 -86z" />
    <glyph glyph-name="aring.sc.salt" horiz-adv-x="551" 
d="M456 0l-73 165h-211l-77 -165h-91l277 545h4l262 -545h-91zM281 401l-81 -171h159zM184 696c0 55 45 100 99 100c55 0 100 -45 100 -100c0 -54 -45 -99 -100 -99c-54 0 -99 45 -99 99zM227 696c0 -31 25 -56 56 -56c32 0 57 25 57 56c0 32 -25 57 -57 57
c-31 0 -56 -25 -56 -57z" />
    <glyph glyph-name="aogonek.sc.salt" horiz-adv-x="551" 
d="M357 -150c0 46 24 82 99 150l-73 165h-211l-77 -165h-91l277 545h4l262 -545c-98 -60 -117 -99 -117 -139c0 -21 13 -37 39 -37c22 0 45 8 64 29h3l-6 -71c-21 -13 -46 -19 -76 -19c-59 0 -97 31 -97 87zM281 401l-81 -171h159z" />
    <glyph glyph-name="gcircumflex.sc.salt" horiz-adv-x="579" 
d="M321 457c-118 0 -190 -85 -190 -198c0 -124 80 -199 190 -199c51 0 87 16 116 43v104h-116v74h198v-216c-52 -50 -127 -78 -204 -78c-156 0 -269 107 -269 273c0 152 106 271 273 271c75 0 135 -19 181 -51l-15 -86h-3c-43 44 -101 63 -161 63zM388 610l-85 93l-83 -93
h-48l105 162h54l105 -162h-48z" />
    <glyph glyph-name="gbreve.sc.salt" horiz-adv-x="579" 
d="M321 457c-118 0 -190 -85 -190 -198c0 -124 80 -199 190 -199c51 0 87 16 116 43v104h-116v74h198v-216c-52 -50 -127 -78 -204 -78c-156 0 -269 107 -269 273c0 152 106 271 273 271c75 0 135 -19 181 -51l-15 -86h-3c-43 44 -101 63 -161 63zM304 679c57 0 80 33 80 86
h43c0 -80 -32 -148 -123 -148c-94 0 -124 68 -124 148h43c0 -53 23 -86 81 -86z" />
    <glyph glyph-name="gdotaccent.sc.salt" horiz-adv-x="579" 
d="M321 457c-118 0 -190 -85 -190 -198c0 -124 80 -199 190 -199c51 0 87 16 116 43v104h-116v74h198v-216c-52 -50 -127 -78 -204 -78c-156 0 -269 107 -269 273c0 152 106 271 273 271c75 0 135 -19 181 -51l-15 -86h-3c-43 44 -101 63 -161 63zM302 744
c33 0 55 -22 55 -54s-22 -54 -54 -54c-33 0 -54 21 -54 54c0 32 21 54 53 54z" />
    <glyph glyph-name="gcommaaccent.sc.salt" horiz-adv-x="579" 
d="M321 457c-118 0 -190 -85 -190 -198c0 -124 80 -199 190 -199c51 0 87 16 116 43v104h-116v74h198v-216c-52 -50 -127 -78 -204 -78c-156 0 -269 107 -269 273c0 152 106 271 273 271c75 0 135 -19 181 -51l-15 -86h-3c-43 44 -101 63 -161 63zM348 -63
c9 -16 13 -34 13 -54c0 -34 -17 -67 -83 -120h-49c48 54 62 85 62 117c0 13 -6 28 -13 40z" />
    <glyph glyph-name="ij.sc.salt" horiz-adv-x="612" 
d="M175 0h-84v518h84v-518zM526 518v-312c0 -132 -72 -213 -193 -213c-29 0 -55 4 -76 14l-8 89c22 -18 41 -26 77 -26c70 0 116 50 116 143v305h84z" />
    <glyph glyph-name="jcircumflex.sc.salt" horiz-adv-x="376" 
d="M290 518v-312c0 -132 -72 -213 -193 -213c-29 0 -55 4 -76 14l-8 89c22 -18 41 -26 77 -26c70 0 116 50 116 143v305h84zM332 610l-85 93l-83 -93h-48l105 162h54l105 -162h-48z" />
    <glyph glyph-name="nacute.sc.salt" horiz-adv-x="673" 
d="M577 -24l-400 379v-355h-84v537h3l400 -382v363h84v-542h-3zM455 772l-134 -162h-43l80 162h97z" />
    <glyph glyph-name="ncaron.sc.salt" horiz-adv-x="673" 
d="M577 -24l-400 379v-355h-84v537h3l400 -382v363h84v-542h-3zM198 772h48l84 -94l84 94h48l-105 -162h-54z" />
    <glyph glyph-name="ntilde.sc.salt" horiz-adv-x="673" 
d="M577 -24l-400 379v-355h-84v537h3l400 -382v363h84v-542h-3zM273 672c-28 0 -48 -23 -51 -53l-35 7c7 74 44 117 90 117c43 0 89 -34 122 -34c29 0 47 23 51 54l35 -8c-8 -74 -44 -117 -90 -117c-43 0 -89 34 -122 34z" />
    <glyph glyph-name="ncommaaccent.sc.salt" horiz-adv-x="673" 
d="M577 -24l-400 379v-355h-84v537h3l400 -382v363h84v-542h-3zM377 -63c9 -16 13 -34 13 -54c0 -34 -17 -67 -83 -120h-49c48 54 62 85 62 117c0 13 -6 28 -13 40z" />
    <glyph glyph-name="eng.sc.salt" horiz-adv-x="673" 
d="M496 -57v110l-319 302v-355h-84v537h3l400 -382v363h84v-580c0 -109 -56 -175 -152 -175c-28 0 -52 6 -74 17l-8 79c19 -18 38 -25 71 -25c48 0 79 37 79 109z" />
    <glyph glyph-name="wgrave.sc.salt" horiz-adv-x="779" 
d="M534 -32l-144 375l-159 -375h-4l-218 550h86l139 -364l155 383h6l141 -385l148 366h86l-232 -550h-4zM398 610l-134 162h97l80 -162h-43z" />
    <glyph glyph-name="wacute.sc.salt" horiz-adv-x="779" 
d="M534 -32l-144 375l-159 -375h-4l-218 550h86l139 -364l155 383h6l141 -385l148 366h86l-232 -550h-4zM516 772l-134 -162h-43l80 162h97z" />
    <glyph glyph-name="wcircumflex.sc.salt" horiz-adv-x="779" 
d="M534 -32l-144 375l-159 -375h-4l-218 550h86l139 -364l155 383h6l141 -385l148 366h86l-232 -550h-4zM474 610l-85 93l-83 -93h-48l105 162h54l105 -162h-48z" />
    <glyph glyph-name="wdieresis.sc.salt" horiz-adv-x="779" 
d="M534 -32l-144 375l-159 -375h-4l-218 550h86l139 -364l155 383h6l141 -385l148 366h86l-232 -550h-4zM299 737c29 0 50 -20 50 -50c0 -29 -20 -49 -49 -49c-31 0 -50 19 -50 49s19 50 49 50zM481 737c30 0 50 -20 50 -50c0 -29 -20 -49 -49 -49c-31 0 -50 19 -50 49
s20 50 49 50z" />
    <glyph glyph-name="agrave.salt" horiz-adv-x="592" 
d="M516 10l-81 -24c-5 15 -9 37 -10 53c-46 -37 -100 -51 -150 -51c-143 0 -226 110 -226 248c0 162 103 267 253 267c50 0 90 -10 133 -33l70 10v-375c0 -41 4 -69 11 -95zM291 59c57 0 102 18 132 54v281c-29 25 -66 38 -114 38c-110 0 -175 -75 -175 -194
c0 -104 58 -179 157 -179zM304 577l-134 162h97l80 -162h-43z" />
    <glyph glyph-name="aacute.salt" horiz-adv-x="592" 
d="M516 10l-81 -24c-5 15 -9 37 -10 53c-46 -37 -100 -51 -150 -51c-143 0 -226 110 -226 248c0 162 103 267 253 267c50 0 90 -10 133 -33l70 10v-375c0 -41 4 -69 11 -95zM291 59c57 0 102 18 132 54v281c-29 25 -66 38 -114 38c-110 0 -175 -75 -175 -194
c0 -104 58 -179 157 -179zM421 739l-134 -162h-43l80 162h97z" />
    <glyph glyph-name="acircumflex.salt" horiz-adv-x="592" 
d="M516 10l-81 -24c-5 15 -9 37 -10 53c-46 -37 -100 -51 -150 -51c-143 0 -226 110 -226 248c0 162 103 267 253 267c50 0 90 -10 133 -33l70 10v-375c0 -41 4 -69 11 -95zM291 59c57 0 102 18 132 54v281c-29 25 -66 38 -114 38c-110 0 -175 -75 -175 -194
c0 -104 58 -179 157 -179zM380 577l-85 93l-83 -93h-48l105 162h54l105 -162h-48z" />
    <glyph glyph-name="atilde.salt" horiz-adv-x="592" 
d="M516 10l-81 -24c-5 15 -9 37 -10 53c-46 -37 -100 -51 -150 -51c-143 0 -226 110 -226 248c0 162 103 267 253 267c50 0 90 -10 133 -33l70 10v-375c0 -41 4 -69 11 -95zM291 59c57 0 102 18 132 54v281c-29 25 -66 38 -114 38c-110 0 -175 -75 -175 -194
c0 -104 58 -179 157 -179zM239 639c-28 0 -48 -23 -51 -53l-35 7c7 74 44 117 90 117c43 0 89 -34 122 -34c29 0 47 23 51 54l35 -8c-8 -74 -44 -117 -90 -117c-43 0 -89 34 -122 34z" />
    <glyph glyph-name="adieresis.salt" horiz-adv-x="592" 
d="M516 10l-81 -24c-5 15 -9 37 -10 53c-46 -37 -100 -51 -150 -51c-143 0 -226 110 -226 248c0 162 103 267 253 267c50 0 90 -10 133 -33l70 10v-375c0 -41 4 -69 11 -95zM291 59c57 0 102 18 132 54v281c-29 25 -66 38 -114 38c-110 0 -175 -75 -175 -194
c0 -104 58 -179 157 -179zM204 704c29 0 50 -20 50 -50c0 -29 -20 -49 -49 -49c-31 0 -50 19 -50 49s19 50 49 50zM386 704c30 0 50 -20 50 -50c0 -29 -20 -49 -49 -49c-31 0 -50 19 -50 49s20 50 49 50z" />
    <glyph glyph-name="amacron.salt" horiz-adv-x="592" 
d="M516 10l-81 -24c-5 15 -9 37 -10 53c-46 -37 -100 -51 -150 -51c-143 0 -226 110 -226 248c0 162 103 267 253 267c50 0 90 -10 133 -33l70 10v-375c0 -41 4 -69 11 -95zM291 59c57 0 102 18 132 54v281c-29 25 -66 38 -114 38c-110 0 -175 -75 -175 -194
c0 -104 58 -179 157 -179zM429 686v-64h-267v64h267z" />
    <glyph glyph-name="abreve.salt" horiz-adv-x="592" 
d="M516 10l-81 -24c-5 15 -9 37 -10 53c-46 -37 -100 -51 -150 -51c-143 0 -226 110 -226 248c0 162 103 267 253 267c50 0 90 -10 133 -33l70 10v-375c0 -41 4 -69 11 -95zM291 59c57 0 102 18 132 54v281c-29 25 -66 38 -114 38c-110 0 -175 -75 -175 -194
c0 -104 58 -179 157 -179zM296 646c57 0 80 33 80 86h43c0 -80 -32 -148 -123 -148c-94 0 -124 68 -124 148h43c0 -53 23 -86 81 -86z" />
    <glyph glyph-name="aring.salt" horiz-adv-x="592" 
d="M516 10l-81 -24c-5 15 -9 37 -10 53c-46 -37 -100 -51 -150 -51c-143 0 -226 110 -226 248c0 162 103 267 253 267c50 0 90 -10 133 -33l70 10v-375c0 -41 4 -69 11 -95zM291 59c57 0 102 18 132 54v281c-29 25 -66 38 -114 38c-110 0 -175 -75 -175 -194
c0 -104 58 -179 157 -179zM196 663c0 55 45 100 99 100c55 0 100 -45 100 -100c0 -54 -45 -99 -100 -99c-54 0 -99 45 -99 99zM239 663c0 -31 25 -56 56 -56c32 0 57 25 57 56c0 32 -25 57 -57 57c-31 0 -56 -25 -56 -57z" />
    </font>
</defs>
</svg>
